<?xml version="1.0" standalone="no"?>
<!DOCTYPE svg PUBLIC "-//W3C//DTD SVG 20010904//EN"
 "http://www.w3.org/TR/2001/REC-SVG-20010904/DTD/svg10.dtd">
<svg version="1.0" xmlns="http://www.w3.org/2000/svg"
 width="700.000000pt" height="700.000000pt" viewBox="0 0 700.000000 700.000000"
 preserveAspectRatio="xMidYMid meet">
<metadata>
Created by potrace 1.14, written by Peter Selinger 2001-2017
</metadata>
<g transform="translate(0.000000,700.000000) scale(0.100000,-0.100000)"
fill="#000000" stroke="none">
<path d="M2717 5887 c-10 -7 -20 -28 -23 -47 -3 -19 -12 -73 -21 -120 -8 -47
-17 -94 -19 -105 -1 -11 -8 -47 -14 -80 -5 -33 -13 -73 -15 -90 -3 -16 -12
-66 -20 -110 -8 -44 -17 -93 -20 -110 -3 -16 -7 -41 -9 -55 -3 -14 -16 -90
-30 -170 -14 -80 -28 -158 -31 -175 -18 -101 -35 -196 -40 -235 -4 -24 -8 -47
-10 -50 -2 -3 -6 -26 -10 -50 -3 -25 -8 -52 -10 -60 -2 -8 -6 -31 -9 -50 -3
-19 -7 -44 -10 -55 -2 -11 -7 -39 -11 -62 -3 -23 -25 -79 -48 -125 -95 -188
-123 -306 -121 -509 l1 -107 -32 14 c-67 28 -121 -2 -162 -89 -36 -77 -50 -84
-110 -52 -26 14 -56 25 -66 25 -32 0 -73 -31 -85 -64 -11 -32 -7 -98 9 -128
27 -50 2 -70 -58 -47 -87 35 -165 -22 -157 -113 l3 -27 -37 19 c-50 27 -71 25
-108 -11 l-33 -32 -31 27 c-36 30 -84 34 -117 11 -26 -18 -45 -79 -37 -115 2
-14 7 -46 11 -72 5 -45 4 -48 -21 -58 -15 -5 -39 -10 -54 -10 -42 0 -89 -34
-97 -69 -6 -29 -9 -31 -55 -31 -83 0 -80 5 -80 -146 0 -124 2 -135 19 -142 27
-10 5097 -9 5107 1 10 10 11 245 2 270 -6 15 -22 17 -113 17 -96 0 -105 2
-105 19 0 74 -77 150 -155 153 -44 2 -46 5 -36 50 18 78 -41 133 -140 130 -50
-1 -57 1 -69 24 -18 32 -67 62 -112 68 -44 5 -108 -22 -131 -57 -9 -15 -23
-25 -30 -22 -6 2 -68 21 -137 43 -69 22 -184 59 -257 82 l-132 43 18 36 c26
52 58 149 66 201 4 25 9 54 12 65 8 37 4 201 -6 266 -17 106 -49 207 -101 318
-27 59 -52 129 -55 156 -4 28 -11 66 -15 85 -5 19 -11 57 -15 85 -3 27 -10 70
-15 95 -5 25 -12 59 -15 75 -13 77 -36 212 -40 235 -11 60 -57 320 -66 370 -5
30 -11 66 -14 80 -6 30 -9 48 -30 170 -9 52 -18 106 -21 120 -2 14 -7 41 -10
60 -16 96 -44 232 -49 240 -4 6 -302 10 -778 10 -614 0 -776 -2 -790 -13z"/>
<path d="M2700 2095 c-303 -85 -367 -501 -105 -682 17 -12 60 -31 95 -43 53
-18 79 -21 143 -17 139 9 244 82 310 216 30 61 32 73 31 166 0 89 -3 106 -29
157 -46 94 -134 169 -239 202 -46 15 -153 15 -206 1z m174 -170 c19 -9 43 -34
57 -58 21 -37 24 -55 24 -142 0 -90 -2 -104 -25 -137 -32 -48 -74 -72 -123
-70 -95 4 -147 61 -155 172 -8 115 30 215 92 240 34 14 95 11 130 -5z"/>
<path d="M5895 2093 c-136 -41 -207 -154 -171 -272 22 -72 124 -147 244 -180
78 -22 103 -70 60 -111 -20 -19 -31 -21 -83 -17 -33 3 -91 14 -130 25 l-70 20
-6 -27 c-8 -38 19 -107 52 -136 41 -34 95 -46 193 -44 102 2 167 29 225 95 70
80 74 201 9 271 -27 29 -110 73 -185 97 -66 22 -103 51 -103 81 0 52 71 68
185 40 33 -8 75 -14 94 -15 l34 0 -6 51 c-8 65 -28 96 -75 116 -52 22 -203 25
-267 6z"/>
<path d="M3964 2086 c-24 -10 -33 -24 -42 -57 -21 -80 -24 -112 -24 -285 2
-327 19 -384 118 -384 100 0 116 54 117 375 0 228 -11 315 -48 345 -22 18 -86
22 -121 6z"/>
<path d="M4370 2085 c-65 -16 -113 -61 -131 -127 -13 -45 -17 -371 -5 -442 9
-57 42 -103 90 -128 33 -17 64 -22 159 -26 178 -7 247 22 247 103 0 53 -18 60
-152 60 -132 0 -138 3 -138 67 0 57 18 68 113 69 96 1 137 6 154 21 19 15 16
82 -5 108 -16 20 -26 22 -110 21 -115 -1 -151 14 -152 65 0 11 6 29 14 40 13
17 25 19 119 16 127 -3 157 6 157 47 0 44 -17 75 -53 97 -26 15 -53 19 -142
20 -61 1 -135 -4 -165 -11z"/>
<path d="M4910 2091 c-64 -20 -81 -49 -95 -161 -7 -59 -7 -376 0 -415 11 -59
40 -99 91 -125 45 -23 58 -25 199 -25 190 0 213 10 231 105 2 8 -4 25 -12 38
-14 21 -21 22 -118 21 -60 0 -113 4 -125 10 -39 21 -53 76 -51 201 4 219 1
260 -19 306 -11 24 -27 44 -35 44 -8 0 -20 2 -28 4 -7 2 -24 1 -38 -3z"/>
<path d="M5484 2090 c-59 -22 -74 -98 -72 -365 1 -216 12 -314 40 -342 24 -23
102 -29 132 -9 51 33 58 72 61 336 2 236 -11 334 -50 367 -26 23 -70 28 -111
13z"/>
<path d="M6415 2089 c-16 -4 -42 -10 -57 -13 -34 -8 -56 -49 -52 -95 4 -46 13
-53 78 -57 73 -5 94 -17 101 -57 3 -17 7 -117 8 -222 3 -151 7 -198 21 -230
21 -50 29 -55 94 -55 40 0 56 5 70 20 9 12 17 24 18 28 0 4 4 34 9 66 4 33 9
135 10 227 1 138 5 172 19 193 9 14 24 27 34 27 9 1 39 3 66 4 63 4 76 18 67
74 -8 55 -36 78 -111 91 -64 10 -331 10 -375 -1z"/>
<path d="M191 2077 c-61 -30 -80 -126 -76 -377 4 -219 19 -296 64 -320 28 -14
106 -13 120 3 6 8 12 74 13 165 2 93 7 152 13 152 6 0 20 -26 31 -57 12 -32
35 -73 51 -93 28 -33 34 -35 87 -34 49 0 61 4 86 30 16 16 40 58 53 93 39 108
48 93 46 -84 0 -108 3 -161 11 -171 8 -9 31 -14 62 -14 103 0 133 83 131 365
-1 156 -4 190 -27 269 -19 64 -47 86 -110 86 -89 0 -87 2 -177 -229 -29 -75
-60 -121 -80 -121 -20 0 -41 40 -85 161 -59 164 -79 189 -142 189 -26 0 -58
-6 -71 -13z"/>
<path d="M993 2083 c-33 -6 -46 -28 -39 -67 6 -34 30 -83 113 -236 62 -114 83
-185 83 -283 0 -107 16 -132 85 -136 62 -3 112 15 121 42 4 12 8 55 10 95 4
110 8 123 104 317 88 177 105 222 92 242 -23 34 -139 46 -179 18 -12 -8 -29
-36 -39 -62 -39 -109 -67 -163 -83 -163 -12 0 -29 29 -56 93 -60 141 -65 147
-133 146 -31 -1 -67 -4 -79 -6z"/>
<path d="M1715 2081 c-59 -24 -77 -101 -80 -328 -3 -222 19 -348 65 -373 28
-15 106 -12 119 4 8 9 13 67 14 165 1 83 6 152 10 153 4 2 22 -31 40 -72 47
-109 109 -144 191 -105 36 17 59 52 85 127 10 29 23 54 29 56 13 4 14 -7 12
-183 -1 -146 4 -158 76 -157 60 1 86 26 107 104 18 68 19 77 20 243 1 295 -27
375 -132 375 -84 0 -96 -11 -137 -119 -60 -159 -90 -218 -114 -226 -30 -9 -39
6 -95 158 -60 162 -80 187 -143 186 -26 0 -56 -4 -67 -8z"/>
<path d="M3233 2080 c-57 -23 -48 -94 46 -379 76 -229 112 -299 168 -327 49
-25 109 -20 144 12 48 43 142 278 197 489 45 170 32 215 -61 215 -82 0 -77 8
-157 -285 -18 -66 -40 -133 -48 -149 l-14 -29 -18 23 c-10 13 -29 82 -44 158
-46 232 -73 283 -150 281 -23 0 -51 -4 -63 -9z"/>
</g>
</svg>
