<?xml version="1.0" standalone="no"?>
<!DOCTYPE svg PUBLIC "-//W3C//DTD SVG 20010904//EN"
 "http://www.w3.org/TR/2001/REC-SVG-20010904/DTD/svg10.dtd">
<svg version="1.0" xmlns="http://www.w3.org/2000/svg"
 width="700.000000pt" height="700.000000pt" viewBox="0 0 700.000000 700.000000"
 preserveAspectRatio="xMidYMid meet">
<metadata>
Created by potrace 1.14, written by Peter Selinger 2001-2017
</metadata>
<g transform="translate(0.000000,700.000000) scale(0.100000,-0.100000)"
fill="#000000" stroke="none">
<path d="M2433 5862 c-14 -13 -63 -271 -217 -1140 l-199 -1123 -61 -122 c-116
-228 -160 -412 -161 -668 l0 -167 -25 13 c-67 34 -137 25 -182 -22 -14 -16
-40 -57 -57 -92 -34 -71 -57 -101 -78 -101 -7 0 -37 14 -66 30 -87 49 -167 37
-203 -31 -18 -36 -18 -125 1 -179 18 -52 20 -100 3 -100 -7 0 -42 9 -76 20
-79 25 -98 25 -141 2 -46 -25 -71 -74 -71 -139 0 -29 -2 -53 -5 -53 -2 0 -21
11 -41 25 -56 38 -101 34 -156 -15 l-46 -40 -43 35 c-35 28 -53 35 -88 35 -37
0 -49 -5 -77 -35 -42 -45 -51 -90 -34 -174 15 -77 15 -117 0 -136 -6 -8 -37
-17 -68 -21 -104 -12 -148 -42 -158 -106 l-7 -38 -76 0 c-47 0 -82 -5 -89 -12
-8 -8 -12 -64 -12 -184 0 -144 3 -175 16 -188 14 -15 344 -16 3484 -16 3140 0
3470 1 3484 16 13 13 16 44 16 188 0 131 -3 176 -13 184 -8 7 -71 13 -153 14
l-139 3 -5 41 c-14 102 -99 181 -208 193 -63 7 -60 0 -47 91 6 37 3 51 -17 79
-39 58 -81 76 -173 75 l-80 0 -26 41 c-55 87 -189 112 -277 52 -21 -15 -45
-39 -52 -52 -7 -14 -18 -25 -24 -25 -26 1 -721 229 -719 237 2 4 18 47 38 95
46 112 71 213 86 342 27 245 -42 576 -169 805 -35 63 -38 81 -237 1209 -169
961 -204 1147 -220 1158 -16 12 -197 14 -1067 14 -985 0 -1049 -1 -1065 -18z
m352 -94 c-4 -19 -287 -1725 -342 -2063 l-18 -110 -157 -3 c-87 -1 -158 1
-158 5 -1 5 86 500 191 1101 l193 1092 148 0 148 0 -5 -22z m565 13 c0 -24
161 -2093 166 -2138 l6 -53 -292 0 -293 0 5 83 c10 159 160 2092 163 2105 5
14 245 18 245 3z m610 2 c1 -5 88 -498 194 -1098 l192 -1090 -149 -3 c-82 -1
-151 -1 -152 0 -3 3 -365 2174 -365 2188 0 12 280 14 280 3z m737 -1083 c105
-597 192 -1091 192 -1097 1 -10 -27 -13 -107 -13 l-109 0 -182 1093 c-100 600
-181 1096 -181 1100 0 4 44 6 97 5 l98 -3 192 -1085z m256 -1258 c115 -214
175 -524 147 -757 -31 -256 -129 -461 -312 -651 -53 -55 -88 -99 -88 -112 0
-35 -174 -168 -309 -237 -53 -26 -56 -27 -83 -10 -27 16 -31 15 -96 -9 -113
-42 -262 -83 -393 -107 -116 -21 -155 -23 -589 -25 l-465 -3 87 19 c110 24
175 57 226 116 44 49 82 135 82 184 l0 30 168 0 c355 0 536 50 668 185 77 78
104 143 104 248 0 83 -23 143 -73 195 -68 71 -139 92 -348 102 -179 8 -231 25
-274 88 l-24 36 42 18 c120 54 127 146 15 202 -141 71 -357 -3 -333 -113 9
-42 85 -101 130 -101 23 0 18 -15 -15 -54 -48 -54 -95 -68 -265 -76 -82 -4
-152 -5 -154 -4 -2 2 2 4 10 4 28 0 135 59 166 91 51 55 102 172 109 257 l7
72 212 0 212 0 5 -77 c6 -96 30 -147 94 -200 25 -21 60 -50 77 -66 57 -49 129
-75 342 -121 116 -26 269 -60 342 -76 229 -52 330 -39 432 56 150 139 171 366
56 600 -96 196 -251 274 -546 274 -166 0 -285 -19 -400 -65 l-86 -35 -512 0
-512 0 -50 26 c-92 46 -190 66 -360 71 -161 6 -274 -8 -358 -43 -19 -8 -36
-12 -38 -10 -2 2 11 33 29 70 l32 66 1431 -2 1430 -3 28 -53z m-488 -377 c-1
-169 -7 -197 -53 -238 -45 -41 -85 -46 -367 -47 -291 0 -332 5 -379 48 -43 40
-56 81 -56 176 0 64 -4 88 -16 100 -13 14 -54 16 -293 16 -202 0 -280 -3 -289
-12 -7 -7 -12 -42 -12 -87 0 -132 -32 -195 -113 -226 -37 -14 -84 -16 -337
-13 -277 3 -297 4 -330 24 -19 11 -45 35 -57 54 -22 31 -23 43 -23 202 l0 168
1163 -2 1162 -3 0 -160z m-2706 -506 l57 -31 31 -102 c23 -72 29 -102 20 -105
-7 -2 -52 -25 -102 -50 -156 -80 -262 -203 -300 -348 -25 -96 -20 -274 11
-375 5 -17 -28 -18 -595 -18 -338 0 -602 4 -605 9 -10 16 18 29 80 36 139 15
178 86 144 258 -15 73 -9 99 25 105 9 2 29 -8 43 -21 60 -57 118 -57 172 -2
19 19 38 35 44 35 5 0 34 -17 64 -37 62 -44 128 -52 159 -21 16 17 16 21 -1
73 -23 65 -23 112 -2 134 14 13 22 13 58 3 130 -38 164 -38 205 0 29 27 30 84
3 186 -32 120 -4 150 89 95 59 -35 124 -37 167 -6 18 13 48 54 69 95 42 81 71
118 93 118 8 0 40 -14 71 -31z m926 5 c-60 -31 -94 -65 -122 -121 -24 -50 -28
-68 -26 -138 1 -44 3 -91 5 -105 l3 -25 -219 -28 c-254 -34 -227 -42 -300 87
-41 72 -111 244 -103 252 1 2 25 -4 52 -12 74 -23 174 -12 455 50 270 59 301
64 255 40z m999 -143 c-77 -56 -136 -129 -153 -189 -14 -47 -2 -46 48 5 62 63
152 128 233 169 65 33 69 33 119 22 44 -10 54 -17 65 -45 47 -111 -18 -245
-157 -326 -77 -45 -276 -87 -416 -87 l-41 0 5 40 c7 50 -13 82 -67 110 -34 18
-39 24 -34 45 9 34 -13 91 -44 116 -26 20 -27 21 -7 36 30 22 144 78 190 93
75 25 150 38 224 39 l74 1 -39 -29z m-756 -93 c11 -13 25 -43 31 -67 11 -49
26 -64 56 -56 71 19 116 23 145 14 28 -10 30 -14 30 -61 0 -65 13 -86 67 -110
24 -11 42 -22 39 -26 -4 -3 -30 -6 -59 -7 -28 -1 -61 -5 -72 -9 -16 -6 -24 0
-39 28 -44 82 -145 154 -237 171 -41 8 -59 35 -59 90 0 55 58 75 98 33z m-981
-170 c-7 -4 -20 -8 -29 -8 -28 0 -120 -45 -160 -77 -64 -52 -128 -135 -174
-227 -43 -85 -44 -87 -44 -49 0 21 7 66 15 98 34 130 122 227 276 305 l83 41
23 -38 c17 -28 19 -39 10 -45z m4104 -147 c16 -16 32 -43 35 -60 10 -49 27
-57 93 -43 72 15 103 15 135 1 34 -16 39 -35 25 -91 -23 -87 15 -135 117 -147
33 -4 69 -13 82 -20 29 -15 62 -68 62 -98 l0 -23 -224 0 -223 0 14 53 c28 104
-12 228 -98 309 -45 42 -68 54 -179 94 -12 4 -9 11 13 30 42 36 109 34 148 -5z
m859 -651 l0 -80 -3410 0 -3410 0 0 80 0 80 3410 0 3410 0 0 -80z"/>
<path d="M2213 3106 c8 -82 25 -124 76 -179 43 -47 116 -87 130 -71 8 9 21 42
87 222 l34 92 -167 0 -166 0 6 -64z"/>
<path d="M2611 3053 c-24 -65 -52 -139 -62 -165 l-19 -48 24 0 c20 0 28 14 66
118 23 64 51 138 61 165 l19 47 -23 0 c-19 0 -28 -15 -66 -117z"/>
<path d="M3690 3113 c0 -101 61 -197 152 -244 22 -11 41 -19 43 -17 4 6 115
304 115 311 0 4 -70 7 -155 7 l-155 0 0 -57z"/>
<path d="M4073 3008 c-33 -90 -56 -165 -51 -167 5 -1 12 -1 14 2 5 5 124 315
124 323 0 2 -6 4 -13 4 -9 0 -37 -63 -74 -162z"/>
<path d="M1325 1774 c-10 -11 -14 -25 -11 -40 7 -28 -5 -31 -37 -9 -20 13 -25
13 -45 -1 -12 -8 -22 -23 -22 -33 0 -43 -45 -29 -55 18 -8 37 -27 54 -57 49
-63 -9 -31 -131 45 -171 44 -23 95 -17 122 13 11 12 31 20 50 20 48 0 90 49
89 102 -2 60 -44 87 -79 52z"/>
</g>
</svg>
