<?xml version="1.0" standalone="no"?>
<!DOCTYPE svg PUBLIC "-//W3C//DTD SVG 20010904//EN"
 "http://www.w3.org/TR/2001/REC-SVG-20010904/DTD/svg10.dtd">
<svg version="1.0" xmlns="http://www.w3.org/2000/svg"
 width="700.000000pt" height="700.000000pt" viewBox="0 0 700.000000 700.000000"
 preserveAspectRatio="xMidYMid meet">
<metadata>
Created by potrace 1.14, written by Peter Selinger 2001-2017
</metadata>
<g transform="translate(0.000000,700.000000) scale(0.100000,-0.100000)"
fill="#000000" stroke="none">
<path d="M2443 5870 c-12 -5 -24 -17 -26 -27 -3 -10 -95 -522 -203 -1137
l-198 -1120 -43 -75 c-123 -216 -194 -521 -179 -769 l6 -102 -30 15 c-40 21
-109 21 -147 1 -37 -19 -65 -55 -94 -122 -23 -56 -55 -94 -78 -94 -9 0 -38 14
-66 30 -115 68 -215 16 -215 -111 0 -31 7 -76 15 -99 20 -58 20 -100 -2 -100
-9 0 -45 10 -79 21 -80 27 -119 21 -164 -26 -31 -32 -35 -42 -38 -106 l-4 -70
-22 19 c-65 60 -144 54 -194 -15 l-20 -27 -27 20 c-67 47 -82 54 -118 54 -48
0 -90 -38 -108 -98 -10 -34 -9 -55 4 -123 22 -108 13 -131 -58 -142 -93 -15
-128 -30 -152 -66 -13 -19 -23 -45 -23 -57 0 -23 -3 -24 -78 -24 -47 0 -83 -5
-90 -12 -8 -8 -12 -64 -12 -184 0 -167 1 -173 22 -188 20 -14 367 -16 3478
-16 3111 0 3458 2 3478 16 21 15 22 21 22 188 0 131 -3 176 -13 184 -8 7 -71
13 -152 14 l-139 3 -8 42 c-18 110 -110 192 -215 193 -23 0 -44 4 -47 9 -4 5
-1 31 5 58 15 65 -4 112 -62 150 -38 25 -51 28 -123 27 l-81 -1 -23 36 c-35
55 -84 84 -152 89 -70 5 -115 -14 -166 -70 l-36 -40 -102 31 c-324 100 -621
200 -619 207 2 5 18 48 38 96 140 343 116 750 -68 1113 l-50 100 -203 1143
c-111 629 -207 1149 -213 1155 -15 15 -2093 21 -2128 7z m345 -97 c-3 -10 -85
-505 -184 -1100 l-179 -1083 -157 0 c-139 0 -158 2 -158 16 0 9 86 500 190
1091 105 591 190 1079 190 1084 0 5 65 9 151 9 139 0 151 -1 147 -17z m562 13
c0 -16 161 -2083 166 -2133 l6 -63 -295 0 -295 0 4 38 c7 52 164 2109 164
2138 l0 24 125 0 c69 0 125 -2 125 -4z m619 -48 c6 -29 92 -514 191 -1078 99
-564 182 -1035 185 -1047 l5 -23 -155 0 c-85 0 -155 3 -155 8 0 4 -81 495
-180 1091 -99 596 -180 1087 -180 1092 0 5 63 9 139 9 l140 0 10 -52z m536 40
c5 -14 385 -2164 385 -2179 0 -5 -48 -9 -110 -9 -60 0 -110 2 -110 5 0 3 -81
494 -180 1091 -99 598 -180 1091 -180 1095 0 15 190 11 195 -3z m457 -2353
c46 -86 101 -252 123 -365 76 -396 -33 -764 -306 -1040 -45 -45 -79 -87 -79
-98 0 -37 -168 -165 -308 -236 -58 -29 -74 -34 -78 -22 -10 27 -34 25 -131
-10 -54 -20 -152 -49 -218 -64 -223 -54 -312 -61 -795 -67 -245 -3 -442 -2
-439 1 3 4 51 15 107 26 55 10 119 28 142 40 94 48 163 142 176 240 l6 47 217
6 c335 8 488 52 612 176 73 74 103 136 107 226 6 118 -24 189 -106 252 -63 48
-130 63 -312 72 -141 7 -166 11 -208 33 -26 13 -57 39 -70 58 l-22 34 52 25
c38 19 59 37 73 63 19 37 19 38 2 71 -10 19 -37 45 -60 58 -36 21 -55 24 -137
24 -82 0 -101 -3 -137 -24 -23 -13 -49 -38 -59 -56 -15 -28 -16 -37 -4 -64 16
-39 51 -67 101 -83 22 -6 39 -15 39 -21 0 -5 -17 -26 -38 -47 -51 -51 -113
-67 -287 -73 -124 -4 -135 -3 -98 8 59 18 126 59 158 97 16 18 43 64 62 103
28 59 33 80 33 142 l0 73 220 0 220 0 0 -53 c0 -117 33 -174 163 -280 77 -63
141 -85 454 -154 400 -88 388 -86 473 -81 92 6 157 36 217 101 115 124 141
294 75 489 -66 198 -149 283 -332 340 -67 20 -94 23 -255 23 -204 0 -294 -15
-405 -69 l-65 -31 -510 0 -510 0 -62 28 c-192 86 -508 102 -700 36 -31 -10
-58 -17 -60 -15 -2 2 11 33 29 70 l32 66 1431 -2 1430 -3 37 -70z m-494 -338
c3 -151 -6 -201 -44 -246 -49 -58 -78 -62 -404 -59 -284 3 -296 4 -330 25 -60
37 -80 86 -80 191 0 69 -4 94 -16 106 -13 14 -54 16 -293 16 -202 0 -280 -3
-289 -12 -7 -7 -12 -44 -12 -95 0 -125 -41 -201 -119 -223 -20 -5 -164 -10
-321 -10 -277 0 -287 1 -330 23 -52 26 -78 59 -90 113 -11 45 -13 297 -3 307
3 4 529 6 1167 5 l1161 -3 3 -138z m-2696 -534 c24 -15 44 -28 45 -28 2 -1 14
-39 27 -86 14 -46 27 -91 31 -100 4 -11 -9 -21 -51 -39 -81 -33 -195 -112
-248 -171 -53 -59 -99 -150 -115 -227 -15 -74 -13 -226 4 -297 8 -33 14 -66
15 -72 0 -10 -126 -13 -599 -13 -509 0 -600 2 -604 14 -9 22 12 33 86 44 80
13 110 30 133 74 16 32 16 71 -2 218 -5 37 -2 49 14 63 18 17 21 16 63 -18 72
-57 119 -54 178 9 31 33 45 33 85 -1 45 -38 94 -56 132 -48 51 9 58 33 33 107
-16 50 -18 69 -10 91 15 39 34 42 104 21 129 -39 197 -13 197 75 0 25 -9 78
-20 116 -24 85 -24 87 -2 115 l17 21 77 -36 c57 -27 85 -35 105 -31 60 14 89
42 136 134 26 50 53 93 60 96 22 9 66 -3 109 -31z m903 4 c-125 -69 -171 -203
-124 -367 3 -11 -37 -20 -219 -44 -260 -34 -232 -42 -306 88 -40 70 -112 244
-104 252 2 1 28 -4 58 -12 80 -22 166 -12 470 55 146 33 270 59 275 60 6 0
-17 -14 -50 -32z m1030 -120 c-91 -67 -175 -172 -175 -219 0 -25 8 -22 36 12
38 45 174 144 248 180 65 32 67 33 118 19 63 -17 78 -40 78 -122 0 -74 -27
-132 -91 -192 -91 -85 -224 -129 -433 -142 l-104 -6 4 39 c7 51 -22 98 -71
115 -31 12 -35 16 -30 39 7 34 -9 78 -43 113 l-27 29 25 20 c83 69 294 132
460 136 l35 1 -30 -22z m-785 -97 c17 -9 30 -39 44 -101 8 -37 29 -42 93 -23
57 16 116 13 129 -8 4 -7 7 -31 5 -55 -3 -57 12 -81 65 -105 54 -23 49 -40
-10 -32 -29 4 -52 1 -73 -9 l-30 -16 -18 40 c-35 77 -143 157 -236 174 -25 5
-40 14 -48 31 -15 33 -14 87 1 102 15 15 53 16 78 2z m-980 -140 c11 -21 20
-41 20 -43 0 -3 -17 -8 -37 -12 -141 -26 -282 -165 -359 -352 l-24 -58 0 55
c0 172 102 319 284 409 44 22 84 41 88 41 4 0 17 -18 28 -40z m4070 -160 c22
0 70 -54 76 -85 9 -52 25 -60 85 -47 90 21 160 10 174 -26 3 -9 0 -38 -6 -64
-23 -88 13 -132 118 -146 90 -12 134 -49 144 -122 l4 -25 -227 -3 c-126 -1
-228 0 -228 2 0 3 5 17 10 32 14 36 14 140 1 190 -24 88 -112 182 -200 214
-91 32 -86 28 -66 50 20 22 72 41 93 34 8 -2 17 -4 22 -4z m900 -710 l0 -110
-3410 0 -3410 0 0 110 0 110 3410 0 3410 0 0 -110z"/>
<path d="M2214 3109 c8 -76 37 -143 82 -190 36 -37 109 -77 120 -66 3 3 20 45
39 94 18 48 45 118 59 156 l25 67 -166 0 -166 0 7 -61z"/>
<path d="M2656 3162 c-8 -13 -116 -304 -116 -313 0 -5 8 -9 18 -9 13 0 30 37
75 158 31 86 57 160 57 165 0 9 -27 9 -34 -1z"/>
<path d="M1326 1771 c-11 -13 -15 -27 -11 -40 7 -23 -13 -29 -32 -10 -21 21
-57 6 -68 -28 -5 -18 -13 -33 -17 -33 -15 0 -48 40 -48 58 0 42 -61 58 -80 21
-36 -66 70 -182 150 -164 15 3 36 15 46 26 9 10 30 19 45 19 35 0 85 42 92 77
6 30 -8 73 -26 85 -19 12 -33 9 -51 -11z"/>
</g>
</svg>
