<svg width="500" height="290" viewBox="0 0 500 290" fill="none" xmlns="http://www.w3.org/2000/svg">
<path d="M473.631 174.752C455.96 220.506 422.737 260.592 376.591 278.209C370.589 280.496 364.46 282.437 358.235 284.021C325.311 292.415 289.293 289.495 258.943 274.2C246.062 267.703 234.316 259.118 221.388 252.715C208.461 246.311 193.698 242.12 179.627 245.281C167.512 248.002 157.29 255.802 146.999 262.75C122.738 279.13 93.5657 292.093 64.8371 286.467C51.6178 283.881 38.6006 276.719 32.4614 264.748C18.8922 238.282 44.4833 206.817 39.3005 177.548C35.9839 158.815 20.8362 144.787 11.4194 128.255C-4.69648 99.9776 -2.79135 62.4154 16.1045 35.9184C35.0003 9.42155 69.8837 -4.63366 101.867 1.37721C140.867 8.71004 170.354 41.7156 208.278 53.3952C231.995 60.693 257.745 58.5157 280.397 48.9045C316.995 33.3718 367.275 9.54986 408.46 13.4301C430.362 15.4946 451.843 25.2147 466.299 41.8128C484.572 62.7653 490.051 92.5126 487.002 120.141C484.911 138.843 480.416 157.198 473.631 174.752Z" fill="url(#paint0_linear_138_108)"/>
<path d="M485.389 210.942C484.576 210.941 483.768 210.843 482.978 210.65C480.482 210.037 478.317 208.494 476.921 206.337C475.525 204.18 475.004 201.571 475.467 199.043C475.925 196.516 477.337 194.259 479.405 192.736C481.474 191.212 484.048 190.535 486.598 190.843C489.149 191.152 491.485 192.423 493.13 194.396C494.778 196.369 495.607 198.896 495.455 201.461C495.299 204.026 494.172 206.436 492.302 208.198C490.432 209.959 487.959 210.941 485.389 210.942ZM485.389 195.32C484.051 195.325 482.764 195.819 481.765 196.708C480.766 197.597 480.128 198.82 479.969 200.147C479.813 201.475 480.144 202.814 480.906 203.914C481.664 205.013 482.799 205.797 484.098 206.117C484.848 206.297 485.63 206.317 486.392 206.174C487.15 206.031 487.869 205.729 488.503 205.287C489.137 204.846 489.673 204.275 490.07 203.613C490.467 202.95 490.723 202.211 490.813 201.444C490.906 200.677 490.832 199.898 490.603 199.161C490.373 198.423 489.988 197.743 489.475 197.164C488.962 196.586 488.336 196.122 487.628 195.804C486.925 195.487 486.163 195.321 485.389 195.32Z" fill="#E7F6FF"/>
<path d="M476.186 221.638C476.757 219.273 475.307 216.892 472.943 216.319C470.576 215.746 468.196 217.197 467.621 219.562C467.049 221.926 468.499 224.308 470.867 224.881C473.231 225.454 475.61 224.002 476.186 221.638Z" fill="#E7F6FF"/>
<path d="M21.4589 209.981C18.7884 209.923 16.2487 208.814 14.3911 206.894C12.5336 204.975 11.5081 202.4 11.5372 199.729C11.5664 197.058 12.6479 194.506 14.547 192.628C16.4461 190.75 19.0093 189.696 21.6805 189.696C24.3516 189.696 26.9149 190.75 28.814 192.628C30.713 194.506 31.7946 197.058 31.8237 199.729C31.8529 202.4 30.8274 204.975 28.9698 206.894C27.1123 208.814 24.5726 209.923 21.9021 209.981H21.4589ZM21.4589 194.363H21.2295C19.7872 194.394 18.4154 194.993 17.412 196.03C16.4086 197.066 15.8545 198.457 15.8702 199.899C15.8858 201.342 16.4698 202.72 17.4954 203.735C18.521 204.749 19.9054 205.318 21.3481 205.318C22.7907 205.318 24.1751 204.749 25.2007 203.735C26.2263 202.72 26.8104 201.342 26.826 199.899C26.8416 198.457 26.2875 197.066 25.2842 196.03C24.2807 194.993 22.909 194.394 21.4667 194.363H21.4589Z" fill="#E7F6FF"/>
<path d="M14.2259 227.004C16.6566 226.899 18.542 224.844 18.4371 222.413C18.3323 219.983 16.2769 218.097 13.8462 218.202C11.4156 218.307 9.53021 220.362 9.63503 222.793C9.73989 225.224 11.7953 227.109 14.2259 227.004Z" fill="#E7F6FF"/>
<path d="M275.692 45.9808C273.271 45.9828 270.93 45.1185 269.091 43.5438C267.253 41.9692 266.039 39.7884 265.669 37.3961C265.3 35.0039 265.799 32.5584 267.076 30.5022C268.353 28.446 270.324 26.915 272.633 26.1863C274.941 25.4576 277.434 25.5794 279.66 26.5296C281.886 27.4798 283.699 29.1956 284.77 31.3665C285.841 33.5373 286.099 36.0198 285.498 38.3645C284.897 40.7095 283.476 42.7616 281.493 44.1496C279.792 45.3393 277.767 45.9785 275.692 45.9808ZM275.661 30.3664C274.245 30.3649 272.882 30.9101 271.858 31.8883C270.834 32.8665 270.227 34.2022 270.163 35.6171C270.099 37.032 270.584 38.4168 271.516 39.4832C272.449 40.5493 273.757 41.2145 275.167 41.3401C276.578 41.4657 277.983 41.0419 279.089 40.1574C280.195 39.2728 280.917 37.9955 281.104 36.5916C281.292 35.1878 280.93 33.7658 280.095 32.622C279.26 31.4782 278.015 30.7008 276.621 30.4519C276.304 30.3954 275.983 30.3668 275.661 30.3664Z" fill="#E7F6FF"/>
<path d="M255.009 45.4263C257.001 44.0293 257.484 41.2824 256.087 39.2902C254.69 37.2985 251.943 36.816 249.951 38.2128C247.959 39.6098 247.477 42.3567 248.874 44.3489C250.27 46.3408 253.017 46.8233 255.009 45.4263Z" fill="#E7F6FF"/>
<path d="M500 98.2357C500 93.9604 498.301 89.8601 495.28 86.8371C492.255 83.8142 488.157 82.1159 483.88 82.1159C483.523 82.1159 483.169 82.1159 482.819 82.1509C482.842 81.801 482.854 81.4472 482.854 81.0895C482.854 78.7983 482.364 76.5339 481.419 74.4464C480.474 72.3593 479.098 70.4973 477.376 68.9849C475.653 67.4721 473.631 66.3438 471.439 65.675C469.25 65.0063 466.94 64.8123 464.67 65.1058C462.395 65.3994 460.214 66.1738 458.262 67.378C456.314 68.5817 454.642 70.1875 453.363 72.0879C452.084 73.988 451.225 76.1392 450.84 78.3982C450.459 80.6571 450.56 82.9717 451.143 85.1875C449.195 83.7745 446.956 82.8158 444.588 82.3815C442.22 81.9476 439.786 82.0486 437.465 82.6781C435.14 83.3076 432.99 84.4491 431.163 86.0191C429.339 87.5887 427.889 89.5471 426.921 91.7504C425.953 93.9534 425.49 96.3457 425.568 98.7508C425.645 101.156 426.26 103.514 427.364 105.651C428.472 107.788 430.043 109.65 431.964 111.1C433.884 112.551 436.104 113.553 438.464 114.033C439.429 116.586 441.023 118.853 443.103 120.622C445.179 122.391 447.671 123.603 450.346 124.144C453.021 124.686 455.789 124.54 458.394 123.719C460.995 122.898 463.348 121.43 465.229 119.453C467.154 120.905 469.378 121.907 471.742 122.386C474.106 122.864 476.544 122.806 478.88 122.217C481.221 121.628 483.394 120.521 485.249 118.98C487.104 117.438 488.585 115.5 489.592 113.31C492.652 112.15 495.284 110.087 497.142 107.394C499.005 104.702 500 101.507 500 98.2357Z" fill="white"/>
<path d="M74.4362 59.4877C74.4386 57.3699 74.0229 55.2723 73.2142 53.3151C72.4051 51.3579 71.2185 49.5791 69.722 48.0807C68.2251 46.5822 66.4479 45.3933 64.4914 44.5818C62.5354 43.7708 60.4382 43.3528 58.3204 43.3524C57.9627 43.3524 57.6089 43.3524 57.2589 43.3874C57.2823 43.0375 57.2939 42.6837 57.2939 42.326C57.2935 40.0348 56.8048 37.7701 55.86 35.6829C54.9156 33.5956 53.5369 31.7336 51.8161 30.2212C50.0953 28.7086 48.0715 27.5804 45.8802 26.9115C43.689 26.2426 41.3806 26.0485 39.1085 26.3422C36.8361 26.6358 34.6526 27.4104 32.7034 28.6144C30.7542 29.8183 29.084 31.4239 27.8042 33.3242C26.5243 35.2245 25.6643 37.3757 25.2813 39.6347C24.8984 41.8933 25.0013 44.2078 25.5833 46.424C23.6351 45.0111 21.3952 44.0523 19.0281 43.618C16.661 43.1837 14.2267 43.2852 11.9039 43.9146C9.58103 44.5441 7.42862 45.6856 5.60451 47.2552C3.78045 48.8252 2.33103 50.7836 1.36264 52.987C0.394242 55.1899 -0.0685579 57.5822 0.00820249 59.9873C0.0849627 62.3929 0.699335 64.7506 1.80623 66.8874C2.91313 69.0243 4.48445 70.8863 6.4049 72.3369C8.32539 73.7871 10.5462 74.7891 12.9045 75.2692C13.8682 77.8205 15.4635 80.0857 17.5411 81.8524C19.6187 83.6191 22.1106 84.8303 24.7836 85.3715C27.4566 85.9131 30.2233 85.7677 32.8247 84.9485C35.4261 84.1296 37.7772 82.6642 39.6579 80.6891C41.582 82.1413 43.8075 83.1436 46.1703 83.6223C48.533 84.1005 50.9732 84.0429 53.3107 83.4535C55.6481 82.8641 57.8239 81.7579 59.6773 80.2163C61.5307 78.6747 63.0148 76.737 64.0202 74.5461C67.0785 73.3882 69.7127 71.3279 71.5731 68.6386C73.4335 65.9492 74.432 62.7576 74.4362 59.4877Z" fill="white"/>
<path d="M370.988 288.854H139.067V283.8H370.988C371.658 283.8 372.301 284.066 372.775 284.539C373.248 285.013 373.515 285.656 373.515 286.327C373.515 286.997 373.248 287.64 372.775 288.114C372.301 288.588 371.658 288.854 370.988 288.854Z" fill="#426572"/>
<path d="M128.694 288.854H114.514C113.844 288.854 113.201 288.588 112.727 288.114C112.253 287.64 111.987 286.997 111.987 286.327C111.987 285.656 112.253 285.013 112.727 284.539C113.201 284.066 113.844 283.8 114.514 283.8H128.694C129.364 283.8 130.007 284.066 130.481 284.539C130.955 285.013 131.221 285.656 131.221 286.327C131.221 286.997 130.955 287.64 130.481 288.114C130.007 288.588 129.364 288.854 128.694 288.854Z" fill="#426572"/>
<path d="M105.312 288.854H100.794C100.124 288.854 99.4808 288.588 99.0069 288.114C98.5329 287.64 98.2666 286.997 98.2666 286.327C98.2666 285.656 98.5329 285.013 99.0069 284.539C99.4808 284.066 100.124 283.8 100.794 283.8H105.312C105.982 283.8 106.625 284.066 107.099 284.539C107.573 285.013 107.839 285.656 107.839 286.327C107.839 286.997 107.573 287.64 107.099 288.114C106.625 288.588 105.982 288.854 105.312 288.854Z" fill="#426572"/>
<path d="M452.309 288.854H381.026V283.8H452.309C452.978 283.8 453.624 284.066 454.098 284.539C454.572 285.013 454.837 285.656 454.837 286.327C454.837 286.997 454.572 287.64 454.098 288.114C453.624 288.588 452.978 288.854 452.309 288.854Z" fill="#426572"/>
<path d="M87.8686 288.854H16.5818V283.8H87.8686C88.5389 283.8 89.1819 284.066 89.6559 284.539C90.1298 285.013 90.3958 285.656 90.3958 286.327C90.3958 286.997 90.1298 287.64 89.6559 288.114C89.1819 288.588 88.5389 288.854 87.8686 288.854Z" fill="#426572"/>
<path d="M110.459 91.5874H370.109C374.795 91.5874 379.29 93.4482 382.605 96.7612C385.919 100.075 387.782 104.568 387.784 109.255V277.318H92.7842V109.255C92.7861 104.568 94.6493 100.075 97.9638 96.7612C101.278 93.4482 105.773 91.5874 110.459 91.5874Z" fill="#EBF0F9"/>
<path d="M377.531 104.476H104.207V260.619H377.531V104.476Z" fill="#637F91"/>
<path d="M102.159 260.328H378.694C378.694 261.567 378.204 262.756 377.329 263.635C376.455 264.513 375.268 265.01 374.029 265.017H106.844C105.6 265.017 104.408 264.522 103.528 263.643C102.649 262.764 102.155 261.571 102.155 260.328H102.159Z" fill="white"/>
<g opacity="0.5">
<path opacity="0.5" d="M185.883 103.893L145.016 261.498H124.437L165.304 103.893H185.883Z" fill="#A7BCD5"/>
<path opacity="0.5" d="M238.337 103.893L197.474 261.498H154.317L195.184 103.893H238.337Z" fill="#A7BCD5"/>
</g>
<path d="M390.117 279.651H90.4514V101.719C90.4553 98.4146 91.7698 95.2466 94.1065 92.9095C96.4436 90.5728 99.6116 89.2583 102.916 89.2544H377.652C380.956 89.2583 384.125 90.5728 386.462 92.9095C388.798 95.2466 390.113 98.4146 390.117 101.719V279.651ZM95.117 274.985H385.451V101.719C385.449 99.6514 384.627 97.6689 383.165 96.2066C381.703 94.7443 379.72 93.922 377.652 93.92H102.916C100.848 93.922 98.8659 94.7443 97.4036 96.2066C95.9413 97.6689 95.119 99.6514 95.117 101.719V274.985Z" fill="#426572"/>
<path d="M55.5789 271.754H432.9V272.995C432.9 277.016 431.302 280.873 428.46 283.717C425.614 286.56 421.757 288.158 417.737 288.158H70.7422C66.7208 288.158 62.8638 286.56 60.0201 283.717C57.1764 280.873 55.5789 277.016 55.5789 272.995V271.754Z" fill="#EBF0F9"/>
<path opacity="0.5" d="M430.968 279.663C430.14 281.819 428.674 283.674 426.769 284.982C424.864 286.29 422.605 286.989 420.296 286.988H65.8326C63.5227 286.987 61.2673 286.287 59.3633 284.98C57.4597 283.672 55.9967 281.818 55.1677 279.663H430.968Z" fill="#A7BCD5"/>
<path d="M415.976 289.904H68.9851C64.3463 289.899 59.8992 288.053 56.6193 284.773C53.3389 281.493 51.4941 277.046 51.489 272.408V268.834H433.476V272.408C433.472 277.047 431.625 281.495 428.344 284.775C425.062 288.055 420.614 289.899 415.976 289.904ZM56.1974 273.5C56.4711 276.702 57.9361 279.685 60.3036 281.859C62.6706 284.032 65.7674 285.238 68.9812 285.238H415.976C419.191 285.238 422.286 284.032 424.654 281.859C427.022 279.685 428.487 276.702 428.76 273.5H56.1974Z" fill="#426572"/>
<path d="M379.277 262.073H101.283V102.143H379.277V262.073ZM105.949 257.408H374.611V106.809H105.949V257.408Z" fill="#426572"/>
<path d="M335.75 54.3518V259.741H149.432V54.3518C149.439 53.4256 149.81 52.5399 150.465 51.8852C151.12 51.2305 152.006 50.8595 152.932 50.8525H332.236C332.447 50.8525 332.658 50.872 332.866 50.9109C333.671 51.0598 334.4 51.4847 334.926 52.1127C335.453 52.7406 335.744 53.5322 335.75 54.3518Z" fill="white"/>
<path d="M152.365 67.8276H336.338V55.4714L332.82 50.8369H171.7H155.88L150.02 55.4714V67.8276H152.365Z" fill="#E2F2FF"/>
<path d="M338.671 262.073H147.688V54.3516C147.693 52.8065 148.31 51.3267 149.402 50.2341C150.495 49.142 151.974 48.5254 153.52 48.5195H332.816C334.361 48.5254 335.84 49.142 336.933 50.2341C338.025 51.3267 338.642 52.8065 338.648 54.3516L338.671 262.073ZM152.353 257.408H334.006V54.3516C333.997 54.0444 333.872 53.7524 333.655 53.5355C333.438 53.3181 333.146 53.1929 332.839 53.1852H153.535C153.228 53.1929 152.936 53.3181 152.719 53.5355C152.502 53.7524 152.376 54.0444 152.369 54.3516L152.353 257.408Z" fill="#426572"/>
<path d="M324.876 58.0376H160.98C159.685 58.0376 158.636 59.087 158.636 60.3821C158.636 61.6768 159.685 62.7266 160.98 62.7266H324.876C326.171 62.7266 327.221 61.6768 327.221 60.3821C327.221 59.087 326.171 58.0376 324.876 58.0376Z" fill="#CADCE8"/>
<path d="M210.775 89.8298H172.466V133.481H210.775V89.8298Z" fill="#E8837E"/>
<path d="M305.226 89.8298H214.39V133.481H305.226V89.8298Z" fill="#E8837E"/>
<path d="M305.225 138.313H262.337V181.964H305.225V138.313Z" fill="#DDE4ED"/>
<path d="M258.721 138.313H172.947V181.964H258.721V138.313Z" fill="#DDE4ED"/>
<path d="M305.467 186.797H172.947V230.448H305.467V186.797Z" fill="#DDE4ED"/>
<path d="M306.636 236.315H272.656V240.981H306.636V236.315Z" fill="#DDE4ED"/>
<path d="M121.004 248.617H65.3818C64.4662 248.623 63.5634 248.399 62.7574 247.964C61.591 247.326 60.8445 246.28 60.8445 245.102L60.8756 168.64C60.8764 168.139 61.0105 167.648 61.2644 167.217C61.972 165.988 63.57 165.125 65.4129 165.125H121.035C122.979 165.125 124.616 166.066 125.269 167.38C125.467 167.769 125.571 168.2 125.572 168.636L125.545 245.102C125.545 246.867 123.838 248.341 121.634 248.582C121.425 248.605 121.214 248.617 121.004 248.617Z" fill="white"/>
<path d="M122.516 248.03L66.8747 248.018C65.9591 248.024 65.0563 247.8 64.2503 247.365C63.0839 246.727 62.3374 245.681 62.3374 244.503L62.3685 168.041C62.3693 167.541 62.5034 167.05 62.7573 166.618C63.4649 165.39 65.0629 164.527 66.9058 164.527H67.664L67.6523 239.814C67.6523 240.981 68.4066 242.038 69.5652 242.676C70.3712 243.111 71.274 243.335 72.1897 243.329H127.057V244.496C127.057 246.261 125.351 247.734 123.146 247.975C122.937 248.005 122.727 248.023 122.516 248.03Z" fill="#D6DEE9"/>
<path d="M121.757 250.362H66.1314C64.8196 250.369 63.5276 250.044 62.3756 249.418C60.4315 248.341 59.2651 246.505 59.2651 244.515L59.2962 168.053C59.3009 167.141 59.5462 166.246 60.0078 165.46C61.1742 163.457 63.507 162.209 66.1703 162.209H121.792C124.514 162.209 126.944 163.551 128.048 165.635L128.359 166.113V166.331C128.56 166.885 128.663 167.47 128.662 168.061L128.631 244.523C128.631 247.454 126.054 249.966 122.64 250.32C122.347 250.35 122.052 250.365 121.757 250.362ZM66.1586 166.855C65.1127 166.855 64.2962 167.318 64.0357 167.777C63.9848 167.854 63.9564 167.944 63.9541 168.037L63.923 244.499C63.923 244.756 64.2068 245.082 64.6306 245.32C65.0925 245.564 65.6085 245.69 66.1314 245.685H121.753C121.876 245.686 121.998 245.679 122.119 245.666C123.285 245.541 123.962 244.888 123.962 244.499L123.993 168.037C123.993 167.991 123.985 167.945 123.97 167.901L123.752 167.567C123.214 167.082 122.508 166.826 121.785 166.855H66.1625H66.1586Z" fill="#426572"/>
<path d="M115.342 198.212H77.6208V202.878H115.342V198.212Z" fill="#426572"/>
<path d="M115.342 188.477H77.6208V193.142H115.342V188.477Z" fill="#426572"/>
<path d="M115.342 209.243H77.6208V213.908H115.342V209.243Z" fill="#426572"/>
<path opacity="0.2" d="M416.796 110.421C419.514 105.32 421.182 99.7269 421.703 93.9711C422.224 88.2149 421.586 82.4131 419.829 76.9073C418.072 71.4019 415.229 66.3043 411.466 61.9151C407.706 57.5263 403.107 53.9349 397.935 51.3529C392.764 48.7708 387.129 47.2506 381.362 46.882C375.594 46.5135 369.811 47.3039 364.354 49.2063C358.897 51.1091 353.876 54.0858 349.587 57.9602C345.299 61.835 341.83 66.529 339.386 71.7662C336.01 78.1056 334.265 85.1853 334.307 92.3673C334.35 99.5496 336.178 106.608 339.629 112.907C343.08 119.206 348.044 124.548 354.073 128.45C360.103 132.352 367.009 134.693 374.168 135.262C372.919 135.557 371.65 135.797 370.362 135.981C377.14 136.958 384.052 136.313 390.533 134.099C397.014 131.884 402.873 128.164 407.636 123.244C411.446 119.564 414.553 115.218 416.796 110.421Z" fill="#606060"/>
<path d="M372.769 125.156C396.668 125.156 416.042 105.782 416.042 81.8827C416.042 57.9834 396.668 38.6089 372.769 38.6089C348.869 38.6089 329.495 57.9834 329.495 81.8827C329.495 105.782 348.869 125.156 372.769 125.156Z" fill="#A8EF9E"/>
<path d="M413.978 84.9736C413.978 91.1778 412.64 97.3096 410.062 102.953C407.485 108.596 403.721 113.618 399.032 117.68C394.343 121.742 388.834 124.747 382.879 126.493C376.925 128.24 370.666 128.685 364.525 127.8C374.822 126.312 384.238 121.163 391.05 113.297C397.858 105.432 401.606 95.3757 401.606 84.9717C401.606 74.5673 397.858 64.5114 391.05 56.6459C384.238 48.78 374.822 43.6315 364.525 42.1432C370.667 41.2571 376.927 41.7023 382.881 43.4484C388.834 45.1945 394.343 48.2007 399.036 52.2629C403.725 56.3251 407.488 61.3484 410.066 66.9923C412.644 72.6362 413.981 78.7684 413.981 84.9736H413.978Z" fill="#A7E59C"/>
<path d="M371.738 129.546C362.717 129.546 353.9 126.871 346.4 121.86C338.9 116.849 333.054 109.726 329.603 101.393C326.151 93.0589 325.247 83.889 327.007 75.0422C328.767 66.1954 333.11 58.069 339.489 51.6907C345.867 45.3128 353.993 40.9691 362.84 39.2094C371.687 37.4496 380.857 38.3528 389.191 41.8047C397.523 45.2564 404.646 51.1021 409.658 58.6021C414.67 66.1017 417.345 74.9194 417.345 83.9396C417.329 96.0309 412.52 107.623 403.97 116.174C395.42 124.723 383.829 129.533 371.738 129.546ZM371.738 43.0026C363.64 43.0026 355.725 45.4038 348.992 49.9022C342.259 54.4011 337.012 60.7949 333.913 68.2759C330.814 75.7568 330.004 83.989 331.583 91.9306C333.163 99.8723 337.062 107.167 342.788 112.893C348.514 118.619 355.808 122.518 363.75 124.098C371.692 125.678 379.924 124.866 387.405 121.768C394.887 118.669 401.279 113.422 405.778 106.689C410.276 99.9563 412.679 92.0407 412.679 83.9435C412.667 73.0889 408.352 62.6818 400.673 55.0065C392.998 47.3307 382.592 43.0138 371.738 43.0026Z" fill="#426572"/>
<path d="M393.596 66.2451C392.663 65.7233 391.563 65.5833 390.529 65.8543C389.495 66.1257 388.606 66.7867 388.048 67.6992L380.556 79.9465L368.585 99.4955L368.25 100.044L354.429 88.9861L351.909 86.9721C350.257 85.6502 347.764 85.2342 346.174 86.9721C344.821 88.4457 344.405 91.2917 346.174 92.707L363.946 106.922L366.466 108.936C367.512 109.775 368.507 110.234 369.872 110.051C370.482 109.976 371.066 109.762 371.58 109.425C372.094 109.088 372.523 108.637 372.834 108.107L380.327 95.8602L392.302 76.3151L395.066 71.7972C396.159 69.9854 395.505 67.2637 393.596 66.2451Z" fill="white"/>
<defs>
<linearGradient id="paint0_linear_138_108" x1="0.513476" y1="144.321" x2="487.792" y2="144.321" gradientUnits="userSpaceOnUse">
<stop stop-color="#C5E9FA"/>
<stop offset="1" stop-color="#C4F4EA"/>
</linearGradient>
</defs>
</svg>
