<svg width="1000" height="1000" viewBox="0 0 1000 1000" fill="none" xmlns="http://www.w3.org/2000/svg">
<path d="M210.31 381.112C207.51 385.792 201.65 387.772 196.61 388.782C190.17 390.102 183.51 390.452 176.99 391.032L173.2 391.962C172.482 392.183 171.816 392.544 171.238 393.023C170.661 393.503 170.184 394.092 169.834 394.756C169.485 395.42 169.27 396.147 169.202 396.895C169.135 397.642 169.215 398.396 169.44 399.112C171.785 407.182 175.011 414.968 179.06 422.332L173.06 428.332C171.36 426.032 171.28 422.002 169 422.392C166.81 420.202 164.21 419.132 161.52 422.062C156.26 427.812 157.11 439.762 164.84 443.062L163.11 451.672C162.513 454.682 160.891 457.393 158.521 459.342C156.151 461.291 153.178 462.358 150.11 462.362L151.44 452.172C142.44 456.722 132.23 446.882 132.94 438.772C133.4 433.212 132.14 429.372 128.03 425.342C127.76 425.072 126.84 423.602 125.5 422.062C124.34 418.552 124.35 416.32 125.5 414C127.5 409.86 131.87 407.02 129.16 402.5C127.97 400.53 127.012 400.243 126.5 398C125.955 395.026 125.763 389.433 126.5 386.5C127.236 383.568 129.715 379.864 131.6 377.5C135.6 372.7 144.69 371.2 150 369.5C156.47 367.5 161.14 363.14 167.91 361C171.28 359.93 174.4 362.572 177.77 363.342C180.62 364.002 183.44 364.742 186.24 365.622C189.04 366.502 191.76 363.972 194.5 363.152C198.12 362.152 200.65 362.032 204.6 362.002C206.57 361.957 208.5 362.573 210.08 363.752C213 369.002 213.02 376.622 210.31 381.112Z" fill="#3FBDF1"/>
<path d="M86.1111 518.4C86.1111 518.4 -22.7589 398.32 137.571 338.4C146.868 334.991 156.558 332.767 166.411 331.78C192.001 329.06 248.571 319.39 255.091 286.73" stroke="#CCDDE2" stroke-width="4.11" stroke-miterlimit="10"/>
<path d="M543.129 350.3V350.27" stroke="#CCDDE2" stroke-width="4.11" stroke-miterlimit="10"/>
<path d="M257.469 566.51V566.48" stroke="black" stroke-width="4.11" stroke-miterlimit="10"/>
<path d="M172.35 429.42C171.284 427.578 170.016 425.86 168.57 424.3C166.38 422.11 163.78 421.04 161.09 423.97C155.83 429.72 156.68 441.67 164.41 444.97L162.68 453.58C162.083 456.59 160.462 459.3 158.091 461.249C155.721 463.198 152.748 464.266 149.68 464.27" stroke="black" stroke-width="4.11" stroke-linecap="round" stroke-linejoin="round"/>
<path d="M144.84 502.37C145.28 499.03 146.37 490.26 147.42 481.9C148.42 474.15 149.31 466.69 149.66 464.23L151 454.06" stroke="black" stroke-width="4.11" stroke-linecap="round" stroke-linejoin="round"/>
<path d="M206.58 402.16C206.58 402.16 193.81 402.79 191.34 413.36" stroke="black" stroke-width="4.11" stroke-miterlimit="10"/>
<path d="M211.222 430.09C214.702 430 219.222 429.49 220.862 425.96L212.062 416.25C209.915 413.871 208.645 410.83 208.462 407.63C208.112 402.26 208.742 393.74 203.602 388.07" stroke="black" stroke-width="4.11" stroke-miterlimit="10"/>
<path d="M203.696 416.647C205.137 415.053 205.209 412.771 203.856 411.549C202.504 410.326 200.24 410.628 198.8 412.222C197.359 413.815 197.287 416.098 198.64 417.32C199.992 418.542 202.256 418.241 203.696 416.647Z" fill="black"/>
<path d="M202.829 493.87L196.199 461.73" stroke="black" stroke-width="4.11" stroke-miterlimit="10"/>
<path d="M370.901 638.52L328.171 673.46C379.581 751.86 340.671 766.25 340.671 766.25C333.124 767.695 325.502 768.719 317.841 769.32C280.681 772 242.561 762.41 211.931 740.93C149.931 697.43 95.9314 610.37 124.731 534.57C127.155 528.159 130.115 521.963 133.581 516.05C136.568 510.91 140.371 506.29 144.841 502.37C152.665 495.521 162.3 491.076 172.589 489.57C182.878 488.064 193.383 489.561 202.841 493.88C206.462 495.533 209.887 497.586 213.051 500C229.241 512.39 243.961 530 256.651 548.48C267.919 565.192 278.058 582.638 287.001 600.7C289.471 605.63 291.711 610.29 293.691 614.56C311.641 607.3 326.691 594.97 340.691 581.65C323.761 613.25 370.901 638.52 370.901 638.52Z" fill="#353642"/>
<path d="M341 664.08C340.18 664.71 339.33 665.37 338.48 666" stroke="black" stroke-width="4.11" stroke-miterlimit="10"/>
<path d="M214.672 531.25C226.005 552.95 237.339 574.69 248.672 596.47C257.222 612.91 271.672 623.06 292.022 615.27C314.162 606.79 332.022 590.58 348.542 574.06C365.062 557.54 381.802 541.74 405.652 537.48C436.482 531.97 465.652 548.77 486.652 570C488.268 571.619 489.29 573.736 489.553 576.008C489.816 578.28 489.305 580.575 488.102 582.52C487.33 583.764 486.299 584.828 485.08 585.638C483.86 586.448 482.48 586.986 481.034 587.214C479.587 587.443 478.109 587.357 476.699 586.963C475.289 586.569 473.98 585.876 472.862 584.93C462.912 576.44 446.722 564.16 435.462 564" stroke="black" stroke-width="4.11" stroke-miterlimit="10"/>
<path d="M404.738 593.13C408.198 595.44 412.998 598 416.998 598" stroke="black" stroke-width="4.11" stroke-miterlimit="10"/>
<path d="M449.08 568.21C456.46 571.86 459.15 582.54 453.94 588.92C447.334 597.117 439.057 603.812 429.66 608.56C419.38 613.69 412.78 610.56 402.66 604.3" stroke="black" stroke-width="4.11" stroke-miterlimit="10"/>
<path d="M432 577.78C432 577.78 446.62 581.4 446.23 595.59C446.204 596.195 446.096 596.794 445.91 597.37" stroke="black" stroke-width="4.11" stroke-miterlimit="10"/>
<path d="M421.672 586.72C421.672 586.72 441.282 599.39 431.952 607.36" stroke="black" stroke-width="4.11" stroke-miterlimit="10"/>
<path d="M800.478 636.38C777.378 699.87 712.708 701.66 705.308 701.66C708.408 695.13 709.248 683.66 702.458 663.56C707.007 656.918 709.402 649.037 709.317 640.986C709.233 632.936 706.675 625.107 701.988 618.56C702.078 618.48 702.128 618.37 702.208 618.29C705.442 618.093 708.651 617.608 711.798 616.84C722.958 614.18 744.958 608.34 762.418 600.12C774.258 594.53 788.068 603.49 787.058 616.56C787.058 616.73 787.058 616.89 786.998 617.08C789.31 617.079 791.588 617.635 793.638 618.703C795.688 619.771 797.45 621.318 798.774 623.213C800.097 625.109 800.943 627.295 801.24 629.588C801.537 631.88 801.276 634.211 800.478 636.38Z" fill="#3FBDF1"/>
<path d="M504.05 785.29C496.27 798.64 484.16 810.01 472.46 819.93C431.27 854.79 377.46 872.49 323.46 873.18C269.28 872.49 215.27 854.73 173.89 820.18C43.1399 711 66.7699 582.09 87.9199 522.4C88.6648 520.336 89.6732 518.377 90.9199 516.57C92.5736 514.151 94.7205 512.109 97.2196 510.579C99.7187 509.048 102.513 508.064 105.42 507.69C116.52 509.22 126.6 518.43 124.82 532.69C124.82 533.24 124.6 534 124.55 534.55C95.7699 610.35 149.79 697.41 211.75 740.91C239.86 760.64 274.28 770.34 308.48 769.71H308.87C311.803 769.65 314.733 769.514 317.66 769.3C336.87 767.9 355.54 763.3 374.03 757.73C395.73 751.24 417.19 743.37 438.87 737.86C446.49 735.92 454.13 734.05 461.81 732.3C466.242 731.391 470.775 731.078 475.29 731.37C501.92 733.17 520.63 756.85 504.05 785.29Z" fill="#D7E8F0"/>
<path d="M510.632 785.29C502.852 798.64 490.732 810.01 479.032 819.93C436.202 856.21 379.692 873.93 323.432 873.18C269.252 872.49 215.242 854.73 173.862 820.18C43.1416 711 66.7716 582.09 87.9216 522.4C88.6665 520.336 89.6749 518.377 90.9216 516.57C92.5753 514.151 94.7222 512.109 97.2213 510.579C99.7203 509.048 102.515 508.064 105.422 507.69C116.522 509.22 126.602 518.43 124.822 532.69C124.822 533.24 124.602 534 124.552 534.55C95.7716 610.35 149.792 697.41 211.752 740.91C239.862 760.64 274.282 770.34 308.482 769.71H308.872C314.025 769.79 319.148 769.654 324.242 769.3C343.452 767.9 362.112 763.3 380.612 757.73C402.312 751.24 423.772 743.37 445.452 737.86C453.062 735.92 460.712 734.05 468.382 732.3C470.661 731.834 472.97 731.523 475.292 731.37C505.232 729.36 528.552 754.55 510.632 785.29Z" fill="#D7E8F0"/>
<path d="M332.459 873L345.619 891.62C345.619 891.62 425.249 894.72 468.829 931.3C476.889 938.07 472.069 951.22 461.549 951.22C458.911 951.229 456.355 950.3 454.339 948.6C444.049 939.96 404.739 912.8 315.819 911.98C229.179 911.17 195.949 937.98 186.759 947.75C185.71 948.854 184.447 949.731 183.048 950.327C181.648 950.924 180.14 951.228 178.619 951.22H176.909C166.109 951.22 161.539 937.58 170.069 930.96C206.449 902.67 287.999 893.65 287.999 893.65L301.919 872.65" fill="#353642"/>
<path d="M684.87 769.75C684.87 769.75 709.26 792.92 701.65 864.75C701.096 869.879 699.312 874.798 696.45 879.09L693.8 883.09C689.455 889.598 682.902 894.315 675.35 896.37C659.42 900.72 630.52 910.8 612.67 929.9C605.13 937.99 610.74 951.17 621.8 951.17C623.863 951.176 625.894 950.671 627.714 949.701C629.534 948.731 631.085 947.325 632.23 945.61C639.5 934.67 661.51 911.44 714.6 911.93C774.48 912.48 798.6 936.29 806.33 946.55C807.398 947.981 808.785 949.143 810.38 949.945C811.975 950.747 813.735 951.166 815.52 951.17C817.758 951.165 819.946 950.508 821.816 949.278C823.686 948.049 825.156 946.3 826.047 944.247C826.938 942.194 827.21 939.925 826.83 937.72C826.451 935.514 825.436 933.467 823.91 931.83C800.56 906.46 772 897 756.24 893.49C748.322 891.783 741.328 887.179 736.63 880.58C733.034 875.49 730.989 869.467 730.74 863.24C729.86 840.97 729.4 786.91 744.49 769.77" fill="#353642"/>
<path d="M374.23 757.76C417.12 736.94 463.67 723.28 509.44 710.42C555.5 697.48 602.01 686.19 648.66 675.58C667.3 671.35 686.11 667.58 704.66 662.81" stroke="black" stroke-width="4.11" stroke-miterlimit="10"/>
<path d="M414.469 597.71H414.499H414.519" stroke="black" stroke-width="4.11" stroke-miterlimit="10"/>
<path d="M409.661 595C406.971 597.66 397.371 611.87 394.961 614.42C381.722 628.609 367.657 642.006 352.841 654.54C349.111 657.64 345.161 660.84 341.001 664.08C340.181 664.71 339.331 665.37 338.481 666C310.281 687.4 273.481 708 239.481 694.8C238.581 694.47 237.701 694.09 236.831 693.7C184.681 670.35 148.231 611.87 145.051 555.42C144.941 553.58 144.881 551.75 144.861 549.94C144.581 534.51 146.861 519.08 161.661 510.94" stroke="black" stroke-width="4.11" stroke-miterlimit="10"/>
<path d="M124.81 534.35L125.02 532.71C128.34 506.09 90.5401 497.11 81.5701 522.4C60.4301 582.08 36.7901 710.96 167.57 820.16C251.98 890.67 388.64 891.16 472.73 819.93C484.43 810.02 496.54 798.63 504.33 785.28C524.04 751.52 493.94 724.45 459.99 732.76" stroke="black" stroke-width="4.11" stroke-miterlimit="10"/>
<path d="M332.459 873L345.619 891.62C345.619 891.62 425.249 894.72 468.829 931.3C476.889 938.07 472.069 951.22 461.549 951.22C458.911 951.229 456.355 950.3 454.339 948.6C444.049 939.96 404.739 912.8 315.819 911.98C229.179 911.17 195.949 937.98 186.759 947.75C185.71 948.854 184.447 949.731 183.048 950.327C181.648 950.924 180.14 951.228 178.619 951.22H176.909C166.109 951.22 161.539 937.58 170.069 930.96C206.449 902.67 287.999 893.65 287.999 893.65L301.919 872.65" stroke="black" stroke-width="4.11" stroke-miterlimit="10"/>
<path d="M288 599.1C321.38 590.1 335.13 543.01 340.67 511.35" stroke="black" stroke-width="4.11" stroke-miterlimit="10"/>
<path d="M256.621 548.51C265.894 547.296 274.701 543.724 282.199 538.135C289.698 532.547 295.638 525.129 299.451 516.59C300.249 514.891 300.637 513.03 300.585 511.154C300.533 509.278 300.042 507.441 299.151 505.79C295.511 499.05 290.081 491.24 291.371 483.16C292.301 477.46 296.991 473.45 302.371 472.16C305.098 471.445 307.969 471.494 310.671 472.3C312.29 472.759 313.787 473.572 315.053 474.68C316.319 475.789 317.322 477.165 317.991 478.71C319.301 481.78 317.741 484.82 315.331 486.82C312.921 488.82 310.101 489.53 307.161 490.33C306.781 490.44 305.741 490.66 304.591 490.88" stroke="black" stroke-width="4.11" stroke-miterlimit="10"/>
<path d="M704.621 662.79C704.621 662.79 770.421 649.01 782.781 629.16C785.098 625.541 786.542 621.433 787.001 617.16" stroke="black" stroke-width="4.11" stroke-miterlimit="10"/>
<path d="M380.839 628.89C495.609 616.7 625.149 618.5 625.149 618.5H697.849C702.548 618.507 707.23 617.956 711.799 616.86C722.959 614.2 744.959 608.37 762.419 600.14C774.259 594.55 788.069 603.51 787.059 616.59C787.059 616.75 787.059 616.92 786.999 617.11C789.306 617.111 791.579 617.668 793.625 618.733C795.67 619.799 797.429 621.342 798.752 623.232C800.075 625.122 800.922 627.303 801.223 629.59C801.524 631.877 801.269 634.203 800.479 636.37C775.959 703.76 704.619 701.65 704.619 701.65C695.499 701.92 686.399 702.28 677.269 702.75C596.839 706.66 517.119 717.95 439.079 737.88C417.399 743.39 395.939 751.25 374.239 757.75C355.739 763.34 337.049 767.91 317.839 769.31C280.679 772 242.559 762.4 211.929 740.92C144.839 693.84 87.0993 595.68 133.579 516C149.989 487.88 187.149 480.18 213.049 500C249.579 527.95 278.759 582.4 293.729 614.52" stroke="black" stroke-width="4.11" stroke-miterlimit="10"/>
<path d="M798.958 769.75H639.238" stroke="black" stroke-width="4.11" stroke-miterlimit="10"/>
<path d="M607 737.49C607.024 728.94 610.43 720.748 616.474 714.701C622.519 708.655 630.711 705.246 639.26 705.22H799C807.551 705.243 815.745 708.651 821.792 714.698C827.839 720.744 831.246 728.939 831.27 737.49" stroke="black" stroke-width="4.11" stroke-miterlimit="10"/>
<path d="M834.41 748.93C834.418 751.667 833.884 754.379 832.84 756.909C831.796 759.44 830.262 761.738 828.326 763.673C826.39 765.608 824.09 767.141 821.559 768.184C819.029 769.227 816.317 769.759 813.58 769.75H624.58C619.849 769.302 615.482 767.016 612.419 763.383C609.356 759.749 607.841 755.059 608.2 750.321C608.559 745.582 610.763 741.173 614.339 738.043C617.914 734.912 622.575 733.31 627.32 733.58H816.32C819.675 733.575 822.981 734.382 825.956 735.934C828.93 737.486 831.485 739.735 833.4 742.49C834.068 744.571 834.409 746.744 834.41 748.93Z" fill="#D7E8F0"/>
<path d="M834.409 748.93C834.417 751.667 833.884 754.379 832.84 756.909C831.796 759.439 830.261 761.738 828.325 763.673C826.389 765.608 824.09 767.141 821.559 768.184C819.028 769.227 816.317 769.759 813.579 769.75H624.579C621.806 769.811 619.049 769.317 616.469 768.298C613.889 767.278 611.539 765.754 609.556 763.814C607.573 761.874 605.998 759.558 604.922 757.001C603.847 754.444 603.293 751.699 603.293 748.925C603.293 746.151 603.847 743.405 604.922 740.848C605.998 738.291 607.573 735.975 609.556 734.035C611.539 732.095 613.889 730.571 616.469 729.552C619.049 728.533 621.806 728.039 624.579 728.1H813.579C817.979 728.098 822.267 729.489 825.828 732.074C829.388 734.659 832.039 738.305 833.399 742.49C834.068 744.571 834.409 746.744 834.409 748.93Z" stroke="black" stroke-width="4.11" stroke-miterlimit="10"/>
<path d="M340.312 510.61L339.932 513.82C339.758 515.277 339.057 516.619 337.961 517.594C336.864 518.569 335.449 519.108 333.982 519.11H313.212C311.745 519.108 310.329 518.569 309.233 517.594C308.137 516.619 307.435 515.277 307.262 513.82L304.582 490.82C305.732 490.6 306.772 490.38 307.152 490.27C310.092 489.47 312.942 488.79 315.322 486.76C317.702 484.73 319.322 481.76 317.982 478.65C317.313 477.106 316.309 475.729 315.043 474.621C313.777 473.512 312.281 472.699 310.662 472.24C307.96 471.434 305.089 471.386 302.362 472.1L301.732 466.62C301.639 465.783 301.724 464.935 301.98 464.133C302.237 463.33 302.66 462.591 303.221 461.963C303.782 461.334 304.469 460.831 305.238 460.486C306.007 460.141 306.839 459.962 307.682 459.96H339.552C340.393 459.963 341.225 460.144 341.992 460.489C342.76 460.835 343.446 461.338 344.006 461.966C344.566 462.594 344.988 463.333 345.244 464.135C345.5 464.937 345.584 465.783 345.492 466.62L344.752 472.87" stroke="black" stroke-width="4.11" stroke-miterlimit="10"/>
<path d="M343.081 487.16L343.051 487.38" stroke="black" stroke-width="4.11" stroke-miterlimit="10"/>
<path d="M341.52 500.37V500.28" stroke="black" stroke-width="4.11" stroke-miterlimit="10"/>
<path d="M341.82 500.37C341.731 500.355 341.639 500.355 341.55 500.37C341.424 500.356 341.296 500.356 341.17 500.37C339.874 500.375 338.627 500.866 337.676 501.746C336.725 502.626 336.139 503.832 336.034 505.124C335.93 506.415 336.315 507.699 337.112 508.721C337.909 509.743 339.061 510.428 340.34 510.64C340.891 510.75 341.459 510.75 342.01 510.64C344.506 510.241 346.785 508.982 348.45 507.08C350.669 503.43 352.211 499.409 353 495.21C353.014 495.168 353.014 495.122 353 495.08C353.61 491.986 353.842 488.83 353.69 485.68C353.69 484.33 353.52 482.99 353.36 481.68C353.055 479.488 352.053 477.453 350.503 475.874C348.952 474.295 346.936 473.256 344.75 472.91C344.64 472.91 344.51 472.91 344.4 472.85C340.2 472.33 334.31 473.92 333.22 478.66C332.22 482.94 336.86 486.61 340.67 486.94C340.67 486.94 341.67 487.07 343.08 487.16C345.9 487.35 350.59 487.32 353.69 485.68C354.146 485.444 354.575 485.159 354.97 484.83" stroke="black" stroke-width="4.11" stroke-miterlimit="10"/>
<path d="M346.201 487.39H345.511H340.181H337.831C336.242 487.395 334.715 488.008 333.564 489.104C332.413 490.199 331.725 491.693 331.641 493.28C331.563 494.822 332.06 496.337 333.035 497.534C334.011 498.731 335.395 499.524 336.921 499.76C343.821 500.87 351.701 501.1 353.051 494.92" stroke="black" stroke-width="4.11" stroke-miterlimit="10"/>
<path d="M684.87 769.75C684.87 769.75 709.26 792.92 701.65 864.75C701.096 869.879 699.312 874.798 696.45 879.09L693.8 883.09C689.455 889.598 682.902 894.315 675.35 896.37C659.42 900.72 630.52 910.8 612.67 929.9C605.13 937.99 610.74 951.17 621.8 951.17C623.863 951.176 625.894 950.671 627.714 949.701C629.534 948.731 631.085 947.325 632.23 945.61C639.5 934.67 661.51 911.44 714.6 911.93C774.48 912.48 798.6 936.29 806.33 946.55C807.398 947.981 808.785 949.143 810.38 949.945C811.975 950.747 813.735 951.166 815.52 951.17C817.758 951.165 819.946 950.508 821.816 949.278C823.686 948.049 825.156 946.3 826.047 944.247C826.938 942.194 827.21 939.925 826.83 937.72C826.451 935.514 825.436 933.467 823.91 931.83C800.56 906.46 772 897 756.24 893.49C748.322 891.783 741.328 887.179 736.63 880.58C733.034 875.49 730.989 869.467 730.74 863.24C729.86 840.97 729.4 786.91 744.49 769.77" stroke="black" stroke-width="4.11" stroke-miterlimit="10"/>
<path d="M634.168 601.86V603.48C634.168 614.57 625.228 616.48 617.508 616.67L468.098 620.15C461.548 620.31 456.038 614.59 455.898 607.43V607.13C455.898 600.13 461.058 594.28 467.518 594.13C467.518 594.13 551.108 591.77 615.828 589.99C617.068 593.91 620.068 596.93 623.828 599.3C626.944 601.163 630.544 602.054 634.168 601.86Z" stroke="black" stroke-width="4.11" stroke-miterlimit="10"/>
<path d="M713.59 443.76C713.598 445.584 713.18 447.385 712.37 449.02L645.55 586C644.766 587.59 643.644 588.99 642.262 590.101C640.88 591.211 639.272 592.006 637.55 592.43C634.791 593.137 631.87 592.839 629.31 591.59C627.258 590.58 625.531 589.012 624.327 587.067C623.123 585.122 622.49 582.878 622.5 580.59C622.505 580.028 622.545 579.467 622.62 578.91C622.798 577.67 623.169 576.465 623.72 575.34L690.53 438.34C691.737 435.882 693.741 433.904 696.215 432.73C698.689 431.556 701.488 431.255 704.156 431.876C706.824 432.496 709.202 434.002 710.905 436.147C712.607 438.293 713.532 440.951 713.53 443.69L713.59 443.76Z" stroke="black" stroke-width="4.11" stroke-miterlimit="10"/>
<path d="M172.631 430.24C172.551 429.96 172.441 429.69 172.351 429.42C172.261 429.15 172.131 428.84 172.051 428.54" stroke="black" stroke-width="4.11" stroke-linecap="round" stroke-linejoin="round"/>
<path d="M172.629 430.25L174.679 428.19L178.599 424.22" stroke="black" stroke-width="4.11" stroke-linecap="round" stroke-linejoin="round"/>
<path d="M195.699 435.67C195.699 435.67 198.329 443.52 208.379 444.05" stroke="black" stroke-width="4.11" stroke-miterlimit="10"/>
<path d="M151.001 454.06C142.001 458.61 131.791 448.77 132.501 440.66C132.961 435.1 131.701 431.26 127.591 427.23C127.321 426.96 127.071 426.68 126.831 426.41C125.266 424.708 124.249 422.575 123.91 420.287C123.571 418 123.927 415.663 124.931 413.58C126.801 409.23 130.831 406.68 128.031 401.99C126.802 399.962 125.904 397.751 125.371 395.44C124.812 392.376 124.917 389.228 125.678 386.207C126.438 383.187 127.837 380.365 129.781 377.93C133.901 372.93 140.611 374.31 146.121 372.56C152.751 370.45 155.851 363.32 162.811 361.13C166.291 360.04 169.521 360.53 173.001 361.32C175.931 362.01 178.871 362.78 181.721 363.68C184.571 364.58 187.171 365.35 190.021 364.5C193.751 363.41 196.621 359.98 200.681 359.95C204.741 359.92 207.861 362.31 209.681 365.65C212.561 370.89 212.581 378.51 209.871 383.03C207.071 387.71 201.211 389.69 196.171 390.7C189.731 392.02 183.071 392.37 176.551 392.95L172.761 393.88C171.319 394.328 170.113 395.328 169.408 396.663C168.704 397.998 168.557 399.558 169.001 401C171.346 409.07 174.572 416.857 178.621 424.22" stroke="black" stroke-width="4.11" stroke-miterlimit="10"/>
<path d="M178.602 455.21C178.602 455.21 198.442 469.74 209.752 461.73C221.062 453.72 214.672 430.24 214.672 430.24" stroke="black" stroke-width="4.11" stroke-linecap="round" stroke-linejoin="round"/>
<path d="M318.791 449.93C318.791 449.93 310.361 444.23 315.721 438.41C321.081 432.59 313.941 424.91 313.941 424.91" stroke="black" stroke-width="4.11" stroke-miterlimit="10"/>
<path d="M326.57 450.92C326.57 450.92 332.15 447.15 328.57 443.29C324.99 439.43 329.76 434.29 329.76 434.29" stroke="black" stroke-width="4.11" stroke-miterlimit="10"/>
<path d="M365.022 396.6C425.729 396.6 474.942 347.387 474.942 286.68C474.942 225.973 425.729 176.76 365.022 176.76C304.314 176.76 255.102 225.973 255.102 286.68C255.102 347.387 304.314 396.6 365.022 396.6Z" stroke="#CCDDE2" stroke-width="4.11" stroke-miterlimit="10"/>
<path d="M365.018 347.05C398.36 347.05 425.388 320.021 425.388 286.68C425.388 253.338 398.36 226.31 365.018 226.31C331.677 226.31 304.648 253.338 304.648 286.68C304.648 320.021 331.677 347.05 365.018 347.05Z" stroke="#CCDDE2" stroke-width="4.11" stroke-miterlimit="10"/>
<path d="M365.022 297.03C370.738 297.03 375.372 292.396 375.372 286.68C375.372 280.964 370.738 276.33 365.022 276.33C359.306 276.33 354.672 280.964 354.672 286.68C354.672 292.396 359.306 297.03 365.022 297.03Z" stroke="#CCDDE2" stroke-width="4.11" stroke-miterlimit="10"/>
<path d="M386.449 252.12L370.469 277.88" stroke="#CCDDE2" stroke-width="4.11" stroke-miterlimit="10"/>
<path d="M365.02 226.31V237.05" stroke="#CCDDE2" stroke-width="4.11" stroke-miterlimit="10"/>
<path d="M425.391 286.68H415.211" stroke="#CCDDE2" stroke-width="4.11" stroke-miterlimit="10"/>
<path d="M365.02 347.06V336.62" stroke="#CCDDE2" stroke-width="4.11" stroke-miterlimit="10"/>
<path d="M304.641 286.68H313.821" stroke="#CCDDE2" stroke-width="4.11" stroke-miterlimit="10"/>
<path d="M470.369 469.44C492.957 469.44 511.269 451.128 511.269 428.54C511.269 405.951 492.957 387.64 470.369 387.64C447.78 387.64 429.469 405.951 429.469 428.54C429.469 451.128 447.78 469.44 470.369 469.44Z" fill="#3FBDF1"/>
<path d="M483.822 414.88C483.245 413.55 482.469 412.316 481.522 411.22C479.901 409.303 477.637 408.042 475.154 407.674C472.671 407.306 470.139 407.856 468.032 409.22C466.657 410.116 465.509 411.318 464.676 412.732C463.844 414.146 463.349 415.733 463.232 417.37C461.079 416.581 458.728 416.513 456.533 417.177C454.339 417.84 452.419 419.2 451.065 421.05C449.71 422.9 448.994 425.14 449.024 427.433C449.054 429.725 449.829 431.946 451.232 433.76C454.162 437.58 459.142 440.09 463.652 441.55C466.017 442.307 468.453 442.823 470.922 443.09C472.172 443.23 479.302 444.19 479.922 443.09C484.372 436.13 487.532 423.38 483.822 414.88Z" fill="white"/>
<g opacity="0.72">
<path opacity="0.72" d="M572.309 411.61C584.747 411.61 594.829 401.528 594.829 389.09C594.829 376.653 584.747 366.57 572.309 366.57C559.872 366.57 549.789 376.653 549.789 389.09C549.789 401.528 559.872 411.61 572.309 411.61Z" fill="#3FBDF1"/>
<path opacity="0.72" d="M582.08 393.081C582.637 392.513 583.103 391.862 583.46 391.151C584.102 389.925 584.274 388.506 583.945 387.162C583.615 385.818 582.806 384.64 581.67 383.851C580.927 383.338 580.075 383.004 579.182 382.875C578.288 382.747 577.377 382.828 576.52 383.111C576.471 381.849 576.014 380.637 575.216 379.658C574.419 378.679 573.324 377.986 572.098 377.683C570.872 377.381 569.581 377.485 568.42 377.981C567.258 378.476 566.29 379.336 565.66 380.431C564.435 382.907 563.959 385.687 564.29 388.431C564.402 389.785 564.65 391.125 565.03 392.431C565.22 393.101 566.22 396.931 566.9 397.051C571.37 397.801 578.53 396.751 582.08 393.081Z" fill="white"/>
</g>
<path d="M540.038 495.436L529.333 518.073C525.451 526.281 528.959 536.081 537.167 539.963L559.803 550.668C568.011 554.55 577.812 551.042 581.693 542.834L592.398 520.198C596.28 511.99 592.773 502.189 584.565 498.308L561.928 487.603C553.72 483.721 543.92 487.228 540.038 495.436Z" fill="#3FBDF1"/>
<path d="M586.289 524.16L578.539 540.55C576.913 543.964 574.003 546.596 570.443 547.872C566.884 549.147 562.964 548.963 559.539 547.36L539.88 538.06C536.468 536.432 533.838 533.521 532.564 529.961C531.29 526.402 531.475 522.483 533.08 519.06L533.599 517.96C538.939 513.7 548.169 507.96 551.539 515.77C556.389 527.05 562.7 523.41 570.76 518.69C577.49 514.71 585.569 513.38 586.289 524.16Z" fill="white"/>
<path d="M555.839 506.74C559.18 506.74 561.889 504.031 561.889 500.69C561.889 497.348 559.18 494.64 555.839 494.64C552.498 494.64 549.789 497.348 549.789 500.69C549.789 504.031 552.498 506.74 555.839 506.74Z" fill="white"/>
<path d="M659.061 421.19C660.265 423.383 661.138 425.742 661.651 428.19C662.568 432.668 662.305 437.308 660.888 441.653C659.472 445.999 656.95 449.902 653.571 452.98C650.891 455.35 647.481 457.2 644.771 459.68C642.795 461.386 641.339 463.615 640.571 466.11C640.432 466.963 640.089 467.769 639.571 468.46C637.991 470.16 636.441 467.46 635.071 467C632.864 466.282 630.468 466.399 628.341 467.33C622.749 469.669 616.519 470.001 610.709 468.271C604.9 466.541 599.867 462.854 596.465 457.837C593.063 452.82 591.5 446.78 592.043 440.743C592.585 434.705 595.199 429.041 599.441 424.71C603.631 420.44 609.111 417.71 614.441 414.93C619.101 412.46 623.741 409.83 628.801 408.35C640.661 404.8 653.321 410.71 659.061 421.19Z" fill="#3FBDF1"/>
<path d="M611.302 452.08C614.45 452.08 617.002 449.528 617.002 446.38C617.002 443.232 614.45 440.68 611.302 440.68C608.154 440.68 605.602 443.232 605.602 446.38C605.602 449.528 608.154 452.08 611.302 452.08Z" fill="white"/>
<path d="M626.649 443.87C629.797 443.87 632.349 441.318 632.349 438.17C632.349 435.022 629.797 432.47 626.649 432.47C623.501 432.47 620.949 435.022 620.949 438.17C620.949 441.318 623.501 443.87 626.649 443.87Z" fill="white"/>
<path d="M641.052 436.17C644.2 436.17 646.752 433.618 646.752 430.47C646.752 427.322 644.2 424.77 641.052 424.77C637.904 424.77 635.352 427.322 635.352 430.47C635.352 433.618 637.904 436.17 641.052 436.17Z" fill="white"/>
<path d="M467.262 246.27C467.262 246.27 504.792 362.35 649.262 356.08C697.262 350.08 754.392 356.08 805.262 423.08C882.592 525 851.542 638.539 816.402 710.609" stroke="#CCDDE2" stroke-width="4.11" stroke-miterlimit="10"/>
<g opacity="0.54">
<path opacity="0.54" d="M676.09 291.86C675.949 293.611 675.678 295.349 675.28 297.06L670.78 316.58C669.4 322.58 667.85 328.86 663.57 333.24C655.57 341.4 642.27 339.53 631.15 337.06L603.85 331C597.58 329.61 591.21 328.18 585.59 325.07C579.97 321.96 575.09 316.87 573.79 310.58C572.79 305.94 573.86 301.14 574.88 296.52L579 277.78C580.37 271.64 581.91 265.16 586.34 260.69C594.23 252.74 607.34 254.55 618.24 256.92L646.2 263C663.06 266.64 677.43 274.46 676.09 291.86Z" fill="#3FBDF1"/>
<path opacity="0.54" d="M638.439 292.38C639.608 293.467 640.471 294.843 640.939 296.369C641.408 297.896 641.467 299.519 641.109 301.075C640.751 302.631 639.989 304.065 638.901 305.234C637.813 306.402 636.436 307.263 634.909 307.73L626.589 310.28L618.269 312.83C616.742 313.297 615.119 313.354 613.564 312.995C612.008 312.636 610.574 311.875 609.405 310.786C608.237 309.698 607.376 308.322 606.908 306.795C606.44 305.269 606.381 303.646 606.739 302.09L608.739 293.61L610.689 285.14C611.045 283.583 611.805 282.148 612.893 280.978C613.981 279.809 615.357 278.946 616.884 278.478C618.411 278.009 620.034 277.952 621.59 278.31C623.147 278.669 624.581 279.431 625.749 280.52L632.119 286.45L638.439 292.38Z" fill="white"/>
</g>
<path d="M86.4805 951.17H950" stroke="black" stroke-width="4.11" stroke-miterlimit="10"/>
</svg>
