<svg width="903" height="780" viewBox="0 0 903 780" fill="none" xmlns="http://www.w3.org/2000/svg">
<path d="M163.31 207.352C160.51 212.032 154.65 214.012 149.61 215.022C143.17 216.342 136.51 216.692 129.99 217.272L126.2 218.202C125.482 218.423 124.816 218.784 124.238 219.263C123.661 219.743 123.184 220.332 122.834 220.996C122.485 221.66 122.27 222.387 122.202 223.135C122.135 223.882 122.215 224.636 122.44 225.352C124.785 233.422 128.011 241.208 132.06 248.572L126.06 254.572C124.36 252.272 124.28 248.242 122 248.632C119.81 246.442 117.21 245.372 114.52 248.302C109.26 254.052 110.11 266.002 117.84 269.302L116.11 277.912C115.513 280.922 113.891 283.633 111.521 285.582C109.151 287.531 106.178 288.598 103.11 288.602L104.44 278.412C95.4399 282.962 85.2299 273.122 85.9399 265.012C86.3999 259.452 85.1399 255.612 81.0299 251.582C80.7599 251.312 79.84 249.842 78.5 248.302C77.34 244.792 77.3499 242.56 78.4999 240.24C80.4999 236.1 84.8699 233.26 82.1599 228.74C80.9699 226.77 80.012 226.483 79.5 224.24C78.955 221.266 78.763 215.673 79.5 212.74C80.236 209.808 82.7149 206.104 84.5999 203.74C88.5999 198.94 97.69 197.44 103 195.74C109.47 193.74 114.14 189.38 120.91 187.24C124.28 186.17 127.4 188.812 130.77 189.582C133.62 190.242 136.44 190.982 139.24 191.862C142.04 192.742 144.76 190.212 147.5 189.392C151.12 188.392 153.65 188.272 157.6 188.242C159.57 188.197 161.5 188.813 163.08 189.992C166 195.242 166.02 202.862 163.31 207.352Z" fill="#3FBDF1"/>
<path d="M39.1111 344.64C39.1111 344.64 -69.7589 224.56 90.571 164.64C99.868 161.231 109.558 159.007 119.411 158.02C145.001 155.3 201.571 145.63 208.091 112.97" stroke="#CCDDE2" stroke-width="4.11" stroke-miterlimit="10"/>
<path d="M496.129 176.54V176.51" stroke="#CCDDE2" stroke-width="4.11" stroke-miterlimit="10"/>
<path d="M210.469 392.75V392.72" stroke="black" stroke-width="4.11" stroke-miterlimit="10"/>
<path d="M125.35 255.66C124.284 253.818 123.016 252.1 121.57 250.54C119.38 248.35 116.78 247.28 114.09 250.21C108.83 255.96 109.68 267.91 117.41 271.21L115.68 279.82C115.083 282.83 113.462 285.54 111.091 287.489C108.721 289.438 105.748 290.506 102.68 290.51" stroke="black" stroke-width="4.11" stroke-linecap="round" stroke-linejoin="round"/>
<path d="M97.84 328.61C98.28 325.27 99.37 316.5 100.42 308.14C101.42 300.39 102.31 292.93 102.66 290.47L104 280.3" stroke="black" stroke-width="4.11" stroke-linecap="round" stroke-linejoin="round"/>
<path d="M159.58 228.4C159.58 228.4 146.81 229.03 144.34 239.6" stroke="black" stroke-width="4.11" stroke-miterlimit="10"/>
<path d="M164.222 256.33C167.702 256.24 172.222 255.73 173.862 252.2L165.062 242.49C162.915 240.111 161.645 237.07 161.462 233.87C161.112 228.5 161.742 219.98 156.602 214.31" stroke="black" stroke-width="4.11" stroke-miterlimit="10"/>
<path d="M156.696 242.887C158.137 241.293 158.209 239.011 156.856 237.789C155.504 236.566 153.24 236.868 151.8 238.462C150.359 240.055 150.287 242.338 151.64 243.56C152.992 244.782 155.256 244.481 156.696 242.887Z" fill="black"/>
<path d="M155.829 320.11L149.199 287.97" stroke="black" stroke-width="4.11" stroke-miterlimit="10"/>
<path d="M323.901 464.76L281.171 499.7C332.581 578.1 293.671 592.49 293.671 592.49C286.124 593.935 278.502 594.959 270.841 595.56C233.681 598.24 195.561 588.65 164.931 567.17C102.931 523.67 48.9314 436.61 77.731 360.81C80.155 354.399 83.115 348.203 86.581 342.29C89.568 337.15 93.371 332.53 97.841 328.61C105.665 321.761 115.3 317.316 125.589 315.81C135.878 314.304 146.383 315.801 155.841 320.12C159.462 321.773 162.887 323.826 166.051 326.24C182.241 338.63 196.961 356.24 209.651 374.72C220.919 391.432 231.058 408.878 240.001 426.94C242.471 431.87 244.711 436.53 246.691 440.8C264.641 433.54 279.691 421.21 293.691 407.89C276.761 439.49 323.901 464.76 323.901 464.76Z" fill="#353642"/>
<path d="M294 490.32C293.18 490.95 292.33 491.61 291.48 492.24" stroke="black" stroke-width="4.11" stroke-miterlimit="10"/>
<path d="M167.672 357.49C179.005 379.19 190.339 400.93 201.672 422.71C210.222 439.15 224.672 449.3 245.022 441.51C267.162 433.03 285.022 416.82 301.542 400.3C318.062 383.78 334.802 367.98 358.652 363.72C389.482 358.21 418.652 375.01 439.652 396.24C441.268 397.859 442.29 399.976 442.553 402.248C442.816 404.52 442.305 406.815 441.102 408.76C440.33 410.004 439.299 411.068 438.08 411.878C436.86 412.688 435.48 413.226 434.034 413.454C432.587 413.683 431.109 413.597 429.699 413.203C428.289 412.809 426.98 412.116 425.862 411.17C415.912 402.68 399.722 390.4 388.462 390.24" stroke="black" stroke-width="4.11" stroke-miterlimit="10"/>
<path d="M357.738 419.37C361.198 421.68 365.998 424.24 369.998 424.24" stroke="black" stroke-width="4.11" stroke-miterlimit="10"/>
<path d="M402.08 394.45C409.46 398.1 412.15 408.78 406.94 415.16C400.334 423.357 392.057 430.052 382.66 434.8C372.38 439.93 365.78 436.8 355.66 430.54" stroke="black" stroke-width="4.11" stroke-miterlimit="10"/>
<path d="M385 404.02C385 404.02 399.62 407.64 399.23 421.83C399.204 422.435 399.096 423.034 398.91 423.61" stroke="black" stroke-width="4.11" stroke-miterlimit="10"/>
<path d="M374.672 412.96C374.672 412.96 394.282 425.63 384.952 433.6" stroke="black" stroke-width="4.11" stroke-miterlimit="10"/>
<path d="M753.478 462.62C730.378 526.11 665.708 527.9 658.308 527.9C661.408 521.37 662.248 509.9 655.458 489.8C660.007 483.158 662.402 475.277 662.317 467.226C662.233 459.176 659.675 451.347 654.988 444.8C655.078 444.72 655.128 444.61 655.208 444.53C658.442 444.333 661.651 443.848 664.798 443.08C675.958 440.42 697.958 434.58 715.418 426.36C727.258 420.77 741.068 429.73 740.058 442.8C740.058 442.97 740.058 443.13 739.998 443.32C742.31 443.319 744.588 443.875 746.638 444.943C748.688 446.011 750.45 447.558 751.774 449.453C753.097 451.349 753.943 453.535 754.24 455.828C754.537 458.12 754.276 460.451 753.478 462.62Z" fill="#3FBDF1"/>
<path d="M457.05 611.53C449.27 624.88 437.16 636.25 425.46 646.17C384.27 681.03 330.46 698.73 276.46 699.42C222.28 698.73 168.27 680.97 126.89 646.42C-3.86012 537.24 19.7699 408.33 40.9199 348.64C41.6648 346.576 42.6732 344.617 43.9199 342.81C45.5736 340.391 47.7205 338.349 50.2196 336.819C52.7187 335.288 55.513 334.304 58.42 333.93C69.52 335.46 79.6 344.67 77.82 358.93C77.82 359.48 77.6 360.24 77.55 360.79C48.7699 436.59 102.79 523.65 164.75 567.15C192.86 586.88 227.28 596.58 261.48 595.95H261.87C264.803 595.89 267.733 595.754 270.66 595.54C289.87 594.14 308.54 589.54 327.03 583.97C348.73 577.48 370.19 569.61 391.87 564.1C399.49 562.16 407.13 560.29 414.81 558.54C419.242 557.631 423.775 557.318 428.29 557.61C454.92 559.41 473.63 583.09 457.05 611.53Z" fill="#D7E8F0"/>
<path d="M463.632 611.53C455.852 624.88 443.732 636.25 432.032 646.17C389.202 682.45 332.692 700.17 276.432 699.42C222.252 698.73 168.242 680.97 126.862 646.42C-3.85844 537.24 19.7716 408.33 40.9216 348.64C41.6665 346.576 42.6749 344.617 43.9216 342.81C45.5753 340.391 47.7222 338.349 50.2213 336.819C52.7203 335.288 55.515 334.304 58.422 333.93C69.522 335.46 79.602 344.67 77.822 358.93C77.822 359.48 77.602 360.24 77.552 360.79C48.7716 436.59 102.792 523.65 164.752 567.15C192.862 586.88 227.282 596.58 261.482 595.95H261.872C267.025 596.03 272.148 595.894 277.242 595.54C296.452 594.14 315.112 589.54 333.612 583.97C355.312 577.48 376.772 569.61 398.452 564.1C406.062 562.16 413.712 560.29 421.382 558.54C423.661 558.074 425.97 557.763 428.292 557.61C458.232 555.6 481.552 580.79 463.632 611.53Z" fill="#D7E8F0"/>
<path d="M285.459 699.24L298.619 717.86C298.619 717.86 378.249 720.96 421.829 757.54C429.889 764.31 425.069 777.46 414.549 777.46C411.911 777.469 409.355 776.54 407.339 774.84C397.049 766.2 357.739 739.04 268.819 738.22C182.179 737.41 148.949 764.22 139.759 773.99C138.71 775.094 137.447 775.971 136.048 776.567C134.648 777.164 133.14 777.468 131.619 777.46H129.909C119.109 777.46 114.539 763.82 123.069 757.2C159.449 728.91 240.999 719.89 240.999 719.89L254.919 698.89" fill="#353642"/>
<path d="M637.87 595.99C637.87 595.99 662.26 619.16 654.65 690.99C654.096 696.119 652.312 701.038 649.45 705.33L646.8 709.33C642.455 715.838 635.902 720.555 628.35 722.61C612.42 726.96 583.52 737.04 565.67 756.14C558.13 764.23 563.74 777.41 574.8 777.41C576.863 777.416 578.894 776.911 580.714 775.941C582.534 774.971 584.085 773.565 585.23 771.85C592.5 760.91 614.51 737.68 667.6 738.17C727.48 738.72 751.6 762.53 759.33 772.79C760.398 774.221 761.785 775.383 763.38 776.185C764.975 776.987 766.735 777.406 768.52 777.41C770.758 777.405 772.946 776.748 774.816 775.518C776.686 774.289 778.156 772.54 779.047 770.487C779.938 768.434 780.21 766.165 779.83 763.96C779.451 761.754 778.436 759.707 776.91 758.07C753.56 732.7 725 723.24 709.24 719.73C701.322 718.023 694.328 713.419 689.63 706.82C686.034 701.73 683.989 695.707 683.74 689.48C682.86 667.21 682.4 613.15 697.49 596.01" fill="#353642"/>
<path d="M327.23 584C370.12 563.18 416.67 549.52 462.44 536.66C508.5 523.72 555.01 512.43 601.66 501.82C620.3 497.59 639.11 493.82 657.66 489.05" stroke="black" stroke-width="4.11" stroke-miterlimit="10"/>
<path d="M367.469 423.95H367.499H367.519" stroke="black" stroke-width="4.11" stroke-miterlimit="10"/>
<path d="M362.661 421.24C359.971 423.9 350.371 438.11 347.961 440.66C334.722 454.849 320.657 468.246 305.841 480.78C302.111 483.88 298.161 487.08 294.001 490.32C293.181 490.95 292.331 491.61 291.481 492.24C263.281 513.64 226.481 534.24 192.481 521.04C191.581 520.71 190.701 520.33 189.831 519.94C137.681 496.59 101.231 438.11 98.0509 381.66C97.9409 379.82 97.8809 377.99 97.8609 376.18C97.5809 360.75 99.8609 345.32 114.661 337.18" stroke="black" stroke-width="4.11" stroke-miterlimit="10"/>
<path d="M77.81 360.59L78.02 358.95C81.34 332.33 43.5401 323.35 34.5701 348.64C13.4301 408.32 -10.2099 537.2 120.57 646.4C204.98 716.91 341.64 717.4 425.73 646.17C437.43 636.26 449.54 624.87 457.33 611.52C477.04 577.76 446.94 550.69 412.99 559" stroke="black" stroke-width="4.11" stroke-miterlimit="10"/>
<path d="M285.459 699.24L298.619 717.86C298.619 717.86 378.249 720.96 421.829 757.54C429.889 764.31 425.069 777.46 414.549 777.46C411.911 777.469 409.355 776.54 407.339 774.84C397.049 766.2 357.739 739.04 268.819 738.22C182.179 737.41 148.949 764.22 139.759 773.99C138.71 775.094 137.447 775.971 136.048 776.567C134.648 777.164 133.14 777.468 131.619 777.46H129.909C119.109 777.46 114.539 763.82 123.069 757.2C159.449 728.91 240.999 719.89 240.999 719.89L254.919 698.89" stroke="black" stroke-width="4.11" stroke-miterlimit="10"/>
<path d="M241 425.34C274.38 416.34 288.13 369.25 293.67 337.59" stroke="black" stroke-width="4.11" stroke-miterlimit="10"/>
<path d="M209.621 374.75C218.894 373.536 227.701 369.964 235.199 364.375C242.698 358.787 248.638 351.369 252.451 342.83C253.249 341.131 253.637 339.27 253.585 337.394C253.533 335.518 253.042 333.681 252.151 332.03C248.511 325.29 243.081 317.48 244.371 309.4C245.301 303.7 249.991 299.69 255.371 298.4C258.098 297.685 260.969 297.734 263.671 298.54C265.29 298.999 266.787 299.812 268.053 300.92C269.319 302.029 270.322 303.405 270.991 304.95C272.301 308.02 270.741 311.06 268.331 313.06C265.921 315.06 263.101 315.77 260.161 316.57C259.781 316.68 258.741 316.9 257.591 317.12" stroke="black" stroke-width="4.11" stroke-miterlimit="10"/>
<path d="M657.621 489.03C657.621 489.03 723.421 475.25 735.781 455.4C738.098 451.781 739.542 447.673 740.001 443.4" stroke="black" stroke-width="4.11" stroke-miterlimit="10"/>
<path d="M333.839 455.13C448.609 442.94 578.149 444.74 578.149 444.74H650.849C655.548 444.747 660.23 444.196 664.799 443.1C675.959 440.44 697.959 434.61 715.419 426.38C727.259 420.79 741.069 429.75 740.059 442.83C740.059 442.99 740.059 443.16 739.999 443.35C742.306 443.351 744.579 443.908 746.625 444.973C748.67 446.039 750.429 447.582 751.752 449.472C753.075 451.362 753.922 453.543 754.223 455.83C754.524 458.117 754.269 460.443 753.479 462.61C728.959 530 657.619 527.89 657.619 527.89C648.499 528.16 639.399 528.52 630.269 528.99C549.839 532.9 470.119 544.19 392.079 564.12C370.399 569.63 348.939 577.49 327.239 583.99C308.739 589.58 290.049 594.15 270.839 595.55C233.679 598.24 195.559 588.64 164.929 567.16C97.839 520.08 40.0993 421.92 86.579 342.24C102.989 314.12 140.149 306.42 166.049 326.24C202.579 354.19 231.759 408.64 246.729 440.76" stroke="black" stroke-width="4.11" stroke-miterlimit="10"/>
<path d="M751.958 595.99H592.238" stroke="black" stroke-width="4.11" stroke-miterlimit="10"/>
<path d="M560 563.73C560.024 555.18 563.43 546.988 569.474 540.941C575.519 534.895 583.711 531.486 592.26 531.46H752C760.551 531.483 768.745 534.891 774.792 540.938C780.839 546.984 784.246 555.179 784.27 563.73" stroke="black" stroke-width="4.11" stroke-miterlimit="10"/>
<path d="M787.41 575.17C787.418 577.907 786.884 580.619 785.84 583.149C784.796 585.68 783.262 587.978 781.326 589.913C779.39 591.848 777.09 593.381 774.559 594.424C772.029 595.467 769.317 595.999 766.58 595.99H577.58C572.849 595.542 568.482 593.256 565.419 589.623C562.356 585.989 560.841 581.299 561.2 576.561C561.559 571.822 563.763 567.413 567.339 564.283C570.914 561.152 575.575 559.55 580.32 559.82H769.32C772.675 559.815 775.981 560.622 778.956 562.174C781.93 563.726 784.485 565.975 786.4 568.73C787.068 570.811 787.409 572.984 787.41 575.17Z" fill="#D7E8F0"/>
<path d="M787.409 575.17C787.417 577.907 786.884 580.619 785.84 583.149C784.796 585.679 783.261 587.978 781.325 589.913C779.389 591.848 777.09 593.381 774.559 594.424C772.028 595.467 769.317 595.999 766.579 595.99H577.579C574.806 596.051 572.049 595.557 569.469 594.538C566.889 593.518 564.539 591.994 562.556 590.054C560.573 588.114 558.998 585.798 557.922 583.241C556.847 580.684 556.293 577.939 556.293 575.165C556.293 572.391 556.847 569.645 557.922 567.088C558.998 564.531 560.573 562.215 562.556 560.275C564.539 558.335 566.889 556.811 569.469 555.792C572.049 554.773 574.806 554.279 577.579 554.34H766.579C770.979 554.338 775.267 555.729 778.828 558.314C782.388 560.899 785.039 564.545 786.399 568.73C787.068 570.811 787.409 572.984 787.409 575.17Z" stroke="black" stroke-width="4.11" stroke-miterlimit="10"/>
<path d="M293.312 336.85L292.932 340.06C292.758 341.517 292.057 342.859 290.961 343.834C289.864 344.809 288.449 345.348 286.982 345.35H266.212C264.745 345.348 263.329 344.809 262.233 343.834C261.137 342.859 260.435 341.517 260.262 340.06L257.582 317.06C258.732 316.84 259.772 316.62 260.152 316.51C263.092 315.71 265.942 315.03 268.322 313C270.702 310.97 272.322 308 270.982 304.89C270.313 303.346 269.309 301.969 268.043 300.861C266.777 299.752 265.281 298.939 263.662 298.48C260.96 297.674 258.089 297.626 255.362 298.34L254.732 292.86C254.639 292.023 254.724 291.175 254.98 290.373C255.237 289.57 255.66 288.831 256.221 288.203C256.782 287.574 257.469 287.071 258.238 286.726C259.007 286.381 259.839 286.202 260.682 286.2H292.552C293.393 286.203 294.225 286.384 294.992 286.729C295.76 287.075 296.446 287.578 297.006 288.206C297.566 288.834 297.988 289.573 298.244 290.375C298.5 291.177 298.584 292.023 298.492 292.86L297.752 299.11" stroke="black" stroke-width="4.11" stroke-miterlimit="10"/>
<path d="M296.081 313.4L296.051 313.62" stroke="black" stroke-width="4.11" stroke-miterlimit="10"/>
<path d="M294.52 326.61V326.52" stroke="black" stroke-width="4.11" stroke-miterlimit="10"/>
<path d="M294.82 326.61C294.731 326.595 294.639 326.595 294.55 326.61C294.424 326.596 294.296 326.596 294.17 326.61C292.874 326.615 291.627 327.106 290.676 327.986C289.725 328.866 289.139 330.072 289.034 331.364C288.93 332.655 289.315 333.939 290.112 334.961C290.909 335.983 292.061 336.668 293.34 336.88C293.891 336.99 294.459 336.99 295.01 336.88C297.506 336.481 299.785 335.222 301.45 333.32C303.669 329.67 305.211 325.649 306 321.45C306.014 321.408 306.014 321.362 306 321.32C306.61 318.226 306.842 315.07 306.69 311.92C306.69 310.57 306.52 309.23 306.36 307.92C306.055 305.728 305.053 303.693 303.503 302.114C301.952 300.535 299.936 299.496 297.75 299.15C297.64 299.15 297.51 299.15 297.4 299.09C293.2 298.57 287.31 300.16 286.22 304.9C285.22 309.18 289.86 312.85 293.67 313.18C293.67 313.18 294.67 313.31 296.08 313.4C298.9 313.59 303.59 313.56 306.69 311.92C307.146 311.684 307.575 311.399 307.97 311.07" stroke="black" stroke-width="4.11" stroke-miterlimit="10"/>
<path d="M299.201 313.63H298.511H293.181H290.831C289.242 313.635 287.715 314.248 286.564 315.344C285.413 316.439 284.725 317.933 284.641 319.52C284.563 321.062 285.06 322.577 286.035 323.774C287.011 324.971 288.395 325.764 289.921 326C296.821 327.11 304.701 327.34 306.051 321.16" stroke="black" stroke-width="4.11" stroke-miterlimit="10"/>
<path d="M637.87 595.99C637.87 595.99 662.26 619.16 654.65 690.99C654.096 696.119 652.312 701.038 649.45 705.33L646.8 709.33C642.455 715.838 635.902 720.555 628.35 722.61C612.42 726.96 583.52 737.04 565.67 756.14C558.13 764.23 563.74 777.41 574.8 777.41C576.863 777.416 578.894 776.911 580.714 775.941C582.534 774.971 584.085 773.565 585.23 771.85C592.5 760.91 614.51 737.68 667.6 738.17C727.48 738.72 751.6 762.53 759.33 772.79C760.398 774.221 761.785 775.383 763.38 776.185C764.975 776.987 766.735 777.406 768.52 777.41C770.758 777.405 772.946 776.748 774.816 775.518C776.686 774.289 778.156 772.54 779.047 770.487C779.938 768.434 780.21 766.165 779.83 763.96C779.451 761.754 778.436 759.707 776.91 758.07C753.56 732.7 725 723.24 709.24 719.73C701.322 718.023 694.328 713.419 689.63 706.82C686.034 701.73 683.989 695.707 683.74 689.48C682.86 667.21 682.4 613.15 697.49 596.01" stroke="black" stroke-width="4.11" stroke-miterlimit="10"/>
<path d="M587.168 428.1V429.72C587.168 440.81 578.228 442.72 570.508 442.91L421.098 446.39C414.548 446.55 409.038 440.83 408.898 433.67V433.37C408.898 426.37 414.058 420.52 420.518 420.37C420.518 420.37 504.108 418.01 568.828 416.23C570.068 420.15 573.068 423.17 576.828 425.54C579.944 427.403 583.544 428.294 587.168 428.1Z" stroke="black" stroke-width="4.11" stroke-miterlimit="10"/>
<path d="M666.59 270C666.598 271.824 666.18 273.625 665.37 275.26L598.55 412.24C597.766 413.83 596.644 415.23 595.262 416.341C593.88 417.451 592.272 418.246 590.55 418.67C587.791 419.377 584.87 419.079 582.31 417.83C580.258 416.82 578.531 415.252 577.327 413.307C576.123 411.362 575.49 409.118 575.5 406.83C575.505 406.268 575.545 405.707 575.62 405.15C575.798 403.91 576.169 402.705 576.72 401.58L643.53 264.58C644.737 262.122 646.741 260.144 649.215 258.97C651.689 257.796 654.488 257.495 657.156 258.116C659.824 258.736 662.202 260.242 663.905 262.387C665.607 264.533 666.532 267.191 666.53 269.93L666.59 270Z" stroke="black" stroke-width="4.11" stroke-miterlimit="10"/>
<path d="M125.631 256.48C125.551 256.2 125.441 255.93 125.351 255.66C125.261 255.39 125.131 255.08 125.051 254.78" stroke="black" stroke-width="4.11" stroke-linecap="round" stroke-linejoin="round"/>
<path d="M125.629 256.49L127.679 254.43L131.599 250.46" stroke="black" stroke-width="4.11" stroke-linecap="round" stroke-linejoin="round"/>
<path d="M148.699 261.91C148.699 261.91 151.329 269.76 161.379 270.29" stroke="black" stroke-width="4.11" stroke-miterlimit="10"/>
<path d="M104.001 280.3C95.001 284.85 84.791 275.01 85.501 266.9C85.961 261.34 84.701 257.5 80.591 253.47C80.321 253.2 80.071 252.92 79.831 252.65C78.266 250.948 77.249 248.815 76.91 246.527C76.571 244.24 76.927 241.903 77.931 239.82C79.801 235.47 83.831 232.92 81.031 228.23C79.802 226.202 78.904 223.991 78.371 221.68C77.812 218.616 77.917 215.468 78.678 212.447C79.438 209.427 80.837 206.605 82.781 204.17C86.901 199.17 93.611 200.55 99.121 198.8C105.751 196.69 108.851 189.56 115.811 187.37C119.291 186.28 122.521 186.77 126.001 187.56C128.931 188.25 131.871 189.02 134.721 189.92C137.571 190.82 140.171 191.59 143.021 190.74C146.751 189.65 149.621 186.22 153.681 186.19C157.741 186.16 160.861 188.55 162.681 191.89C165.561 197.13 165.581 204.75 162.871 209.27C160.071 213.95 154.211 215.93 149.171 216.94C142.731 218.26 136.071 218.61 129.551 219.19L125.761 220.12C124.319 220.568 123.113 221.568 122.408 222.903C121.704 224.238 121.557 225.798 122.001 227.24C124.346 235.31 127.572 243.097 131.621 250.46" stroke="black" stroke-width="4.11" stroke-miterlimit="10"/>
<path d="M131.602 281.45C131.602 281.45 151.442 295.98 162.752 287.97C174.062 279.96 167.672 256.48 167.672 256.48" stroke="black" stroke-width="4.11" stroke-linecap="round" stroke-linejoin="round"/>
<path d="M271.791 276.17C271.791 276.17 263.361 270.47 268.721 264.65C274.081 258.83 266.941 251.15 266.941 251.15" stroke="black" stroke-width="4.11" stroke-miterlimit="10"/>
<path d="M279.57 277.16C279.57 277.16 285.15 273.39 281.57 269.53C277.99 265.67 282.76 260.53 282.76 260.53" stroke="black" stroke-width="4.11" stroke-miterlimit="10"/>
<path d="M318.022 222.84C378.729 222.84 427.942 173.627 427.942 112.92C427.942 52.213 378.729 3 318.022 3C257.314 3 208.102 52.213 208.102 112.92C208.102 173.627 257.314 222.84 318.022 222.84Z" stroke="#CCDDE2" stroke-width="4.11" stroke-miterlimit="10"/>
<path d="M318.018 173.29C351.36 173.29 378.388 146.261 378.388 112.92C378.388 79.578 351.36 52.55 318.018 52.55C284.677 52.55 257.648 79.578 257.648 112.92C257.648 146.261 284.677 173.29 318.018 173.29Z" stroke="#CCDDE2" stroke-width="4.11" stroke-miterlimit="10"/>
<path d="M318.022 123.27C323.738 123.27 328.372 118.636 328.372 112.92C328.372 107.204 323.738 102.57 318.022 102.57C312.306 102.57 307.672 107.204 307.672 112.92C307.672 118.636 312.306 123.27 318.022 123.27Z" stroke="#CCDDE2" stroke-width="4.11" stroke-miterlimit="10"/>
<path d="M339.449 78.3601L323.469 104.12" stroke="#CCDDE2" stroke-width="4.11" stroke-miterlimit="10"/>
<path d="M318.02 52.55V63.2901" stroke="#CCDDE2" stroke-width="4.11" stroke-miterlimit="10"/>
<path d="M378.391 112.92H368.211" stroke="#CCDDE2" stroke-width="4.11" stroke-miterlimit="10"/>
<path d="M318.02 173.3V162.86" stroke="#CCDDE2" stroke-width="4.11" stroke-miterlimit="10"/>
<path d="M257.641 112.92H266.821" stroke="#CCDDE2" stroke-width="4.11" stroke-miterlimit="10"/>
<path d="M423.369 295.68C445.957 295.68 464.269 277.368 464.269 254.78C464.269 232.191 445.957 213.88 423.369 213.88C400.78 213.88 382.469 232.191 382.469 254.78C382.469 277.368 400.78 295.68 423.369 295.68Z" fill="#3FBDF1"/>
<path d="M436.822 241.12C436.245 239.79 435.469 238.556 434.522 237.46C432.901 235.543 430.637 234.282 428.154 233.914C425.671 233.546 423.139 234.096 421.032 235.46C419.657 236.356 418.509 237.558 417.676 238.972C416.844 240.386 416.349 241.973 416.232 243.61C414.079 242.821 411.728 242.753 409.533 243.417C407.339 244.08 405.419 245.44 404.065 247.29C402.71 249.14 401.994 251.38 402.024 253.673C402.054 255.965 402.829 258.186 404.232 260C407.162 263.82 412.142 266.33 416.652 267.79C419.017 268.547 421.453 269.063 423.922 269.33C425.172 269.47 432.302 270.43 432.922 269.33C437.372 262.37 440.532 249.62 436.822 241.12Z" fill="white"/>
<g opacity="0.72">
<path opacity="0.72" d="M525.309 237.85C537.747 237.85 547.829 227.768 547.829 215.33C547.829 202.893 537.747 192.81 525.309 192.81C512.872 192.81 502.789 202.893 502.789 215.33C502.789 227.768 512.872 237.85 525.309 237.85Z" fill="#3FBDF1"/>
<path opacity="0.72" d="M535.08 219.321C535.637 218.753 536.103 218.102 536.46 217.391C537.102 216.165 537.274 214.746 536.945 213.402C536.615 212.058 535.806 210.88 534.67 210.091C533.927 209.578 533.075 209.244 532.182 209.115C531.288 208.987 530.377 209.068 529.52 209.351C529.471 208.089 529.014 206.877 528.216 205.898C527.419 204.919 526.324 204.226 525.098 203.923C523.872 203.621 522.581 203.725 521.42 204.221C520.258 204.716 519.29 205.576 518.66 206.671C517.435 209.147 516.959 211.927 517.29 214.671C517.402 216.025 517.65 217.365 518.03 218.671C518.22 219.341 519.22 223.171 519.9 223.291C524.37 224.041 531.53 222.991 535.08 219.321Z" fill="white"/>
</g>
<path d="M493.038 321.676L482.333 344.313C478.451 352.521 481.959 362.321 490.167 366.203L512.803 376.908C521.011 380.79 530.812 377.282 534.693 369.074L545.398 346.438C549.28 338.23 545.773 328.429 537.565 324.548L514.928 313.843C506.72 309.961 496.92 313.468 493.038 321.676Z" fill="#3FBDF1"/>
<path d="M539.289 350.4L531.539 366.79C529.913 370.204 527.003 372.836 523.443 374.112C519.884 375.387 515.964 375.203 512.539 373.6L492.88 364.3C489.468 362.672 486.838 359.761 485.564 356.201C484.29 352.642 484.475 348.723 486.08 345.3L486.599 344.2C491.939 339.94 501.169 334.2 504.539 342.01C509.389 353.29 515.7 349.65 523.76 344.93C530.49 340.95 538.569 339.62 539.289 350.4Z" fill="white"/>
<path d="M508.839 332.98C512.18 332.98 514.889 330.271 514.889 326.93C514.889 323.588 512.18 320.88 508.839 320.88C505.498 320.88 502.789 323.588 502.789 326.93C502.789 330.271 505.498 332.98 508.839 332.98Z" fill="white"/>
<path d="M612.061 247.43C613.265 249.623 614.138 251.982 614.651 254.43C615.568 258.908 615.305 263.548 613.888 267.893C612.472 272.239 609.95 276.142 606.571 279.22C603.891 281.59 600.481 283.44 597.771 285.92C595.795 287.626 594.339 289.855 593.571 292.35C593.432 293.203 593.089 294.009 592.571 294.7C590.991 296.4 589.441 293.7 588.071 293.24C585.864 292.522 583.468 292.639 581.341 293.57C575.749 295.909 569.519 296.241 563.709 294.511C557.9 292.781 552.867 289.094 549.465 284.077C546.063 279.06 544.5 273.02 545.043 266.983C545.585 260.945 548.199 255.281 552.441 250.95C556.631 246.68 562.111 243.95 567.441 241.17C572.101 238.7 576.741 236.07 581.801 234.59C593.661 231.04 606.321 236.95 612.061 247.43Z" fill="#3FBDF1"/>
<path d="M564.302 278.32C567.45 278.32 570.002 275.768 570.002 272.62C570.002 269.472 567.45 266.92 564.302 266.92C561.154 266.92 558.602 269.472 558.602 272.62C558.602 275.768 561.154 278.32 564.302 278.32Z" fill="white"/>
<path d="M579.649 270.11C582.797 270.11 585.349 267.558 585.349 264.41C585.349 261.262 582.797 258.71 579.649 258.71C576.501 258.71 573.949 261.262 573.949 264.41C573.949 267.558 576.501 270.11 579.649 270.11Z" fill="white"/>
<path d="M594.052 262.41C597.2 262.41 599.752 259.858 599.752 256.71C599.752 253.562 597.2 251.01 594.052 251.01C590.904 251.01 588.352 253.562 588.352 256.71C588.352 259.858 590.904 262.41 594.052 262.41Z" fill="white"/>
<path d="M420.262 72.51C420.262 72.51 457.792 188.59 602.262 182.32C650.262 176.32 707.392 182.32 758.262 249.32C835.592 351.24 804.542 464.779 769.402 536.849" stroke="#CCDDE2" stroke-width="4.11" stroke-miterlimit="10"/>
<g opacity="0.54">
<path opacity="0.54" d="M629.09 118.1C628.949 119.851 628.678 121.589 628.28 123.3L623.78 142.82C622.4 148.82 620.85 155.1 616.57 159.48C608.57 167.64 595.27 165.77 584.15 163.3L556.85 157.24C550.58 155.85 544.21 154.42 538.59 151.31C532.97 148.2 528.09 143.11 526.79 136.82C525.79 132.18 526.86 127.38 527.88 122.76L532 104.02C533.37 97.8801 534.91 91.4001 539.34 86.9301C547.23 78.9801 560.34 80.7901 571.24 83.1601L599.2 89.2401C616.06 92.8801 630.43 100.7 629.09 118.1Z" fill="#3FBDF1"/>
<path opacity="0.54" d="M591.439 118.62C592.608 119.707 593.471 121.083 593.939 122.609C594.408 124.136 594.467 125.759 594.109 127.315C593.751 128.871 592.989 130.305 591.901 131.474C590.813 132.642 589.436 133.503 587.909 133.97L579.589 136.52L571.269 139.07C569.742 139.537 568.119 139.594 566.564 139.235C565.008 138.876 563.574 138.115 562.405 137.026C561.237 135.938 560.376 134.562 559.908 133.035C559.44 131.509 559.381 129.886 559.739 128.33L561.739 119.85L563.689 111.38C564.045 109.823 564.805 108.388 565.893 107.218C566.981 106.049 568.357 105.186 569.884 104.718C571.411 104.249 573.034 104.192 574.59 104.55C576.147 104.909 577.581 105.671 578.749 106.76L585.119 112.69L591.439 118.62Z" fill="white"/>
</g>
<path d="M39.4805 777.41H903" stroke="black" stroke-width="4.11" stroke-miterlimit="10"/>
</svg>
