<svg xmlns="http://www.w3.org/2000/svg" width="375" viewBox="0 0 375 375" height="375" version="1.0"><defs><clipPath id="a"><path d="M 56.472656 53.570312 L 318.222656 53.570312 L 318.222656 232 L 56.472656 232 Z M 56.472656 53.570312"/></clipPath></defs><path fill="#02D0FE" d="M 287.488281 297.5 L 287.488281 332.136719 L 187.363281 266.757812 L 87.238281 332.136719 L 87.238281 297.5 L 187.363281 232.125 L 287.488281 297.5"/><path fill="#09F" d="M 287.488281 42.636719 L 287.488281 297.5 L 187.363281 232.125 L 87.238281 297.5 L 87.238281 42.636719 L 287.488281 42.636719"/><path fill="#6D6E71" d="M 129.222656 196.117188 L 132.515625 195.683594 C 131.011719 193.601562 129.703125 191.402344 128.589844 189.085938 C 124.105469 190.691406 118.523438 193.53125 115.699219 198.191406 C 110.601562 206.644531 114.957031 217.230469 115 217.335938 C 115.027344 217.402344 115.046875 217.464844 115.0625 217.535156 L 139.746094 217.535156 L 164.320312 212.949219 C 164.945312 212.851562 165.550781 212.691406 166.144531 212.472656 C 166.738281 212.253906 167.304688 211.976562 167.84375 211.648438 C 168.382812 211.316406 168.882812 210.933594 169.347656 210.503906 C 169.8125 210.074219 170.230469 209.605469 170.601562 209.089844 C 170.972656 208.578125 171.289062 208.035156 171.554688 207.457031 C 171.820312 206.882812 172.027344 206.289062 172.171875 205.671875 C 172.320312 205.054688 172.40625 204.429688 172.433594 203.796875 C 172.457031 203.164062 172.421875 202.535156 172.320312 201.910156 C 172.222656 201.28125 172.0625 200.671875 171.84375 200.078125 C 171.628906 199.484375 171.351562 198.914062 171.023438 198.375 C 170.691406 197.835938 170.3125 197.332031 169.882812 196.867188 C 169.457031 196.402344 168.984375 195.980469 168.472656 195.609375 C 167.964844 195.238281 167.421875 194.917969 166.847656 194.652344 C 166.273438 194.386719 165.679688 194.179688 165.0625 194.03125 C 164.449219 193.882812 163.828125 193.796875 163.195312 193.773438 C 162.5625 193.746094 161.9375 193.785156 161.3125 193.882812 L 129.511719 198.0625 C 129.25 198.078125 129.019531 198.003906 128.820312 197.835938 C 128.617188 197.667969 128.5 197.457031 128.464844 197.195312 C 128.433594 196.9375 128.492188 196.699219 128.644531 196.488281 C 128.796875 196.273438 129 196.144531 129.253906 196.089844 Z M 129.222656 196.117188"/><path fill="#ED1C24" d="M 204.628906 56.933594 L 148.6875 56.933594 L 133.953125 140.671875 L 219.363281 140.671875 Z M 204.628906 56.933594"/><path fill="#D30F1E" d="M 135.816406 132.226562 L 134.425781 140.101562 L 219.835938 140.101562 L 205.105469 56.386719 L 202.191406 56.386719 L 213.480469 133.527344 C 213.480469 133.527344 162.128906 131.835938 135.816406 132.226562 Z M 135.816406 132.226562"/><path fill="#FFF" d="M 130.035156 187.535156 C 131.257812 190.195312 132.746094 192.695312 134.496094 195.035156 C 134.574219 195.140625 134.628906 195.257812 134.660156 195.382812 L 153.089844 192.960938 C 153.046875 192.882812 152.996094 192.808594 152.957031 192.726562 C 150.773438 188.308594 151.570312 182.941406 154.847656 179.964844 C 157.683594 177.394531 161.6875 176.976562 164.855469 176.902344 L 166.5625 176.902344 C 169.351562 176.875 171.984375 176.855469 174.394531 175.917969 C 177.066406 174.882812 179.464844 172.167969 178.890625 169.390625 C 178.851562 169.1875 178.875 168.988281 178.960938 168.796875 C 179.046875 168.605469 179.179688 168.457031 179.359375 168.351562 C 179.539062 168.246094 179.734375 168.199219 179.941406 168.21875 C 180.148438 168.234375 180.335938 168.308594 180.496094 168.445312 C 180.65625 168.308594 180.839844 168.234375 181.046875 168.21875 C 181.253906 168.199219 181.449219 168.246094 181.628906 168.351562 C 181.808594 168.457031 181.941406 168.605469 182.027344 168.796875 C 182.113281 168.988281 182.136719 169.1875 182.097656 169.390625 C 181.527344 172.160156 183.933594 174.882812 186.59375 175.917969 C 189.003906 176.855469 191.636719 176.875 194.425781 176.902344 L 196.136719 176.902344 C 199.304688 176.976562 203.304688 177.394531 206.140625 179.964844 C 209.421875 182.941406 210.214844 188.308594 208.03125 192.722656 C 206.230469 196.371094 202.652344 199.277344 197.960938 200.90625 C 193.871094 202.328125 189.554688 202.648438 185.382812 202.957031 L 175.597656 202.957031 L 174.160156 202.847656 C 174.128906 202.875 174.09375 202.902344 174.058594 202.925781 C 174.09375 203.621094 174.0625 204.316406 173.976562 205.003906 C 173.886719 205.695312 173.734375 206.371094 173.523438 207.035156 C 173.3125 207.699219 173.046875 208.339844 172.722656 208.953125 C 172.398438 209.570312 172.023438 210.148438 171.59375 210.699219 C 171.164062 211.246094 170.691406 211.75 170.171875 212.214844 C 169.65625 212.675781 169.101562 213.089844 168.507812 213.453125 C 167.914062 213.816406 167.296875 214.125 166.648438 214.375 C 166 214.628906 165.335938 214.820312 164.65625 214.953125 L 150.570312 217.582031 L 184.730469 217.582031 C 195.84375 217.492188 206.667969 215.441406 216.042969 211.578125 C 216.296875 211.484375 216.542969 211.492188 216.789062 211.601562 C 217.035156 211.707031 217.207031 211.886719 217.308594 212.132812 C 217.410156 212.382812 217.410156 212.632812 217.3125 212.882812 C 217.214844 213.128906 217.042969 213.308594 216.796875 213.421875 C 212.375 215.21875 207.828125 216.605469 203.15625 217.582031 L 283.046875 217.582031 C 283.261719 217.273438 283.453125 216.949219 283.628906 216.613281 C 283.804688 216.28125 283.960938 215.9375 284.097656 215.585938 C 284.230469 215.234375 284.347656 214.875 284.441406 214.507812 C 284.535156 214.144531 284.605469 213.773438 284.65625 213.398438 C 284.707031 213.027344 284.734375 212.648438 284.742188 212.273438 C 284.75 211.894531 284.734375 211.519531 284.699219 211.144531 C 284.660156 210.765625 284.601562 210.394531 284.523438 210.027344 C 284.441406 209.65625 284.339844 209.292969 284.21875 208.9375 C 284.097656 208.582031 283.953125 208.230469 283.789062 207.890625 C 283.628906 207.550781 283.445312 207.222656 283.246094 206.902344 C 283.042969 206.582031 282.824219 206.277344 282.585938 205.984375 C 282.351562 205.691406 282.097656 205.410156 281.828125 205.148438 C 281.558594 204.882812 281.273438 204.636719 280.976562 204.40625 C 280.679688 204.175781 280.367188 203.964844 280.046875 203.769531 C 279.722656 203.574219 279.390625 203.402344 279.046875 203.246094 C 278.703125 203.089844 278.351562 202.957031 277.992188 202.839844 L 244.074219 192.003906 C 243.941406 191.964844 243.828125 191.898438 243.726562 191.804688 C 241.171875 195.929688 238.0625 199.578125 234.40625 202.753906 C 234.21875 202.917969 234 203 233.753906 203 C 233.546875 203 233.359375 202.941406 233.1875 202.824219 C 233.019531 202.703125 232.898438 202.546875 232.824219 202.355469 C 232.753906 202.160156 232.742188 201.960938 232.792969 201.761719 C 232.84375 201.558594 232.945312 201.390625 233.101562 201.253906 C 242.957031 192.625 248.164062 181.371094 248.164062 168.699219 C 248.15625 164.015625 247.527344 159.417969 246.28125 154.90625 C 245.039062 150.390625 243.222656 146.121094 240.832031 142.097656 L 133.394531 142.097656 C 131.007812 146.121094 129.1875 150.386719 127.945312 154.898438 C 126.699219 159.410156 126.074219 164.007812 126.0625 168.691406 C 125.996094 175.199219 127.285156 181.421875 129.933594 187.363281 C 129.972656 187.417969 130.007812 187.476562 130.035156 187.535156 Z M 133.667969 151.382812 C 133.667969 151.25 133.691406 151.125 133.742188 151.003906 C 133.792969 150.882812 133.863281 150.773438 133.957031 150.679688 C 134.050781 150.589844 134.15625 150.515625 134.277344 150.464844 C 134.398438 150.414062 134.523438 150.390625 134.65625 150.390625 L 225.152344 150.390625 C 225.285156 150.390625 225.410156 150.414062 225.53125 150.464844 C 225.652344 150.515625 225.761719 150.585938 225.855469 150.679688 C 225.949219 150.773438 226.019531 150.878906 226.070312 151 C 226.121094 151.125 226.144531 151.25 226.144531 151.382812 L 226.144531 163.488281 C 226.144531 164.074219 226.085938 164.652344 225.972656 165.226562 C 225.859375 165.800781 225.691406 166.355469 225.46875 166.898438 C 225.242188 167.4375 224.96875 167.949219 224.644531 168.4375 C 224.320312 168.921875 223.953125 169.371094 223.542969 169.785156 C 223.128906 170.199219 222.679688 170.570312 222.195312 170.894531 C 221.710938 171.21875 221.199219 171.496094 220.660156 171.71875 C 220.121094 171.945312 219.566406 172.113281 218.996094 172.230469 C 218.421875 172.34375 217.847656 172.402344 217.261719 172.402344 L 197.636719 172.402344 C 197.054688 172.402344 196.476562 172.34375 195.902344 172.230469 C 195.332031 172.113281 194.777344 171.945312 194.238281 171.71875 C 193.699219 171.496094 193.1875 171.21875 192.703125 170.894531 C 192.21875 170.570312 191.769531 170.199219 191.359375 169.785156 C 190.945312 169.371094 190.578125 168.921875 190.253906 168.4375 C 189.929688 167.949219 189.65625 167.4375 189.433594 166.898438 C 189.207031 166.355469 189.039062 165.800781 188.925781 165.226562 C 188.8125 164.652344 188.753906 164.074219 188.753906 163.488281 L 188.753906 159.738281 L 171.1875 159.738281 L 171.1875 163.488281 C 171.1875 164.074219 171.132812 164.65625 171.015625 165.230469 C 170.902344 165.804688 170.734375 166.363281 170.511719 166.902344 C 170.285156 167.445312 170.011719 167.960938 169.6875 168.445312 C 169.363281 168.933594 168.996094 169.386719 168.582031 169.800781 C 168.167969 170.214844 167.71875 170.585938 167.234375 170.910156 C 166.746094 171.234375 166.234375 171.511719 165.695312 171.734375 C 165.15625 171.960938 164.597656 172.128906 164.027344 172.246094 C 163.453125 172.359375 162.875 172.417969 162.289062 172.417969 L 142.566406 172.417969 C 141.984375 172.417969 141.40625 172.359375 140.832031 172.246094 C 140.257812 172.128906 139.703125 171.960938 139.164062 171.734375 C 138.621094 171.511719 138.109375 171.234375 137.625 170.910156 C 137.136719 170.585938 136.6875 170.214844 136.277344 169.800781 C 135.863281 169.386719 135.492188 168.933594 135.167969 168.445312 C 134.84375 167.960938 134.570312 167.445312 134.347656 166.902344 C 134.125 166.363281 133.953125 165.804688 133.839844 165.230469 C 133.726562 164.65625 133.667969 164.074219 133.667969 163.488281 Z M 133.667969 151.382812"/><path fill="#E6E7E8" d="M 225.152344 150.390625 C 225.285156 150.390625 225.410156 150.414062 225.53125 150.464844 C 225.652344 150.515625 225.761719 150.585938 225.855469 150.679688 C 225.949219 150.773438 226.019531 150.878906 226.070312 151 C 226.121094 151.125 226.144531 151.25 226.144531 151.382812 L 226.144531 163.488281 C 226.148438 165.300781 225.640625 166.957031 224.628906 168.460938 C 223.484375 186.726562 213.277344 207.988281 172.476562 209.371094 C 171.636719 210.824219 170.535156 212.039062 169.171875 213.011719 C 167.804688 213.988281 166.300781 214.632812 164.65625 214.953125 L 150.570312 217.582031 L 184.730469 217.582031 C 195.84375 217.492188 206.667969 215.441406 216.042969 211.578125 C 216.296875 211.484375 216.542969 211.492188 216.789062 211.601562 C 217.035156 211.707031 217.207031 211.886719 217.308594 212.132812 C 217.410156 212.382812 217.410156 212.632812 217.3125 212.882812 C 217.214844 213.128906 217.042969 213.308594 216.796875 213.421875 C 212.375 215.21875 207.828125 216.605469 203.15625 217.582031 L 233.722656 217.582031 L 242.800781 211.058594 C 242.800781 211.058594 246.601562 201.953125 250.019531 193.917969 L 244.0625 192.015625 C 243.933594 191.976562 243.816406 191.910156 243.714844 191.816406 C 241.160156 195.9375 238.054688 199.589844 234.394531 202.765625 C 234.207031 202.929688 233.988281 203.011719 233.742188 203.011719 C 233.535156 203.011719 233.347656 202.953125 233.175781 202.832031 C 233.007812 202.714844 232.886719 202.558594 232.8125 202.363281 C 232.742188 202.171875 232.730469 201.972656 232.78125 201.773438 C 232.832031 201.570312 232.933594 201.402344 233.089844 201.265625 C 242.945312 192.636719 248.15625 181.382812 248.15625 168.710938 C 248.148438 164.027344 247.519531 159.425781 246.277344 154.910156 C 245.035156 150.394531 243.21875 146.125 240.832031 142.097656 L 221 142.097656 C 221.929688 144.816406 222.667969 147.582031 223.222656 150.402344 Z M 225.152344 150.390625"/><path fill="#FFE6BC" d="M 142.566406 170.410156 L 162.289062 170.410156 C 162.742188 170.40625 163.191406 170.359375 163.632812 170.269531 C 164.078125 170.175781 164.507812 170.042969 164.925781 169.867188 C 165.34375 169.691406 165.742188 169.480469 166.117188 169.226562 C 166.492188 168.972656 166.839844 168.683594 167.160156 168.363281 C 167.480469 168.042969 167.765625 167.691406 168.015625 167.3125 C 168.269531 166.9375 168.480469 166.539062 168.65625 166.117188 C 168.828125 165.699219 168.960938 165.265625 169.050781 164.820312 C 169.140625 164.375 169.183594 163.925781 169.1875 163.472656 L 169.1875 158.742188 C 169.183594 158.589844 169.21875 158.445312 169.28125 158.308594 C 169.347656 158.171875 169.441406 158.058594 169.558594 157.964844 C 169.675781 157.871094 169.808594 157.804688 169.957031 157.773438 C 170.105469 157.742188 170.25 157.742188 170.398438 157.777344 C 170.472656 157.761719 170.546875 157.753906 170.621094 157.75 L 188.949219 157.75 C 189.089844 157.75 189.21875 157.777344 189.347656 157.832031 C 189.46875 157.777344 189.601562 157.75 189.734375 157.75 C 189.867188 157.75 189.996094 157.773438 190.117188 157.824219 C 190.238281 157.875 190.34375 157.945312 190.4375 158.039062 C 190.53125 158.132812 190.601562 158.238281 190.652344 158.363281 C 190.703125 158.484375 190.730469 158.609375 190.730469 158.742188 L 190.730469 163.488281 C 190.730469 163.941406 190.773438 164.394531 190.863281 164.839844 C 190.953125 165.285156 191.085938 165.714844 191.257812 166.136719 C 191.429688 166.554688 191.644531 166.953125 191.894531 167.332031 C 192.148438 167.707031 192.433594 168.058594 192.753906 168.378906 C 193.074219 168.699219 193.421875 168.988281 193.800781 169.238281 C 194.175781 169.492188 194.574219 169.707031 194.992188 169.878906 C 195.410156 170.054688 195.839844 170.1875 196.285156 170.273438 C 196.730469 170.363281 197.179688 170.410156 197.632812 170.410156 L 217.261719 170.410156 C 217.714844 170.410156 218.164062 170.363281 218.609375 170.277344 C 219.054688 170.1875 219.484375 170.054688 219.902344 169.882812 C 220.324219 169.707031 220.71875 169.496094 221.097656 169.242188 C 221.472656 168.988281 221.824219 168.703125 222.144531 168.382812 C 222.464844 168.058594 222.75 167.710938 223.003906 167.332031 C 223.253906 166.957031 223.46875 166.554688 223.640625 166.136719 C 223.816406 165.71875 223.945312 165.285156 224.035156 164.839844 C 224.125 164.394531 224.167969 163.941406 224.167969 163.488281 L 224.167969 152.378906 L 135.648438 152.378906 L 135.648438 163.472656 C 135.652344 163.925781 135.699219 164.378906 135.789062 164.824219 C 135.878906 165.269531 136.007812 165.703125 136.183594 166.125 C 136.359375 166.542969 136.570312 166.941406 136.824219 167.320312 C 137.078125 167.699219 137.363281 168.046875 137.683594 168.371094 C 138.003906 168.691406 138.355469 168.980469 138.730469 169.234375 C 139.109375 169.484375 139.503906 169.699219 139.925781 169.875 C 140.34375 170.050781 140.773438 170.183594 141.21875 170.273438 C 141.664062 170.363281 142.113281 170.40625 142.566406 170.410156 Z M 142.566406 170.410156"/><path fill="#FFE6BC" d="M 286.101562 208.300781 C 286.628906 209.828125 286.828125 211.398438 286.703125 213.007812 C 286.574219 214.621094 286.128906 216.136719 285.367188 217.5625 L 304.179688 217.5625 C 304.128906 217.421875 304.117188 217.277344 304.136719 217.128906 C 304.171875 216.753906 304.167969 216.382812 304.132812 216.007812 C 304.097656 215.636719 304.023438 215.269531 303.917969 214.910156 C 303.8125 214.550781 303.675781 214.203125 303.507812 213.871094 C 303.335938 213.539062 303.136719 213.222656 302.90625 212.925781 C 302.675781 212.632812 302.421875 212.359375 302.140625 212.113281 C 301.859375 211.863281 301.558594 211.644531 301.238281 211.457031 C 300.917969 211.265625 300.578125 211.105469 300.226562 210.980469 C 299.875 210.851562 299.515625 210.757812 299.148438 210.699219 C 298.84375 210.660156 298.539062 210.652344 298.234375 210.640625 C 297.679688 210.632812 297.128906 210.578125 296.582031 210.472656 C 295.992188 210.386719 295.460938 210.15625 294.992188 209.785156 C 294.523438 209.414062 294.175781 208.949219 293.949219 208.394531 C 293.582031 207.324219 293.949219 206.316406 294.265625 205.503906 C 294.421875 205.144531 294.535156 204.769531 294.605469 204.382812 C 294.800781 202.992188 293.308594 201.707031 291.84375 201.480469 C 289.894531 201.238281 288.003906 201.472656 286.171875 202.1875 C 286.023438 202.246094 285.871094 202.265625 285.714844 202.25 C 285.558594 202.234375 285.414062 202.183594 285.277344 202.097656 C 285.144531 202.015625 285.039062 201.902344 284.957031 201.765625 C 284.875 201.628906 284.832031 201.484375 284.820312 201.324219 C 284.785156 200.761719 284.65625 200.222656 284.4375 199.703125 C 284.21875 199.183594 283.917969 198.71875 283.539062 198.300781 C 283.160156 197.886719 282.722656 197.546875 282.226562 197.28125 C 281.730469 197.015625 281.203125 196.839844 280.648438 196.753906 C 280.09375 196.671875 279.539062 196.679688 278.988281 196.785156 C 278.433594 196.894531 277.914062 197.085938 277.429688 197.371094 C 276.945312 197.65625 276.519531 198.011719 276.15625 198.441406 C 275.792969 198.875 275.511719 199.351562 275.3125 199.878906 L 278.582031 200.921875 C 279.453125 201.195312 280.28125 201.566406 281.066406 202.039062 C 281.851562 202.507812 282.570312 203.0625 283.226562 203.707031 C 283.878906 204.347656 284.449219 205.054688 284.933594 205.832031 C 285.421875 206.609375 285.8125 207.429688 286.101562 208.300781 Z M 286.101562 208.300781"/><path fill="#D30F1E" d="M 240.207031 140.101562 L 225.46875 56.359375 L 207.117188 56.359375 L 221.855469 140.101562 Z M 240.207031 140.101562"/><path fill="#FFE6BC" d="M 66.441406 217.5625 L 112.941406 217.5625 C 112.039062 215.117188 109.011719 205.449219 114.011719 197.207031 C 117.097656 192.085938 122.996094 189.023438 127.765625 187.296875 C 126.574219 184.488281 125.683594 181.585938 125.09375 178.589844 C 124.734375 178.753906 124.398438 178.71875 124.085938 178.476562 C 122.363281 177.148438 120.382812 175.882812 118.714844 176.554688 C 117.355469 177.089844 116.65625 178.792969 115.96875 180.425781 L 115.875 180.664062 C 114.660156 183.570312 113.027344 185.097656 111.011719 185.199219 C 109.550781 185.273438 108.300781 184.515625 107.195312 183.84375 C 106.089844 183.175781 105.222656 182.65625 104.351562 182.855469 C 103.394531 183.066406 102.804688 184.230469 102.75 185.210938 C 102.664062 186.375 103.046875 187.550781 103.449219 188.804688 L 103.53125 189.0625 C 103.988281 190.492188 104.449219 192.152344 104.113281 193.8125 C 103.980469 194.460938 103.625 194.9375 103.042969 195.25 C 101.394531 196.207031 98.621094 195.324219 98.3125 195.222656 C 98 195.121094 97.71875 195.007812 97.417969 194.894531 C 96.351562 194.5 95.347656 194.125 94.476562 194.359375 C 93.316406 194.675781 92.675781 196.097656 92.652344 197.265625 C 92.625 198.730469 93.289062 200.25 93.871094 201.59375 C 93.976562 201.832031 93.988281 202.074219 93.898438 202.320312 C 93.8125 202.570312 93.65625 202.753906 93.421875 202.871094 C 91.644531 203.792969 89.597656 202.832031 88.273438 201.621094 C 87.28125 200.714844 86.242188 199.910156 85.410156 200.195312 C 84.886719 200.472656 84.460938 200.855469 84.132812 201.347656 C 83.503906 202.113281 82.78125 202.953125 81.589844 203.179688 C 80.074219 203.429688 78.957031 202.433594 78.066406 201.628906 C 77.449219 201.09375 76.875 200.558594 76.292969 200.46875 C 75.902344 200.414062 75.554688 200.515625 75.253906 200.769531 C 74.640625 201.277344 74.285156 201.929688 74.1875 202.722656 C 74.144531 203.828125 74.285156 204.90625 74.609375 205.964844 C 74.722656 206.453125 74.839844 206.933594 74.929688 207.414062 C 75.195312 208.847656 75.367188 211.480469 73.523438 213.0625 C 72.382812 214.046875 70.902344 214.230469 69.492188 214.324219 C 68.394531 214.402344 67.265625 214.480469 66.515625 215.042969 C 66.160156 215.328125 65.96875 215.703125 65.945312 216.160156 C 65.917969 216.359375 65.976562 216.527344 66.125 216.667969 C 66.394531 216.90625 66.5 217.207031 66.441406 217.5625 Z M 66.441406 217.5625"/><path fill="#C49A6C" d="M 184.734375 219.554688 L 59.144531 219.554688 L 59.144531 229.292969 L 315.605469 229.292969 L 315.605469 219.554688 Z M 184.734375 219.554688"/><path fill="#FFE6BC" d="M 176.898438 200.90625 L 176.636719 200.988281 L 177.707031 200.988281 C 177.65625 200.957031 177.605469 200.9375 177.558594 200.90625 C 177.335938 200.824219 177.117188 200.824219 176.898438 200.90625 Z M 176.898438 200.90625"/><path fill="#232323" d="M 180.9375 200.988281 L 185.34375 200.988281 C 189.378906 200.6875 193.542969 200.371094 197.386719 199.042969 C 201.578125 197.585938 204.757812 195.035156 206.328125 191.859375 C 208.097656 188.28125 207.472656 183.824219 204.878906 181.457031 C 202.53125 179.3125 199.003906 178.976562 196.15625 178.910156 C 195.621094 178.910156 195.039062 178.910156 194.480469 178.882812 C 191.632812 178.882812 188.695312 178.835938 185.933594 177.765625 C 184.71875 177.300781 183.644531 176.621094 182.710938 175.71875 C 181.773438 174.820312 181.046875 173.773438 180.53125 172.578125 C 180.015625 173.773438 179.289062 174.820312 178.351562 175.722656 C 177.414062 176.621094 176.339844 177.300781 175.125 177.765625 C 172.378906 178.835938 169.4375 178.835938 166.578125 178.882812 C 166.046875 178.882812 165.457031 178.882812 164.902344 178.910156 C 162.074219 178.976562 158.527344 179.324219 156.179688 181.460938 C 153.585938 183.808594 152.972656 188.28125 154.730469 191.859375 C 154.875 192.144531 155.039062 192.421875 155.207031 192.699219 L 160.640625 191.988281 C 159.453125 190.023438 158.898438 186.570312 160.515625 184.832031 C 160.945312 184.386719 161.441406 184.03125 161.996094 183.761719 C 162.554688 183.496094 163.140625 183.335938 163.753906 183.277344 C 164.371094 183.222656 164.976562 183.273438 165.570312 183.4375 C 166.167969 183.597656 166.71875 183.859375 167.21875 184.21875 C 168.4375 185.128906 169.246094 186.5625 169.617188 188.503906 C 171.210938 187.992188 172.839844 187.824219 174.5 188.007812 C 175.179688 188.097656 175.8125 188.316406 176.402344 188.667969 C 176.992188 189.015625 177.488281 189.46875 177.894531 190.023438 C 178.53125 190.875 178.75 191.828125 178.546875 192.875 C 178.496094 193.085938 178.433594 193.292969 178.363281 193.5 C 178.285156 193.699219 178.238281 193.90625 178.222656 194.121094 C 178.222656 194.339844 178.597656 194.625 179.0625 194.8125 C 179.234375 194.878906 179.410156 194.9375 179.597656 195 C 180.234375 195.175781 180.8125 195.464844 181.339844 195.867188 C 181.640625 196.132812 181.886719 196.441406 182.074219 196.800781 C 182.261719 197.15625 182.378906 197.535156 182.425781 197.9375 C 182.472656 198.339844 182.445312 198.734375 182.34375 199.125 C 182.242188 199.515625 182.074219 199.878906 181.839844 200.207031 C 181.59375 200.527344 181.292969 200.789062 180.9375 200.988281 Z M 180.9375 200.988281"/><path fill="#FFE6BC" d="M 180.25 198.988281 C 180.417969 198.734375 180.480469 198.453125 180.445312 198.152344 C 180.410156 197.847656 180.285156 197.589844 180.0625 197.382812 C 179.722656 197.140625 179.351562 196.960938 178.949219 196.847656 C 178.742188 196.777344 178.539062 196.707031 178.335938 196.625 C 177.128906 196.144531 176.371094 195.296875 176.257812 194.308594 C 176.226562 193.804688 176.300781 193.320312 176.484375 192.851562 C 176.535156 192.714844 176.574219 192.574219 176.605469 192.433594 C 176.6875 191.957031 176.582031 191.527344 176.285156 191.148438 C 175.777344 190.464844 175.105469 190.066406 174.265625 189.945312 C 172.515625 189.765625 170.835938 190.035156 169.230469 190.753906 C 169.082031 190.824219 168.929688 190.851562 168.765625 190.847656 C 168.605469 190.839844 168.457031 190.792969 168.316406 190.714844 C 168.175781 190.632812 168.0625 190.523438 167.976562 190.386719 C 167.890625 190.25 167.839844 190.101562 167.824219 189.941406 C 167.699219 188.570312 167.289062 186.726562 166.039062 185.804688 C 165.730469 185.59375 165.398438 185.441406 165.039062 185.347656 C 164.675781 185.253906 164.3125 185.222656 163.941406 185.257812 C 163.570312 185.292969 163.214844 185.386719 162.878906 185.542969 C 162.539062 185.703125 162.238281 185.914062 161.972656 186.175781 C 161.054688 187.167969 161.585938 190.148438 162.621094 191.351562 C 162.753906 191.503906 162.832031 191.683594 162.851562 191.886719 C 163.464844 191.90625 164.078125 191.976562 164.679688 192.097656 C 165.285156 192.214844 165.878906 192.382812 166.457031 192.59375 C 167.035156 192.808594 167.59375 193.0625 168.128906 193.367188 C 168.667969 193.667969 169.179688 194.011719 169.664062 194.394531 C 170.144531 194.777344 170.597656 195.195312 171.011719 195.648438 C 171.429688 196.105469 171.808594 196.589844 172.152344 197.105469 C 172.492188 197.617188 172.789062 198.15625 173.042969 198.71875 C 173.300781 199.28125 173.507812 199.859375 173.671875 200.457031 C 174.484375 199.738281 175.410156 199.242188 176.457031 198.96875 C 177.230469 198.734375 177.964844 198.832031 178.652344 199.257812 C 178.914062 199.414062 179.199219 199.464844 179.5 199.414062 C 179.800781 199.367188 180.050781 199.222656 180.25 198.988281 Z M 180.25 198.988281"/><path fill="#FF7D87" d="M 175.742188 188.316406 C 176.609375 188.675781 177.324219 189.238281 177.878906 190 C 178.515625 190.855469 178.734375 191.808594 178.527344 192.855469 C 178.480469 193.066406 178.417969 193.273438 178.347656 193.476562 C 178.269531 193.675781 178.222656 193.882812 178.207031 194.097656 C 178.207031 194.316406 178.582031 194.601562 179.046875 194.789062 C 179.21875 194.859375 179.394531 194.917969 179.582031 194.976562 C 180.214844 195.15625 180.796875 195.445312 181.324219 195.84375 C 181.625 196.109375 181.871094 196.421875 182.058594 196.777344 C 182.246094 197.136719 182.363281 197.515625 182.410156 197.917969 C 182.457031 198.316406 182.429688 198.714844 182.328125 199.105469 C 182.226562 199.496094 182.058594 199.855469 181.824219 200.183594 C 181.574219 200.515625 181.269531 200.785156 180.90625 200.988281 L 185.3125 200.988281 C 189.347656 200.6875 193.511719 200.371094 197.355469 199.042969 C 201.546875 197.585938 204.726562 195.035156 206.296875 191.859375 C 206.925781 190.585938 207.257812 189.242188 207.292969 187.824219 C 207.328125 186.402344 207.058594 185.042969 206.492188 183.742188 C 202.828125 182.472656 199.054688 181.84375 195.175781 181.863281 C 187.347656 181.863281 180.320312 184.378906 175.742188 188.316406 Z M 175.742188 188.316406"/><path fill="#FFF" d="M 160.808594 56.359375 L 146.90625 140.101562 L 134.425781 140.101562 L 149.164062 56.359375 Z M 160.808594 56.359375"/><path fill="#FFF" d="M 193.929688 56.359375 L 207.828125 140.101562 L 220.308594 140.101562 L 205.570312 56.359375 Z M 193.929688 56.359375"/><path fill="#E6E7E8" d="M 217.445312 56.359375 L 231.34375 140.101562 L 239.859375 140.101562 L 225.121094 56.359375 Z M 217.445312 56.359375"/><path fill="#FFF" d="M 172.667969 56.359375 L 166.238281 140.101562 L 188.03125 140.101562 L 181.601562 56.359375 Z M 172.667969 56.359375"/><path fill="#6D6E71" d="M 209.863281 146.210938 C 205.847656 146.8125 202.121094 148.207031 198.695312 150.390625 L 225.152344 150.390625 C 225.285156 150.390625 225.410156 150.414062 225.53125 150.464844 C 225.652344 150.515625 225.761719 150.585938 225.855469 150.679688 C 225.949219 150.773438 226.019531 150.878906 226.070312 151 C 226.121094 151.125 226.144531 151.25 226.144531 151.382812 L 226.144531 163.488281 C 226.144531 164.074219 226.085938 164.652344 225.972656 165.226562 C 225.859375 165.800781 225.691406 166.355469 225.46875 166.898438 C 225.242188 167.4375 224.96875 167.949219 224.644531 168.4375 C 224.320312 168.921875 223.953125 169.371094 223.542969 169.785156 C 223.128906 170.199219 222.679688 170.570312 222.195312 170.894531 C 221.710938 171.21875 221.199219 171.496094 220.660156 171.71875 C 220.121094 171.945312 219.566406 172.113281 218.996094 172.230469 C 218.421875 172.34375 217.847656 172.402344 217.261719 172.402344 L 197.636719 172.402344 C 195.652344 172.40625 193.875 171.804688 192.292969 170.601562 C 193.003906 171.867188 193.929688 172.949219 195.066406 173.847656 C 197.648438 175.867188 200.941406 176.617188 204.148438 177.308594 L 220.800781 180.914062 C 224.28125 181.664062 227.917969 182.421875 231.363281 181.519531 C 237.65625 179.875 241.488281 172.878906 241.199219 166.367188 C 240.953125 160.789062 237.816406 152.320312 232.824219 149.195312 C 226.589844 145.28125 216.886719 145.027344 209.863281 146.210938 Z M 209.863281 146.210938"/><path fill="#58595B" d="M 223.238281 150.390625 L 225.152344 150.390625 C 225.285156 150.390625 225.410156 150.414062 225.53125 150.464844 C 225.652344 150.515625 225.761719 150.585938 225.855469 150.679688 C 225.949219 150.773438 226.019531 150.878906 226.070312 151 C 226.121094 151.125 226.144531 151.25 226.144531 151.382812 L 226.144531 163.488281 C 226.144531 163.765625 226.144531 164.023438 226.101562 164.308594 C 226.101562 164.386719 226.101562 164.46875 226.078125 164.550781 C 226.078125 164.746094 226.023438 164.941406 225.984375 165.132812 C 225.984375 165.214844 225.960938 165.292969 225.941406 165.367188 C 225.890625 165.628906 225.824219 165.882812 225.746094 166.136719 C 225.664062 166.375 225.578125 166.613281 225.484375 166.847656 L 225.386719 167.066406 C 225.3125 167.238281 225.226562 167.410156 225.140625 167.574219 C 225.105469 167.644531 225.074219 167.714844 225.03125 167.789062 C 224.90625 168.011719 224.777344 168.230469 224.640625 168.4375 C 224.398438 172.808594 223.570312 177.0625 222.160156 181.203125 C 225.234375 181.839844 228.390625 182.3125 231.402344 181.53125 C 237.695312 179.886719 241.523438 172.890625 241.238281 166.375 C 240.992188 160.800781 237.855469 152.328125 232.859375 149.207031 C 229.859375 147.332031 226.070312 146.304688 222.175781 145.863281 C 222.503906 147.113281 222.875 148.640625 223.238281 150.390625 Z M 223.238281 150.390625"/><path fill="#6D6E71" d="M 157.722656 177.308594 C 160.925781 176.617188 164.246094 175.867188 166.804688 173.847656 C 170.183594 171.203125 171.730469 166.59375 171.167969 162.324219 L 171.167969 163.472656 C 171.167969 164.058594 171.109375 164.640625 170.996094 165.214844 C 170.882812 165.789062 170.710938 166.347656 170.488281 166.886719 C 170.265625 167.429688 169.992188 167.945312 169.667969 168.429688 C 169.34375 168.917969 168.972656 169.367188 168.558594 169.785156 C 168.148438 170.199219 167.699219 170.566406 167.210938 170.894531 C 166.726562 171.21875 166.214844 171.496094 165.671875 171.71875 C 165.132812 171.945312 164.578125 172.113281 164.003906 172.230469 C 163.429688 172.34375 162.851562 172.402344 162.269531 172.402344 L 142.566406 172.402344 C 141.984375 172.402344 141.40625 172.34375 140.832031 172.230469 C 140.257812 172.113281 139.703125 171.945312 139.164062 171.71875 C 138.621094 171.496094 138.109375 171.21875 137.625 170.894531 C 137.136719 170.566406 136.6875 170.199219 136.277344 169.785156 C 135.863281 169.367188 135.492188 168.917969 135.167969 168.429688 C 134.84375 167.945312 134.570312 167.429688 134.347656 166.886719 C 134.125 166.347656 133.953125 165.789062 133.839844 165.214844 C 133.726562 164.640625 133.667969 164.058594 133.667969 163.472656 L 133.667969 151.382812 C 133.667969 151.25 133.691406 151.125 133.742188 151.003906 C 133.792969 150.882812 133.863281 150.773438 133.957031 150.679688 C 134.050781 150.589844 134.15625 150.515625 134.277344 150.464844 C 134.398438 150.414062 134.523438 150.390625 134.65625 150.390625 L 163.207031 150.390625 C 159.78125 148.203125 156.0625 146.8125 152.042969 146.210938 C 145.425781 145.097656 136.429688 145.257812 130.167969 148.558594 C 127.457031 154.988281 126.09375 161.695312 126.082031 168.679688 C 126.070312 172.578125 126.535156 176.421875 127.472656 180.207031 C 128.417969 180.796875 129.425781 181.234375 130.5 181.519531 C 133.953125 182.421875 137.589844 181.664062 141.070312 180.914062 Z M 157.722656 177.308594"/><path fill="#6D6E71" d="M 277.992188 202.820312 L 244.074219 191.980469 C 243.941406 191.941406 243.828125 191.875 243.726562 191.785156 C 241.171875 195.90625 238.0625 199.558594 234.40625 202.734375 C 234.21875 202.894531 234 202.976562 233.753906 202.980469 C 233.453125 202.980469 233.203125 202.863281 233.003906 202.636719 C 232.871094 202.484375 232.792969 202.304688 232.769531 202.101562 C 228.351562 206.582031 223.230469 210 217.402344 212.359375 C 217.425781 212.578125 217.382812 212.78125 217.269531 212.96875 C 217.15625 213.160156 217 213.292969 216.796875 213.378906 C 214.726562 214.222656 212.589844 214.984375 210.386719 215.660156 C 209.566406 216.195312 208.746094 216.699219 207.910156 217.179688 C 207.714844 217.292969 207.519531 217.417969 207.328125 217.539062 L 283.046875 217.539062 C 283.261719 217.230469 283.453125 216.90625 283.628906 216.574219 C 283.804688 216.238281 283.960938 215.894531 284.097656 215.542969 C 284.230469 215.191406 284.347656 214.832031 284.441406 214.464844 C 284.535156 214.101562 284.605469 213.730469 284.65625 213.355469 C 284.707031 212.984375 284.734375 212.605469 284.742188 212.230469 C 284.75 211.851562 284.734375 211.476562 284.699219 211.101562 C 284.660156 210.722656 284.601562 210.351562 284.523438 209.984375 C 284.441406 209.613281 284.339844 209.25 284.21875 208.894531 C 284.097656 208.539062 283.953125 208.1875 283.789062 207.847656 C 283.628906 207.507812 283.445312 207.179688 283.246094 206.859375 C 283.042969 206.539062 282.824219 206.234375 282.585938 205.941406 C 282.351562 205.648438 282.097656 205.367188 281.828125 205.105469 C 281.558594 204.839844 281.273438 204.59375 280.976562 204.363281 C 280.679688 204.132812 280.367188 203.921875 280.046875 203.726562 C 279.722656 203.53125 279.390625 203.359375 279.046875 203.203125 C 278.703125 203.046875 278.351562 202.914062 277.992188 202.796875 Z M 277.992188 202.820312"/><path fill="#E6E7E8" d="M 148.226562 132.171875 L 146.90625 140.101562 L 134.433594 140.101562 L 135.820312 132.226562 C 139.527344 132.171875 143.730469 132.160156 148.226562 132.171875 Z M 148.226562 132.171875"/><path fill="#E6E7E8" d="M 220.308594 140.101562 L 207.828125 140.101562 L 206.703125 133.3125 L 206.828125 133.3125 C 207.238281 133.324219 207.644531 133.292969 208.042969 133.214844 C 208.445312 133.136719 208.832031 133.019531 209.207031 132.855469 C 209.582031 132.691406 209.9375 132.492188 210.265625 132.25 C 210.597656 132.011719 210.898438 131.738281 211.171875 131.429688 C 211.441406 131.125 211.675781 130.792969 211.875 130.433594 C 212.074219 130.074219 212.230469 129.699219 212.347656 129.308594 C 212.460938 128.914062 212.535156 128.515625 212.5625 128.105469 C 212.589844 127.695312 212.574219 127.289062 212.515625 126.882812 L 202.191406 56.386719 L 205.574219 56.386719 Z M 220.308594 140.101562"/><path fill="#E6E7E8" d="M 188.03125 140.101562 L 166.230469 140.101562 L 166.832031 132.371094 C 173.925781 132.488281 181.023438 132.644531 187.472656 132.804688 Z M 188.03125 140.101562"/><path fill="#E6E7E8" d="M 148.226562 132.171875 L 146.90625 140.101562 L 134.433594 140.101562 L 135.808594 132.226562 C 139.527344 132.171875 143.730469 132.160156 148.226562 132.171875 Z M 148.226562 132.171875"/><path fill="#58595B" d="M 284.035156 215.660156 C 277.738281 215.382812 271.601562 214.234375 265.628906 212.214844 C 261.472656 210.808594 257.320312 208.894531 254.457031 205.566406 C 251.867188 202.5625 250.59375 198.167969 251.90625 194.488281 L 244.050781 191.980469 C 243.921875 191.941406 243.804688 191.875 243.703125 191.785156 C 241.148438 195.90625 238.042969 199.558594 234.382812 202.734375 C 234.195312 202.894531 233.980469 202.976562 233.730469 202.980469 C 233.429688 202.980469 233.179688 202.863281 232.984375 202.636719 C 232.847656 202.484375 232.769531 202.304688 232.75 202.101562 C 228.328125 206.582031 223.207031 210 217.378906 212.359375 C 217.402344 212.578125 217.359375 212.78125 217.246094 212.96875 C 217.136719 213.160156 216.980469 213.292969 216.777344 213.378906 C 214.703125 214.222656 212.566406 214.984375 210.367188 215.660156 C 209.542969 216.195312 208.726562 216.699219 207.886719 217.179688 C 207.695312 217.292969 207.496094 217.417969 207.304688 217.539062 L 283.046875 217.539062 C 283.445312 216.949219 283.773438 216.324219 284.035156 215.660156 Z M 284.035156 215.660156"/><path fill="#E2C191" d="M 224.164062 163.488281 L 224.164062 152.378906 L 219.835938 152.378906 L 219.835938 163.890625 L 198.257812 167.277344 C 198.257812 167.277344 193.117188 168.261719 190.734375 163.527344 C 190.734375 163.980469 190.78125 164.429688 190.871094 164.875 C 190.957031 165.320312 191.089844 165.753906 191.261719 166.171875 C 191.4375 166.59375 191.648438 166.992188 191.902344 167.367188 C 192.152344 167.746094 192.4375 168.097656 192.757812 168.417969 C 193.078125 168.738281 193.429688 169.023438 193.804688 169.277344 C 194.179688 169.53125 194.578125 169.742188 194.996094 169.917969 C 195.414062 170.089844 195.847656 170.222656 196.289062 170.3125 C 196.734375 170.402344 197.183594 170.445312 197.636719 170.449219 L 217.261719 170.449219 C 217.71875 170.445312 218.167969 170.402344 218.613281 170.3125 C 219.058594 170.222656 219.492188 170.089844 219.910156 169.914062 C 220.332031 169.738281 220.730469 169.523438 221.105469 169.269531 C 221.484375 169.015625 221.832031 168.726562 222.152344 168.402344 C 222.472656 168.082031 222.757812 167.730469 223.011719 167.347656 C 223.261719 166.96875 223.472656 166.570312 223.648438 166.148438 C 223.820312 165.726562 223.949219 165.289062 224.035156 164.84375 C 224.125 164.394531 224.164062 163.945312 224.164062 163.488281 Z M 224.164062 163.488281"/><path fill="#E2C191" d="M 127.710938 187.183594 C 127.332031 187.101562 126.949219 187.054688 126.5625 187.042969 C 126.175781 187.269531 125.765625 187.4375 125.332031 187.546875 C 124.898438 187.65625 124.457031 187.703125 124.011719 187.6875 C 123.5625 187.671875 123.125 187.597656 122.699219 187.457031 C 122.273438 187.320312 121.875 187.128906 121.503906 186.878906 C 120.035156 185.859375 118.648438 184.199219 118.96875 182.441406 C 117.898438 184.261719 115.339844 185.191406 113.535156 184.101562 C 114.113281 184.863281 115.210938 185.457031 115.46875 186.367188 C 115.667969 187.121094 115.679688 187.875 115.503906 188.636719 C 115.328125 189.394531 114.984375 190.066406 114.476562 190.652344 C 113.460938 191.792969 112.097656 192.707031 110.566406 192.722656 L 109.988281 192.722656 C 111.898438 194.105469 112 197.359375 110.179688 198.859375 C 110.9375 200.550781 111.375 202.320312 111.496094 204.167969 C 111.875 201.664062 112.714844 199.320312 114.011719 197.144531 C 117.097656 192.023438 122.996094 188.964844 127.765625 187.234375 C 127.75 187.214844 127.730469 187.199219 127.710938 187.183594 Z M 127.710938 187.183594"/><path fill="#E2C191" d="M 112.941406 217.5625 C 111.761719 214.296875 111.183594 210.925781 111.207031 207.453125 C 111.101562 207.898438 110.898438 208.296875 110.601562 208.648438 C 110.304688 208.996094 109.945312 209.257812 109.523438 209.433594 C 108.183594 209.902344 106.6875 208.898438 106.078125 207.628906 C 105.46875 206.359375 105.542969 204.855469 105.574219 203.429688 C 105.261719 203.757812 104.890625 203.988281 104.460938 204.125 C 104.03125 204.261719 103.59375 204.285156 103.148438 204.195312 C 102.273438 204.011719 101.453125 203.679688 100.6875 203.210938 C 99.554688 202.59375 97.914062 202.675781 96.777344 202.074219 C 97.953125 203.324219 99.089844 204.8125 99.105469 206.527344 C 99.121094 208.242188 97.398438 209.992188 95.804688 209.371094 C 95.175781 209.054688 94.652344 208.605469 94.238281 208.03125 C 93.832031 207.453125 93.296875 207.039062 92.636719 206.785156 C 91.96875 206.605469 91.113281 206.960938 91.035156 207.644531 C 91.824219 208.339844 92.308594 209.207031 92.488281 210.246094 C 92.523438 210.496094 92.519531 210.746094 92.46875 210.996094 C 92.421875 211.246094 92.335938 211.480469 92.207031 211.699219 C 92.082031 211.921875 91.921875 212.113281 91.730469 212.28125 C 91.539062 212.445312 91.324219 212.578125 91.089844 212.671875 C 90.121094 212.964844 88.417969 212.238281 88.613281 211.246094 C 88.453125 212.015625 88.167969 212.738281 87.761719 213.410156 C 87.351562 214.085938 86.84375 214.667969 86.234375 215.167969 C 85.625 215.664062 84.949219 216.042969 84.210938 216.308594 C 83.46875 216.570312 82.707031 216.703125 81.921875 216.703125 C 81.136719 216.664062 80.378906 216.492188 79.652344 216.191406 C 78.925781 215.890625 78.269531 215.472656 77.6875 214.945312 C 77.101562 214.414062 76.625 213.804688 76.25 213.109375 C 75.878906 212.414062 75.632812 211.675781 75.511719 210.898438 L 74.855469 210.933594 C 74.625 211.773438 74.183594 212.476562 73.53125 213.046875 C 72.386719 214.03125 70.90625 214.214844 69.496094 214.308594 C 68.402344 214.386719 67.269531 214.464844 66.519531 215.027344 C 66.164062 215.3125 65.972656 215.683594 65.949219 216.140625 C 65.921875 216.34375 65.984375 216.511719 66.132812 216.652344 C 66.410156 216.894531 66.523438 217.195312 66.460938 217.5625 Z M 112.941406 217.5625"/><path fill="#E2C191" d="M 281.316406 201.988281 C 281.53125 202.386719 281.78125 202.761719 282.074219 203.105469 C 282.367188 203.449219 282.691406 203.761719 283.050781 204.035156 C 283.410156 204.308594 283.792969 204.542969 284.203125 204.738281 C 284.609375 204.929688 285.035156 205.078125 285.476562 205.179688 C 285.914062 205.28125 286.363281 205.332031 286.8125 205.339844 C 287.265625 205.34375 287.710938 205.300781 288.152344 205.210938 C 288.597656 205.121094 289.023438 204.984375 289.4375 204.804688 C 289.851562 204.621094 290.242188 204.398438 290.605469 204.132812 C 290.609375 204.515625 290.65625 204.890625 290.746094 205.261719 C 290.835938 205.636719 290.964844 205.992188 291.132812 206.335938 C 291.300781 206.679688 291.503906 206.996094 291.746094 207.292969 C 291.984375 207.59375 292.257812 207.859375 292.554688 208.09375 C 292.855469 208.332031 293.175781 208.53125 293.523438 208.695312 C 293.867188 208.859375 294.226562 208.984375 294.597656 209.066406 C 294.96875 209.148438 295.34375 209.191406 295.726562 209.191406 C 296.109375 209.1875 296.484375 209.144531 296.855469 209.058594 C 299.035156 208.5625 301.039062 210.203125 302.679688 211.710938 C 303.503906 212.484375 304.148438 213.386719 304.609375 214.417969 C 305.074219 215.449219 305.320312 216.53125 305.347656 217.664062 C 298.464844 218.90625 291.585938 218.855469 284.71875 217.507812 C 285.789062 214.828125 286.734375 211.792969 285.675781 209.125 C 285.136719 207.9375 284.421875 206.867188 283.539062 205.910156 C 282.589844 204.8125 282.246094 203.09375 281.316406 201.988281 Z M 281.316406 201.988281"/><path fill="#58595B" d="M 164.289062 212.976562 C 164.882812 212.863281 165.464844 212.691406 166.03125 212.46875 C 166.59375 212.242188 167.132812 211.96875 167.644531 211.640625 C 168.160156 211.316406 168.636719 210.941406 169.078125 210.523438 C 169.519531 210.109375 169.917969 209.652344 170.277344 209.160156 C 170.632812 208.664062 170.9375 208.144531 171.195312 207.589844 C 171.453125 207.039062 171.65625 206.46875 171.808594 205.878906 C 171.957031 205.289062 172.050781 204.6875 172.085938 204.082031 C 172.121094 203.472656 172.101562 202.867188 172.023438 202.261719 C 172.558594 210.652344 139.179688 213.425781 139.179688 213.425781 L 113.832031 213.425781 C 114.113281 214.769531 114.5 216.085938 114.988281 217.367188 C 115.015625 217.433594 115.039062 217.5 115.050781 217.566406 L 139.738281 217.566406 Z M 164.289062 212.976562"/><path fill="#939598" d="M 130.835938 193.183594 C 130.003906 191.859375 129.25 190.492188 128.566406 189.085938 C 124.085938 190.691406 118.503906 193.53125 115.675781 198.191406 C 113.101562 202.476562 112.941406 207.296875 113.417969 211.011719 C 113.417969 211.011719 117.621094 193.773438 130.835938 193.183594 Z M 130.835938 193.183594"/><path fill="#A97C50" d="M 59.117188 226.203125 L 315.578125 226.203125 L 315.578125 229.292969 L 59.117188 229.292969 Z M 59.117188 226.203125"/><path fill="#FFDEBD" d="M 315.578125 219.554688 L 59.144531 219.554688 L 59.144531 221.617188 L 315.605469 221.617188 Z M 315.578125 219.554688"/><path fill="#232323" d="M 204.101562 180.261719 C 203.464844 179.136719 201.472656 179.820312 200.542969 180.105469 C 197.871094 180.980469 195.457031 182.316406 193.300781 184.117188 C 192.105469 185.035156 191.070312 186.105469 190.195312 187.332031 C 189.265625 188.566406 188.65625 189.941406 188.375 191.460938 C 188.34375 191.730469 188.699219 191.746094 188.824219 191.582031 C 189.703125 190.414062 190.71875 189.375 191.867188 188.46875 C 192.9375 187.628906 193.90625 186.722656 195.003906 185.945312 C 197.226562 184.464844 199.582031 183.226562 202.058594 182.234375 C 202.839844 181.882812 204.847656 181.578125 204.101562 180.261719 Z M 204.101562 180.261719"/><path fill="#00AEEF" d="M 194.203125 155.050781 L 220.691406 155.050781 L 220.691406 157.355469 C 220.691406 158.039062 220.625 158.714844 220.492188 159.382812 C 220.359375 160.050781 220.160156 160.703125 219.902344 161.332031 C 219.640625 161.960938 219.320312 162.5625 218.941406 163.128906 C 218.5625 163.695312 218.132812 164.21875 217.652344 164.703125 C 217.167969 165.183594 216.644531 165.613281 216.078125 165.992188 C 215.511719 166.371094 214.914062 166.691406 214.285156 166.949219 C 213.65625 167.210938 213.007812 167.40625 212.339844 167.539062 C 211.671875 167.671875 211 167.738281 210.316406 167.738281 L 204.558594 167.738281 C 203.878906 167.738281 203.207031 167.671875 202.539062 167.535156 C 201.871094 167.402344 201.222656 167.207031 200.597656 166.945312 C 199.96875 166.683594 199.371094 166.363281 198.804688 165.984375 C 198.238281 165.605469 197.714844 165.175781 197.234375 164.695312 C 196.753906 164.210938 196.324219 163.6875 195.949219 163.121094 C 195.570312 162.554688 195.25 161.953125 194.992188 161.324219 C 194.730469 160.695312 194.535156 160.042969 194.402344 159.375 C 194.269531 158.707031 194.203125 158.03125 194.203125 157.347656 L 194.203125 155.046875 Z M 194.203125 155.050781"/><path fill="#ED1C24" d="M 139.179688 155.050781 L 165.671875 155.050781 L 165.671875 157.355469 C 165.671875 158.039062 165.605469 158.714844 165.472656 159.382812 C 165.335938 160.050781 165.140625 160.703125 164.878906 161.332031 C 164.617188 161.960938 164.300781 162.5625 163.921875 163.128906 C 163.542969 163.695312 163.113281 164.21875 162.628906 164.703125 C 162.148438 165.183594 161.625 165.613281 161.058594 165.992188 C 160.492188 166.371094 159.894531 166.691406 159.265625 166.949219 C 158.636719 167.210938 157.988281 167.40625 157.320312 167.539062 C 156.652344 167.671875 155.976562 167.738281 155.296875 167.738281 L 149.539062 167.738281 C 148.859375 167.738281 148.183594 167.671875 147.519531 167.535156 C 146.851562 167.402344 146.203125 167.207031 145.574219 166.945312 C 144.945312 166.683594 144.351562 166.363281 143.785156 165.984375 C 143.21875 165.605469 142.695312 165.175781 142.214844 164.695312 C 141.734375 164.210938 141.304688 163.6875 140.925781 163.121094 C 140.546875 162.554688 140.230469 161.953125 139.96875 161.324219 C 139.710938 160.695312 139.511719 160.042969 139.378906 159.375 C 139.246094 158.707031 139.179688 158.03125 139.179688 157.347656 L 139.179688 155.046875 Z M 139.179688 155.050781"/><path fill="#232323" d="M 142.566406 173.0625 L 162.289062 173.0625 C 162.917969 173.0625 163.539062 173 164.15625 172.875 C 164.769531 172.753906 165.367188 172.570312 165.949219 172.332031 C 166.527344 172.089844 167.078125 171.792969 167.601562 171.445312 C 168.125 171.09375 168.605469 170.695312 169.050781 170.25 C 169.496094 169.804688 169.890625 169.324219 170.242188 168.800781 C 170.589844 168.277344 170.886719 167.722656 171.125 167.140625 C 171.367188 166.558594 171.546875 165.960938 171.671875 165.34375 C 171.792969 164.726562 171.855469 164.101562 171.855469 163.472656 L 171.855469 160.402344 L 188.097656 160.402344 L 188.097656 163.488281 C 188.097656 164.117188 188.160156 164.738281 188.28125 165.355469 C 188.402344 165.972656 188.585938 166.570312 188.824219 167.148438 C 189.066406 167.730469 189.359375 168.28125 189.707031 168.804688 C 190.054688 169.328125 190.453125 169.808594 190.894531 170.253906 C 191.339844 170.699219 191.820312 171.09375 192.339844 171.445312 C 192.863281 171.792969 193.410156 172.089844 193.992188 172.328125 C 194.570312 172.570312 195.164062 172.753906 195.78125 172.875 C 196.394531 173 197.015625 173.0625 197.640625 173.0625 L 217.261719 173.0625 C 217.890625 173.0625 218.511719 173 219.125 172.875 C 219.738281 172.753906 220.335938 172.570312 220.914062 172.332031 C 221.496094 172.089844 222.042969 171.796875 222.566406 171.445312 C 223.085938 171.097656 223.570312 170.699219 224.011719 170.257812 C 224.457031 169.8125 224.851562 169.328125 225.199219 168.804688 C 225.550781 168.285156 225.84375 167.730469 226.082031 167.152344 C 226.324219 166.570312 226.503906 165.972656 226.628906 165.355469 C 226.75 164.738281 226.8125 164.117188 226.8125 163.488281 L 226.8125 151.382812 C 226.8125 151.160156 226.773438 150.949219 226.6875 150.746094 C 226.605469 150.542969 226.484375 150.363281 226.328125 150.210938 C 226.171875 150.054688 225.992188 149.933594 225.792969 149.851562 C 225.589844 149.765625 225.378906 149.726562 225.15625 149.726562 L 134.65625 149.726562 C 134.4375 149.726562 134.226562 149.769531 134.023438 149.851562 C 133.824219 149.9375 133.644531 150.054688 133.488281 150.210938 C 133.335938 150.367188 133.214844 150.546875 133.132812 150.75 C 133.046875 150.953125 133.003906 151.164062 133.003906 151.382812 L 133.003906 163.472656 C 133.007812 164.101562 133.066406 164.726562 133.191406 165.34375 C 133.3125 165.960938 133.496094 166.558594 133.738281 167.140625 C 133.976562 167.722656 134.273438 168.273438 134.621094 168.796875 C 134.96875 169.320312 135.367188 169.804688 135.808594 170.25 C 136.253906 170.695312 136.734375 171.09375 137.257812 171.441406 C 137.78125 171.792969 138.332031 172.085938 138.910156 172.328125 C 139.488281 172.570312 140.085938 172.753906 140.703125 172.875 C 141.320312 173 141.941406 173.0625 142.566406 173.0625 Z M 136.3125 153.042969 L 223.5 153.042969 L 223.5 163.488281 C 223.5 163.898438 223.460938 164.304688 223.378906 164.707031 C 223.300781 165.109375 223.179688 165.503906 223.023438 165.882812 C 222.867188 166.261719 222.675781 166.621094 222.445312 166.960938 C 222.21875 167.304688 221.960938 167.621094 221.671875 167.910156 C 221.382812 168.199219 221.066406 168.460938 220.726562 168.6875 C 220.386719 168.917969 220.027344 169.109375 219.648438 169.265625 C 219.269531 169.425781 218.878906 169.542969 218.480469 169.625 C 218.078125 169.703125 217.671875 169.746094 217.261719 169.746094 L 197.636719 169.746094 C 197.226562 169.746094 196.820312 169.703125 196.417969 169.625 C 196.019531 169.542969 195.628906 169.425781 195.25 169.269531 C 194.871094 169.109375 194.511719 168.917969 194.171875 168.6875 C 193.832031 168.460938 193.515625 168.203125 193.226562 167.910156 C 192.9375 167.621094 192.679688 167.304688 192.449219 166.964844 C 192.222656 166.621094 192.03125 166.261719 191.875 165.882812 C 191.71875 165.503906 191.597656 165.113281 191.519531 164.707031 C 191.4375 164.304688 191.398438 163.898438 191.398438 163.488281 L 191.398438 158.742188 C 191.398438 158.523438 191.355469 158.3125 191.269531 158.109375 C 191.1875 157.90625 191.066406 157.726562 190.910156 157.570312 C 190.757812 157.414062 190.578125 157.296875 190.375 157.210938 C 190.171875 157.128906 189.960938 157.085938 189.742188 157.085938 C 189.609375 157.089844 189.480469 157.105469 189.351562 157.140625 C 189.222656 157.105469 189.089844 157.089844 188.957031 157.085938 L 170.644531 157.085938 C 170.570312 157.082031 170.496094 157.082031 170.421875 157.085938 C 170.34375 157.082031 170.269531 157.082031 170.195312 157.085938 C 169.976562 157.085938 169.765625 157.128906 169.5625 157.214844 C 169.363281 157.296875 169.183594 157.417969 169.027344 157.570312 C 168.875 157.726562 168.753906 157.90625 168.671875 158.109375 C 168.585938 158.3125 168.546875 158.523438 168.546875 158.742188 L 168.546875 163.472656 C 168.542969 163.882812 168.503906 164.292969 168.425781 164.695312 C 168.34375 165.101562 168.226562 165.492188 168.066406 165.871094 C 167.910156 166.253906 167.71875 166.613281 167.488281 166.957031 C 167.261719 167.296875 167 167.617188 166.710938 167.90625 C 166.421875 168.199219 166.105469 168.457031 165.765625 168.6875 C 165.421875 168.914062 165.0625 169.109375 164.683594 169.265625 C 164.304688 169.425781 163.914062 169.542969 163.507812 169.625 C 163.105469 169.703125 162.699219 169.746094 162.289062 169.746094 L 142.566406 169.746094 C 142.15625 169.746094 141.75 169.703125 141.347656 169.625 C 140.945312 169.542969 140.554688 169.425781 140.175781 169.265625 C 139.796875 169.109375 139.433594 168.914062 139.09375 168.6875 C 138.753906 168.457031 138.4375 168.199219 138.144531 167.90625 C 137.855469 167.617188 137.597656 167.296875 137.367188 166.957031 C 137.140625 166.613281 136.945312 166.253906 136.789062 165.871094 C 136.632812 165.492188 136.515625 165.101562 136.433594 164.695312 C 136.351562 164.292969 136.3125 163.882812 136.3125 163.472656 Z M 136.3125 153.042969"/><g clip-path="url(#a)"><path fill="#232323" d="M 316.574219 216.902344 L 306.800781 216.902344 C 306.820312 216.378906 306.789062 215.855469 306.710938 215.332031 C 306.636719 214.8125 306.511719 214.304688 306.339844 213.808594 C 306.167969 213.308594 305.957031 212.832031 305.699219 212.375 C 305.441406 211.914062 305.144531 211.484375 304.804688 211.082031 C 304.46875 210.679688 304.101562 210.308594 303.695312 209.972656 C 303.292969 209.636719 302.859375 209.339844 302.402344 209.085938 C 301.945312 208.828125 301.46875 208.617188 300.96875 208.445312 C 300.472656 208.277344 299.964844 208.15625 299.445312 208.078125 C 299.078125 208.039062 298.710938 208.019531 298.335938 208.003906 C 297.929688 208.003906 297.527344 207.964844 297.128906 207.898438 C 296.859375 207.867188 296.632812 207.75 296.449219 207.550781 C 296.484375 207.175781 296.582031 206.816406 296.742188 206.476562 C 296.96875 205.933594 297.132812 205.371094 297.230469 204.789062 C 297.648438 201.78125 294.984375 199.316406 292.246094 198.898438 C 290.496094 198.664062 288.761719 198.753906 287.046875 199.175781 C 286.804688 198.460938 286.457031 197.800781 286.015625 197.191406 C 285.570312 196.578125 285.046875 196.046875 284.445312 195.59375 C 283.84375 195.140625 283.1875 194.785156 282.480469 194.527344 C 281.773438 194.273438 281.042969 194.125 280.289062 194.085938 C 279.535156 194.050781 278.796875 194.125 278.066406 194.308594 C 277.335938 194.496094 276.648438 194.785156 276.003906 195.175781 C 275.359375 195.566406 274.789062 196.046875 274.285156 196.609375 C 273.785156 197.175781 273.378906 197.800781 273.0625 198.484375 L 245.679688 189.714844 C 247.390625 186.476562 248.679688 183.078125 249.546875 179.515625 C 250.417969 175.957031 250.839844 172.34375 250.816406 168.679688 C 250.800781 163.710938 250.128906 158.835938 248.792969 154.050781 C 247.460938 149.265625 245.515625 144.746094 242.957031 140.492188 L 227.945312 55.078125 C 227.933594 55.015625 227.917969 54.953125 227.898438 54.890625 C 227.898438 54.847656 227.871094 54.800781 227.855469 54.757812 C 227.839844 54.714844 227.808594 54.660156 227.78125 54.613281 C 227.753906 54.566406 227.734375 54.515625 227.707031 54.472656 C 227.679688 54.4375 227.652344 54.402344 227.621094 54.367188 C 227.585938 54.316406 227.546875 54.269531 227.503906 54.222656 L 227.402344 54.136719 C 227.351562 54.097656 227.3125 54.054688 227.261719 54.023438 C 227.21875 53.996094 227.175781 53.96875 227.128906 53.949219 C 227.082031 53.917969 227.035156 53.894531 226.984375 53.871094 C 226.9375 53.871094 226.886719 53.835938 226.839844 53.820312 L 226.679688 53.765625 C 226.632812 53.765625 226.585938 53.765625 226.535156 53.765625 L 226.34375 53.707031 L 148.351562 53.707031 C 147.957031 53.714844 147.605469 53.847656 147.304688 54.105469 C 147.003906 54.363281 146.816406 54.6875 146.75 55.078125 L 131.792969 139.730469 C 131.691406 139.828125 131.605469 139.933594 131.53125 140.050781 C 128.890625 144.359375 126.882812 148.941406 125.503906 153.804688 C 124.128906 158.667969 123.433594 163.625 123.421875 168.679688 C 123.421875 170.8125 123.550781 172.941406 123.8125 175.058594 C 122.171875 174.0625 119.933594 173.167969 117.683594 174.074219 C 115.292969 175.03125 114.289062 177.445312 113.480469 179.382812 L 113.386719 179.617188 C 112.941406 180.691406 112.023438 182.46875 110.835938 182.527344 C 110.183594 182.574219 109.367188 182.070312 108.511719 181.550781 C 107.230469 180.777344 105.632812 179.8125 103.707031 180.246094 C 101.714844 180.695312 100.203125 182.652344 100.03125 184.996094 C 100.003906 186.585938 100.277344 188.117188 100.851562 189.597656 L 100.933594 189.851562 C 101.320312 190.859375 101.5 191.902344 101.46875 192.984375 C 100.648438 193.054688 99.847656 192.953125 99.070312 192.683594 C 98.800781 192.59375 98.535156 192.492188 98.261719 192.390625 C 96.984375 191.914062 95.394531 191.316406 93.699219 191.785156 C 91.527344 192.382812 89.960938 194.613281 89.933594 197.207031 C 89.933594 198.136719 90.066406 199.050781 90.339844 199.941406 C 90.214844 199.847656 90.097656 199.75 89.984375 199.644531 C 88.984375 198.738281 86.910156 196.847656 84.492188 197.667969 C 83.480469 198.082031 82.660156 198.738281 82.027344 199.636719 C 81.703125 200.023438 81.300781 200.503906 81.078125 200.542969 C 80.851562 200.582031 80.226562 200.0625 79.753906 199.636719 C 78.96875 198.929688 77.988281 198.03125 76.648438 197.832031 C 76.105469 197.746094 75.566406 197.777344 75.03125 197.917969 C 74.5 198.058594 74.015625 198.296875 73.582031 198.640625 C 72.996094 199.109375 72.523438 199.667969 72.160156 200.324219 C 71.800781 200.980469 71.578125 201.683594 71.496094 202.429688 C 71.410156 203.835938 71.570312 205.21875 71.96875 206.570312 C 72.078125 207.007812 72.183594 207.449219 72.265625 207.886719 C 72.535156 209.34375 72.339844 210.515625 71.730469 211.035156 C 71.121094 211.554688 70.207031 211.574219 69.230469 211.664062 C 67.894531 211.753906 66.226562 211.871094 64.847656 212.90625 C 64.363281 213.289062 63.980469 213.753906 63.699219 214.304688 C 63.417969 214.859375 63.269531 215.441406 63.246094 216.0625 C 63.234375 216.34375 63.261719 216.625 63.320312 216.902344 L 58.125 216.902344 C 57.90625 216.902344 57.695312 216.945312 57.492188 217.027344 C 57.289062 217.113281 57.113281 217.234375 56.957031 217.386719 C 56.800781 217.542969 56.683594 217.722656 56.597656 217.925781 C 56.515625 218.128906 56.472656 218.339844 56.472656 218.558594 L 56.472656 230.289062 C 56.472656 230.507812 56.515625 230.71875 56.597656 230.921875 C 56.683594 231.125 56.800781 231.304688 56.957031 231.460938 C 57.113281 231.617188 57.289062 231.734375 57.492188 231.820312 C 57.695312 231.902344 57.90625 231.945312 58.125 231.945312 L 316.574219 231.945312 C 316.792969 231.945312 317.003906 231.902344 317.203125 231.820312 C 317.40625 231.734375 317.585938 231.617188 317.738281 231.460938 C 317.894531 231.304688 318.015625 231.125 318.097656 230.921875 C 318.179688 230.71875 318.222656 230.507812 318.222656 230.289062 L 318.222656 218.558594 C 318.222656 218.339844 318.179688 218.128906 318.097656 217.925781 C 318.015625 217.722656 317.894531 217.542969 317.738281 217.386719 C 317.585938 217.234375 317.40625 217.113281 317.203125 217.027344 C 317.003906 216.945312 316.792969 216.902344 316.574219 216.902344 Z M 280.484375 197.402344 C 280.964844 197.484375 281.421875 197.640625 281.855469 197.871094 C 282.285156 198.101562 282.667969 198.398438 283.003906 198.753906 C 283.335938 199.113281 283.605469 199.515625 283.808594 199.964844 C 284.007812 200.410156 284.132812 200.878906 284.179688 201.367188 C 284.195312 201.632812 284.273438 201.875 284.40625 202.105469 C 284.539062 202.332031 284.71875 202.515625 284.941406 202.660156 C 285.164062 202.800781 285.40625 202.882812 285.667969 202.910156 C 285.929688 202.933594 286.183594 202.898438 286.429688 202.804688 C 288.144531 202.140625 289.917969 201.921875 291.742188 202.148438 C 292.859375 202.320312 294.089844 203.324219 293.957031 204.292969 C 293.886719 204.640625 293.785156 204.980469 293.652344 205.308594 C 293.324219 206.171875 292.882812 207.355469 293.324219 208.648438 C 293.589844 209.3125 293.996094 209.871094 294.554688 210.316406 C 295.109375 210.765625 295.742188 211.046875 296.445312 211.160156 C 297.027344 211.273438 297.613281 211.332031 298.207031 211.335938 C 298.496094 211.335938 298.785156 211.335938 299.074219 211.394531 C 299.714844 211.503906 300.320312 211.722656 300.878906 212.050781 C 301.441406 212.382812 301.929688 212.804688 302.335938 213.3125 C 302.742188 213.824219 303.046875 214.390625 303.246094 215.011719 C 303.445312 215.632812 303.527344 216.273438 303.492188 216.925781 L 286.398438 216.925781 C 286.5625 216.53125 286.707031 216.125 286.832031 215.714844 C 286.957031 215.304688 287.0625 214.890625 287.140625 214.46875 C 287.222656 214.050781 287.28125 213.625 287.320312 213.199219 C 287.359375 212.769531 287.375 212.34375 287.367188 211.914062 C 287.359375 211.484375 287.332031 211.058594 287.28125 210.632812 C 287.230469 210.207031 287.15625 209.785156 287.0625 209.367188 C 286.96875 208.949219 286.851562 208.539062 286.714844 208.132812 C 286.578125 207.726562 286.417969 207.328125 286.242188 206.9375 C 286.0625 206.550781 285.863281 206.167969 285.644531 205.800781 C 285.429688 205.433594 285.191406 205.074219 284.9375 204.730469 C 284.683594 204.386719 284.410156 204.058594 284.121094 203.742188 C 283.832031 203.425781 283.527344 203.125 283.207031 202.839844 C 282.886719 202.554688 282.554688 202.289062 282.207031 202.039062 C 281.859375 201.789062 281.5 201.558594 281.128906 201.347656 C 280.753906 201.136719 280.375 200.945312 279.984375 200.773438 C 279.589844 200.601562 279.191406 200.449219 278.785156 200.316406 L 276.253906 199.507812 C 276.472656 199.152344 276.734375 198.832031 277.042969 198.550781 C 277.351562 198.269531 277.695312 198.035156 278.066406 197.851562 C 278.441406 197.664062 278.835938 197.535156 279.246094 197.457031 C 279.65625 197.382812 280.066406 197.363281 280.484375 197.402344 Z M 222.40625 139.417969 L 207.902344 57.023438 L 224.910156 57.023438 L 239.414062 139.417969 Z M 149.71875 57.023438 L 204.550781 57.023438 L 219.050781 139.417969 L 135.21875 139.417969 Z M 133.796875 142.734375 L 240.453125 142.734375 C 242.75 146.667969 244.5 150.832031 245.695312 155.230469 C 246.894531 159.628906 247.496094 164.105469 247.507812 168.664062 C 247.507812 181.132812 242.375 192.234375 232.664062 200.71875 C 232.5 200.863281 232.367188 201.035156 232.269531 201.230469 C 232.175781 201.429688 232.117188 201.636719 232.105469 201.855469 C 232.089844 202.074219 232.117188 202.289062 232.1875 202.496094 C 232.257812 202.703125 232.363281 202.890625 232.507812 203.054688 C 232.652344 203.21875 232.820312 203.351562 233.019531 203.449219 C 233.214844 203.546875 233.421875 203.605469 233.640625 203.617188 C 233.859375 203.632812 234.070312 203.605469 234.277344 203.535156 C 234.484375 203.464844 234.671875 203.359375 234.835938 203.214844 C 238.394531 200.136719 241.4375 196.609375 243.972656 192.640625 L 277.808594 203.453125 C 278.480469 203.664062 279.121094 203.949219 279.726562 204.316406 C 280.335938 204.679688 280.890625 205.109375 281.394531 205.605469 C 281.898438 206.101562 282.339844 206.648438 282.714844 207.25 C 283.089844 207.847656 283.390625 208.484375 283.613281 209.15625 C 283.746094 209.558594 283.855469 209.964844 283.933594 210.378906 C 283.667969 209.960938 283.375 209.5625 283.050781 209.1875 C 278.863281 204.296875 271.058594 204.050781 270.730469 204.039062 C 270.511719 204.035156 270.300781 204.070312 270.09375 204.148438 C 269.890625 204.226562 269.707031 204.339844 269.550781 204.492188 C 269.390625 204.640625 269.269531 204.816406 269.179688 205.019531 C 269.089844 205.21875 269.046875 205.429688 269.039062 205.648438 C 269.035156 205.867188 269.070312 206.078125 269.148438 206.285156 C 269.226562 206.488281 269.339844 206.671875 269.492188 206.832031 C 269.640625 206.992188 269.816406 207.117188 270.015625 207.207031 C 270.214844 207.296875 270.425781 207.34375 270.644531 207.351562 C 270.707031 207.351562 277.328125 207.582031 280.546875 211.351562 C 281.191406 212.125 281.664062 212.992188 281.964844 213.953125 C 282.265625 214.914062 282.375 215.894531 282.289062 216.898438 L 208.601562 216.898438 C 211.472656 216.097656 214.285156 215.132812 217.042969 214.011719 C 217.246094 213.925781 217.425781 213.808594 217.582031 213.65625 C 217.738281 213.5 217.859375 213.320312 217.945312 213.121094 C 218.03125 212.917969 218.074219 212.707031 218.078125 212.484375 C 218.078125 212.265625 218.039062 212.054688 217.953125 211.851562 C 217.871094 211.644531 217.753906 211.464844 217.597656 211.308594 C 217.445312 211.152344 217.265625 211.03125 217.066406 210.945312 C 216.863281 210.863281 216.652344 210.820312 216.433594 210.816406 C 216.214844 210.816406 216.003906 210.855469 215.800781 210.941406 C 206.5 214.742188 195.75 216.832031 184.726562 216.898438 L 157.726562 216.898438 L 164.777344 215.578125 C 165.472656 215.445312 166.144531 215.253906 166.804688 215.003906 C 167.464844 214.753906 168.097656 214.449219 168.703125 214.089844 C 169.308594 213.726562 169.882812 213.320312 170.417969 212.859375 C 170.953125 212.402344 171.449219 211.902344 171.898438 211.359375 C 172.347656 210.816406 172.75 210.238281 173.101562 209.625 C 173.453125 209.011719 173.75 208.375 173.988281 207.710938 C 174.230469 207.046875 174.414062 206.367188 174.539062 205.671875 C 174.667969 204.976562 174.730469 204.277344 174.734375 203.570312 L 175.558594 203.628906 L 185.480469 203.628906 C 189.691406 203.316406 194.050781 202.992188 198.222656 201.542969 C 203.085938 199.855469 206.769531 196.835938 208.671875 193.027344 C 210.984375 188.351562 210.125 182.652344 206.632812 179.484375 C 203.636719 176.769531 199.480469 176.328125 196.199219 176.269531 C 195.628906 176.269531 195.050781 176.269531 194.480469 176.242188 C 191.753906 176.242188 189.179688 176.195312 186.878906 175.300781 C 185.140625 174.625 183.46875 173.097656 182.917969 171.382812 C 185.902344 170.714844 188.03125 168.96875 188.03125 166.910156 C 188.03125 164.28125 184.542969 162.148438 180.242188 162.148438 C 175.945312 162.148438 172.457031 164.292969 172.457031 166.910156 C 172.457031 169.085938 174.832031 170.917969 178.085938 171.492188 C 177.71875 172.371094 177.195312 173.140625 176.515625 173.800781 C 175.832031 174.464844 175.046875 174.964844 174.160156 175.300781 C 171.863281 176.195312 169.289062 176.222656 166.5625 176.242188 C 165.984375 176.242188 165.414062 176.242188 164.84375 176.269531 C 161.5625 176.34375 157.40625 176.804688 154.410156 179.484375 C 151.0625 182.523438 150.136719 187.875 152.101562 192.4375 L 135.046875 194.675781 C 135.046875 194.667969 135.046875 194.660156 135.046875 194.648438 C 129.550781 187.269531 126.761719 178.53125 126.761719 168.675781 C 126.769531 164.117188 127.371094 159.640625 128.5625 155.246094 C 129.757812 150.847656 131.5 146.683594 133.796875 142.75 Z M 115.523438 216.902344 C 114.960938 215.445312 111.691406 206.128906 116.253906 198.5625 C 118.867188 194.222656 123.972656 191.515625 128.246094 189.914062 C 129.152344 191.738281 130.183594 193.488281 131.332031 195.167969 L 129.136719 195.460938 C 128.929688 195.496094 128.734375 195.574219 128.554688 195.6875 C 128.375 195.800781 128.222656 195.941406 128.097656 196.113281 C 127.972656 196.285156 127.882812 196.476562 127.832031 196.679688 C 127.777344 196.886719 127.765625 197.097656 127.792969 197.308594 C 127.820312 197.519531 127.886719 197.714844 127.988281 197.902344 C 128.09375 198.089844 128.226562 198.25 128.394531 198.382812 C 128.558594 198.515625 128.742188 198.613281 128.945312 198.679688 C 129.148438 198.742188 129.355469 198.765625 129.566406 198.75 L 161.367188 194.5625 C 162.445312 194.433594 163.511719 194.496094 164.566406 194.753906 C 165.625 195.011719 166.601562 195.449219 167.496094 196.0625 L 159.117188 197.582031 C 158.917969 197.621094 158.730469 197.695312 158.558594 197.804688 C 158.382812 197.914062 158.238281 198.050781 158.113281 198.214844 C 157.992188 198.378906 157.902344 198.558594 157.847656 198.753906 C 157.789062 198.953125 157.773438 199.152344 157.789062 199.355469 C 157.808594 199.5625 157.863281 199.753906 157.953125 199.9375 C 158.042969 200.125 158.160156 200.285156 158.3125 200.425781 C 158.460938 200.5625 158.628906 200.671875 158.820312 200.75 C 159.007812 200.824219 159.207031 200.867188 159.410156 200.871094 C 159.507812 200.878906 159.605469 200.878906 159.703125 200.871094 L 170.207031 198.96875 C 170.824219 200.023438 171.210938 201.15625 171.367188 202.371094 C 171.398438 202.601562 171.414062 202.835938 171.425781 203.066406 L 161.171875 204.046875 C 160.964844 204.070312 160.765625 204.132812 160.582031 204.230469 C 160.394531 204.328125 160.234375 204.457031 160.097656 204.621094 C 159.960938 204.78125 159.859375 204.960938 159.792969 205.160156 C 159.722656 205.359375 159.695312 205.5625 159.703125 205.773438 C 159.714844 205.984375 159.761719 206.1875 159.847656 206.378906 C 159.933594 206.570312 160.054688 206.742188 160.203125 206.886719 C 160.355469 207.035156 160.527344 207.148438 160.722656 207.230469 C 160.914062 207.308594 161.117188 207.351562 161.328125 207.355469 L 161.492188 207.355469 L 170.960938 206.429688 C 170.703125 207.175781 170.351562 207.875 169.910156 208.53125 C 169.46875 209.183594 168.953125 209.769531 168.355469 210.285156 C 167.761719 210.804688 167.109375 211.234375 166.402344 211.582031 C 165.695312 211.925781 164.953125 212.171875 164.179688 212.324219 L 139.695312 216.898438 Z M 155.328125 191.566406 C 153.6875 188.238281 154.261719 184.109375 156.628906 181.949219 C 158.816406 179.960938 162.210938 179.632812 164.921875 179.570312 L 166.589844 179.570312 C 169.496094 179.570312 172.492188 179.515625 175.355469 178.402344 C 177.554688 177.550781 179.273438 176.121094 180.519531 174.117188 C 181.765625 176.125 183.488281 177.550781 185.6875 178.402344 C 188.542969 179.515625 191.5625 179.542969 194.449219 179.570312 L 196.121094 179.570312 C 198.832031 179.632812 202.226562 179.960938 204.414062 181.949219 C 206.796875 184.089844 207.351562 188.238281 205.714844 191.566406 C 203.699219 195.636719 199.480469 197.605469 197.167969 198.417969 C 193.425781 199.71875 189.304688 200.023438 185.320312 200.324219 L 182.539062 200.324219 C 182.78125 199.929688 182.945312 199.507812 183.035156 199.054688 C 183.125 198.601562 183.136719 198.148438 183.066406 197.691406 C 182.996094 197.234375 182.851562 196.804688 182.632812 196.398438 C 182.410156 195.996094 182.128906 195.640625 181.78125 195.335938 C 181.191406 194.882812 180.539062 194.554688 179.828125 194.351562 C 179.660156 194.292969 179.496094 194.238281 179.335938 194.171875 C 179.191406 194.121094 179.0625 194.046875 178.941406 193.953125 C 178.941406 193.875 178.992188 193.765625 179.019531 193.6875 C 179.09375 193.457031 179.164062 193.226562 179.21875 192.996094 C 179.335938 192.402344 179.328125 191.8125 179.195312 191.222656 C 179.0625 190.636719 178.816406 190.097656 178.460938 189.613281 C 178 188.988281 177.433594 188.472656 176.765625 188.078125 C 176.097656 187.679688 175.378906 187.429688 174.609375 187.328125 C 173.09375 187.15625 171.601562 187.265625 170.132812 187.652344 C 169.773438 186.035156 168.945312 184.710938 167.640625 183.691406 C 167.074219 183.28125 166.453125 182.988281 165.777344 182.800781 C 165.101562 182.617188 164.417969 182.558594 163.722656 182.621094 C 163.027344 182.6875 162.363281 182.867188 161.730469 183.171875 C 161.101562 183.472656 160.542969 183.878906 160.058594 184.378906 C 158.453125 186.128906 158.671875 189.234375 159.652344 191.453125 L 155.589844 191.988281 C 155.488281 191.84375 155.402344 191.703125 155.328125 191.5625 Z M 163.34375 191.214844 C 163.285156 191.109375 163.222656 191.011719 163.144531 190.921875 C 162.199219 189.851562 161.910156 187.253906 162.476562 186.636719 C 162.6875 186.433594 162.925781 186.269531 163.191406 186.144531 C 163.457031 186.023438 163.738281 185.949219 164.027344 185.921875 C 164.320312 185.898438 164.609375 185.917969 164.890625 185.992188 C 165.175781 186.066406 165.4375 186.183594 165.683594 186.347656 C 166.75 187.140625 167.09375 188.773438 167.203125 190.011719 C 167.230469 190.273438 167.3125 190.519531 167.453125 190.746094 C 167.59375 190.96875 167.78125 191.148438 168.007812 191.285156 C 168.234375 191.417969 168.480469 191.496094 168.746094 191.511719 C 169.007812 191.53125 169.261719 191.488281 169.507812 191.382812 C 171 190.710938 172.558594 190.460938 174.1875 190.628906 C 174.832031 190.722656 175.351562 191.03125 175.746094 191.554688 C 175.933594 191.773438 176.003906 192.027344 175.960938 192.3125 C 175.933594 192.433594 175.898438 192.550781 175.859375 192.667969 C 175.640625 193.226562 175.554688 193.804688 175.601562 194.402344 C 175.746094 195.644531 176.671875 196.6875 178.089844 197.265625 C 178.304688 197.351562 178.519531 197.425781 178.738281 197.5 C 179.058594 197.582031 179.359375 197.714844 179.640625 197.890625 C 179.8125 198.105469 179.816406 198.324219 179.652344 198.546875 C 179.484375 198.769531 179.273438 198.824219 179.019531 198.722656 C 178.171875 198.183594 177.269531 198.054688 176.308594 198.335938 C 175.488281 198.546875 174.726562 198.894531 174.03125 199.375 C 173.636719 198.253906 173.085938 197.214844 172.386719 196.257812 C 172.3125 196.144531 172.234375 196.042969 172.140625 195.945312 C 171.070312 194.566406 169.765625 193.464844 168.226562 192.640625 C 166.6875 191.816406 165.050781 191.34375 163.308594 191.214844 Z M 66.585938 216.191406 C 66.597656 215.933594 66.703125 215.726562 66.894531 215.558594 C 67.488281 215.113281 68.496094 215.023438 69.519531 214.96875 C 70.976562 214.867188 72.644531 214.667969 73.941406 213.550781 C 75.488281 212.214844 76.078125 209.988281 75.542969 207.28125 C 75.449219 206.785156 75.328125 206.289062 75.210938 205.792969 C 74.910156 204.808594 74.773438 203.804688 74.804688 202.777344 C 74.875 202.171875 75.144531 201.671875 75.609375 201.28125 C 75.757812 201.136719 75.933594 201.078125 76.140625 201.105469 C 76.703125 201.324219 77.1875 201.65625 77.59375 202.097656 C 78.546875 202.949219 79.839844 204.109375 81.671875 203.804688 C 83.109375 203.5625 83.976562 202.515625 84.613281 201.746094 C 84.875 201.363281 85.203125 201.046875 85.597656 200.800781 C 86.179688 200.597656 87.402344 201.714844 87.804688 202.085938 C 89.292969 203.445312 91.621094 204.511719 93.679688 203.433594 C 93.867188 203.339844 94.03125 203.210938 94.167969 203.050781 C 94.304688 202.894531 94.410156 202.714844 94.480469 202.515625 C 94.550781 202.316406 94.582031 202.109375 94.574219 201.898438 C 94.566406 201.6875 94.523438 201.484375 94.4375 201.292969 C 93.851562 199.953125 93.246094 198.566406 93.273438 197.242188 C 93.273438 196.300781 93.808594 195.191406 94.609375 194.964844 C 95.269531 194.785156 96.179688 195.121094 97.140625 195.5 C 97.449219 195.621094 97.753906 195.730469 98.058594 195.832031 C 98.59375 196.015625 101.472656 196.90625 103.332031 195.808594 C 104.070312 195.390625 104.527344 194.765625 104.695312 193.933594 C 105.0625 192.117188 104.582031 190.355469 104.097656 188.84375 L 104.015625 188.585938 C 103.585938 187.511719 103.363281 186.398438 103.347656 185.242188 C 103.40625 184.398438 103.882812 183.605469 104.449219 183.480469 C 105.015625 183.359375 105.871094 183.828125 106.804688 184.398438 C 107.988281 185.113281 109.335938 185.929688 111.003906 185.84375 C 112.574219 185.769531 114.789062 184.847656 116.433594 180.902344 L 116.535156 180.664062 C 117.160156 179.15625 117.808594 177.597656 118.914062 177.152344 C 120.277344 176.617188 122.152344 177.84375 123.636719 178.984375 C 123.898438 179.1875 124.195312 179.300781 124.527344 179.324219 C 125.082031 181.917969 125.855469 184.441406 126.851562 186.898438 C 122.109375 188.703125 116.457031 191.792969 113.410156 196.851562 C 108.757812 204.558594 110.871094 213.429688 111.996094 216.910156 L 67.027344 216.910156 C 66.945312 216.628906 66.796875 216.390625 66.585938 216.191406 Z M 314.917969 228.628906 L 59.78125 228.628906 L 59.78125 220.21875 L 314.917969 220.21875 Z M 314.917969 228.628906"/></g><path fill="#232323" d="M 106.46875 207.167969 C 106.269531 207.265625 106.101562 207.398438 105.957031 207.5625 C 105.8125 207.726562 105.707031 207.914062 105.636719 208.121094 C 105.566406 208.332031 105.539062 208.542969 105.550781 208.761719 C 105.566406 208.980469 105.621094 209.191406 105.71875 209.386719 C 105.777344 209.503906 105.785156 209.625 105.75 209.746094 C 105.710938 209.871094 105.632812 209.964844 105.519531 210.027344 C 105.40625 210.089844 105.285156 210.101562 105.160156 210.066406 C 105.035156 210.03125 104.941406 209.960938 104.875 209.847656 C 104.769531 209.675781 104.636719 209.523438 104.480469 209.402344 C 104.320312 209.277344 104.144531 209.183594 103.949219 209.125 C 103.757812 209.0625 103.558594 209.039062 103.359375 209.050781 C 103.15625 209.0625 102.964844 209.113281 102.777344 209.195312 C 102.59375 209.277344 102.429688 209.390625 102.289062 209.535156 C 102.144531 209.679688 102.03125 209.84375 101.949219 210.027344 C 101.867188 210.214844 101.820312 210.40625 101.808594 210.609375 C 101.792969 210.8125 101.820312 211.007812 101.878906 211.203125 C 101.859375 211.4375 101.742188 211.601562 101.527344 211.695312 C 101.042969 211.804688 100.628906 211.683594 100.28125 211.328125 C 99.792969 210.800781 99.523438 210.179688 99.46875 209.460938 C 99.445312 209.242188 99.375 209.039062 99.269531 208.847656 C 99.160156 208.65625 99.019531 208.492188 98.847656 208.355469 C 98.675781 208.21875 98.484375 208.125 98.273438 208.0625 C 98.0625 208.003906 97.847656 207.988281 97.628906 208.015625 C 97.410156 208.042969 97.207031 208.109375 97.015625 208.21875 C 96.824219 208.328125 96.664062 208.46875 96.527344 208.640625 C 96.390625 208.8125 96.296875 209.007812 96.238281 209.21875 C 96.179688 209.429688 96.164062 209.644531 96.191406 209.863281 C 96.335938 211.371094 96.941406 212.660156 98.007812 213.730469 C 98.910156 214.605469 99.988281 215.046875 101.242188 215.058594 C 101.734375 215.058594 102.214844 214.976562 102.675781 214.804688 C 103.464844 214.507812 104.089844 214.007812 104.550781 213.296875 C 105.433594 213.484375 106.277344 213.363281 107.078125 212.9375 C 107.5 212.699219 107.867188 212.390625 108.175781 212.011719 C 108.480469 211.632812 108.710938 211.210938 108.859375 210.742188 C 109.007812 210.277344 109.066406 209.800781 109.035156 209.316406 C 109.003906 208.828125 108.886719 208.363281 108.679688 207.917969 C 108.582031 207.722656 108.449219 207.554688 108.285156 207.410156 C 108.121094 207.265625 107.933594 207.15625 107.726562 207.085938 C 107.519531 207.015625 107.308594 206.988281 107.089844 207.003906 C 106.871094 207.015625 106.664062 207.074219 106.46875 207.167969 Z M 106.46875 207.167969"/><path fill="#FFF" d="M 210.90625 155.050781 L 206.449219 155.050781 L 201.753906 167.738281 L 206.214844 167.738281 Z M 210.90625 155.050781" fill-opacity=".498"/><path fill="#FFF" d="M 220.691406 155.050781 L 212.359375 155.050781 L 207.648438 167.738281 L 215.238281 167.738281 C 215.59375 167.738281 215.949219 167.703125 216.296875 167.632812 C 216.648438 167.5625 216.988281 167.457031 217.316406 167.320312 C 217.648438 167.183594 217.960938 167.015625 218.257812 166.820312 C 218.554688 166.621094 218.828125 166.394531 219.078125 166.140625 C 219.332031 165.886719 219.558594 165.613281 219.753906 165.316406 C 219.953125 165.019531 220.121094 164.703125 220.257812 164.375 C 220.394531 164.042969 220.496094 163.703125 220.566406 163.351562 C 220.636719 163 220.671875 162.644531 220.671875 162.289062 Z M 220.691406 155.050781" fill-opacity=".498"/><path fill="#FFF" d="M 155.886719 155.050781 L 151.425781 155.050781 L 146.734375 167.738281 L 151.195312 167.738281 Z M 155.886719 155.050781" fill-opacity=".498"/><path fill="#FFF" d="M 165.671875 155.050781 L 157.335938 155.050781 L 152.625 167.738281 L 160.21875 167.738281 C 160.574219 167.738281 160.925781 167.703125 161.277344 167.632812 C 161.625 167.5625 161.964844 167.457031 162.296875 167.320312 C 162.625 167.183594 162.9375 167.015625 163.234375 166.820312 C 163.53125 166.621094 163.804688 166.394531 164.058594 166.140625 C 164.3125 165.886719 164.535156 165.613281 164.734375 165.316406 C 164.933594 165.019531 165.101562 164.703125 165.234375 164.375 C 165.371094 164.042969 165.476562 163.703125 165.546875 163.351562 C 165.613281 163 165.648438 162.644531 165.648438 162.289062 Z M 165.671875 155.050781" fill-opacity=".498"/><g fill="#232323"><g><g><path d="M 13.71875 -4.75 C 13.71875 -7.6875 13.558594 -10.621094 13.558594 -13.503906 C 13.558594 -14.304688 13.503906 -18.253906 14.089844 -18.628906 C 16.066406 -18.628906 15.691406 -8.328125 22.898438 -8.328125 C 31.007812 -8.328125 29.570312 -18.679688 32.183594 -18.679688 C 32.289062 -17.933594 32.558594 -17.292969 32.558594 -16.492188 C 32.558594 -12.542969 32.34375 -8.59375 32.34375 -4.644531 C 32.34375 -2.242188 32.929688 -1.066406 35.492188 -1.066406 C 37.253906 -1.066406 38.640625 -0.855469 39.871094 -2.242188 C 42.699219 -5.445312 42.910156 -13.078125 42.910156 -17.238281 C 42.910156 -18.414062 42.859375 -19.535156 42.859375 -20.707031 C 42.859375 -25.246094 42.75 -31.542969 40.671875 -35.601562 C 39.816406 -37.308594 38.375 -37.949219 36.507812 -37.949219 C 34.691406 -37.949219 32.503906 -38.109375 31.167969 -36.613281 C 28.875 -33.945312 26.207031 -20.015625 22.683594 -20.015625 C 19.800781 -20.015625 17.1875 -35.921875 13.769531 -37.46875 C 12.96875 -37.839844 12.167969 -37.949219 11.316406 -37.949219 C 10.140625 -37.949219 8.914062 -37.839844 7.792969 -37.46875 C 6.566406 -37.09375 5.765625 -36.132812 5.230469 -35.011719 C 3.734375 -31.863281 3.46875 -23.589844 3.46875 -19.960938 C 3.46875 -16.277344 3.46875 -3.574219 6.886719 -1.601562 C 8.007812 -0.960938 9.234375 -1.015625 10.460938 -1.015625 C 13.128906 -1.015625 13.71875 -2.242188 13.71875 -4.75 Z M 13.71875 -4.75" transform="translate(11.35 285.63)"/></g></g></g><g fill="#232323"><g><g><path d="M 17.773438 -0.640625 C 24.550781 -0.640625 24.390625 -2.296875 24.390625 -8.433594 C 24.390625 -9.445312 24.390625 -10.355469 24.5 -11.367188 C 25.457031 -18.734375 34.53125 -30.316406 34.53125 -35.386719 C 34.53125 -37.949219 30.691406 -37.949219 28.875 -37.949219 C 27.167969 -37.949219 25.566406 -37.894531 24.445312 -36.453125 C 23.058594 -34.746094 20.921875 -25.296875 18.949219 -25.296875 C 17.613281 -25.296875 14.570312 -35.546875 12.917969 -37.148438 C 12.167969 -37.894531 10.886719 -38 9.875 -38 C 8.328125 -38 3.203125 -37.789062 3.203125 -35.546875 C 3.203125 -29.410156 13.503906 -18.894531 13.503906 -9.339844 C 13.503906 -8.113281 13.398438 -6.886719 13.398438 -5.605469 C 13.398438 -2.457031 14.355469 -0.640625 17.773438 -0.640625 Z M 17.773438 -0.640625" transform="translate(54.366 285.63)"/></g></g></g><g fill="#232323"><g><g><path d="M 13.71875 -4.75 C 13.71875 -7.6875 13.558594 -10.621094 13.558594 -13.503906 C 13.558594 -14.304688 13.503906 -18.253906 14.089844 -18.628906 C 16.066406 -18.628906 15.691406 -8.328125 22.898438 -8.328125 C 31.007812 -8.328125 29.570312 -18.679688 32.183594 -18.679688 C 32.289062 -17.933594 32.558594 -17.292969 32.558594 -16.492188 C 32.558594 -12.542969 32.34375 -8.59375 32.34375 -4.644531 C 32.34375 -2.242188 32.929688 -1.066406 35.492188 -1.066406 C 37.253906 -1.066406 38.640625 -0.855469 39.871094 -2.242188 C 42.699219 -5.445312 42.910156 -13.078125 42.910156 -17.238281 C 42.910156 -18.414062 42.859375 -19.535156 42.859375 -20.707031 C 42.859375 -25.246094 42.75 -31.542969 40.671875 -35.601562 C 39.816406 -37.308594 38.375 -37.949219 36.507812 -37.949219 C 34.691406 -37.949219 32.503906 -38.109375 31.167969 -36.613281 C 28.875 -33.945312 26.207031 -20.015625 22.683594 -20.015625 C 19.800781 -20.015625 17.1875 -35.921875 13.769531 -37.46875 C 12.96875 -37.839844 12.167969 -37.949219 11.316406 -37.949219 C 10.140625 -37.949219 8.914062 -37.839844 7.792969 -37.46875 C 6.566406 -37.09375 5.765625 -36.132812 5.230469 -35.011719 C 3.734375 -31.863281 3.46875 -23.589844 3.46875 -19.960938 C 3.46875 -16.277344 3.46875 -3.574219 6.886719 -1.601562 C 8.007812 -0.960938 9.234375 -1.015625 10.460938 -1.015625 C 13.128906 -1.015625 13.71875 -2.242188 13.71875 -4.75 Z M 13.71875 -4.75" transform="translate(88.842 285.63)"/></g></g></g><g fill="#232323"><g><g><path d="M 19.640625 -38.800781 C 9.019531 -38.800781 1.121094 -29.890625 1.121094 -19.480469 C 1.121094 -8.378906 9.605469 -0.105469 20.65625 -0.105469 C 31.167969 -0.105469 39.390625 -9.179688 39.390625 -19.480469 C 39.390625 -30.742188 30.742188 -38.800781 19.640625 -38.800781 Z M 20.707031 -8.644531 C 14.890625 -8.644531 12.222656 -12.96875 12.222656 -18.359375 C 12.222656 -23.804688 13.503906 -30.261719 20.226562 -30.261719 C 27.113281 -30.261719 28.234375 -23.859375 28.234375 -18.359375 C 28.234375 -13.878906 25.832031 -8.644531 20.707031 -8.644531 Z M 20.707031 -8.644531" transform="translate(131.856 285.63)"/></g></g></g><g fill="#232323"><g><g><path d="M 18.789062 -14.304688 C 15.105469 -16.011719 15.90625 -37.894531 9.019531 -37.894531 C 6.246094 -37.894531 2.988281 -37.839844 2.988281 -34.160156 C 2.988281 -29.410156 9.980469 -9.234375 12.4375 -4.589844 C 13.023438 -3.46875 13.824219 -2.402344 14.890625 -1.601562 C 15.957031 -0.800781 17.292969 -0.535156 18.574219 -0.535156 C 19.90625 -0.535156 21.402344 -0.640625 22.523438 -1.386719 C 26.6875 -4.109375 34.585938 -28.449219 34.585938 -33.730469 C 34.585938 -37.949219 32.449219 -37.839844 28.980469 -37.839844 C 28.179688 -37.839844 27.167969 -37.734375 26.527344 -37.148438 C 25.9375 -36.558594 25.457031 -35.601562 25.191406 -34.851562 C 24.179688 -32.023438 20.496094 -15.050781 18.789062 -14.304688 Z M 18.789062 -14.304688" transform="translate(169 285.63)"/></g></g></g><g fill="#232323"><g><g><path d="M 16.332031 -25.191406 C 16.332031 -27.808594 16.066406 -36.132812 13.664062 -37.574219 C 12.4375 -38.320312 11.421875 -38.269531 10.035156 -38.269531 C 9.019531 -38.269531 8.113281 -38.109375 7.257812 -37.628906 C 4.324219 -35.972656 4.214844 -25.992188 4.214844 -22.898438 C 4.214844 -20.601562 4.324219 -18.359375 4.324219 -16.066406 C 4.324219 -13.289062 4.429688 -2.777344 6.9375 -1.335938 C 8.058594 -0.695312 9.445312 -0.640625 10.726562 -0.640625 C 12.648438 -0.640625 14.195312 -1.496094 15.050781 -3.253906 C 16.171875 -5.550781 16.332031 -13.183594 16.332031 -15.90625 Z M 16.332031 -25.191406" transform="translate(203.477 285.63)"/></g></g></g><g fill="#232323"><g><g><path d="M 14.515625 -11.796875 C 14.515625 -12.542969 14.515625 -13.34375 14.675781 -14.089844 C 14.785156 -14.570312 14.945312 -15.050781 15.316406 -15.371094 C 16.332031 -16.226562 18.949219 -16.066406 20.28125 -16.066406 C 21.988281 -16.066406 27.328125 -15.746094 28.339844 -17.238281 C 28.714844 -17.828125 28.820312 -18.679688 28.820312 -19.375 C 28.820312 -20.226562 28.820312 -21.777344 28.289062 -22.46875 C 27.433594 -23.589844 25.832031 -23.804688 24.5 -23.804688 C 22.898438 -23.804688 21.296875 -23.644531 19.695312 -23.644531 C 17.773438 -23.644531 14.570312 -23.804688 14.570312 -26.417969 C 14.570312 -29.996094 16.011719 -29.941406 19.054688 -29.941406 C 20.816406 -29.941406 22.578125 -29.675781 24.339844 -29.675781 C 25.9375 -29.675781 29.410156 -29.621094 29.410156 -31.917969 C 29.410156 -33.304688 29.195312 -34.90625 28.179688 -35.972656 C 26.472656 -37.789062 23.539062 -38.320312 21.136719 -38.320312 C 9.660156 -38.320312 3.574219 -38.214844 3.574219 -24.765625 C 3.574219 -22.628906 3.628906 -20.546875 3.628906 -18.414062 C 3.628906 -15.796875 3.683594 -13.183594 3.84375 -10.566406 C 4.109375 -6.566406 5.175781 -3.363281 9.125 -1.761719 C 12.648438 -0.320312 17.078125 -0.640625 20.867188 -0.640625 C 24.339844 -0.640625 29.355469 -1.441406 29.355469 -5.871094 C 29.355469 -8.378906 28.929688 -9.125 26.3125 -9.125 C 23.378906 -9.125 20.386719 -8.964844 17.453125 -8.964844 C 15.53125 -8.964844 14.515625 -9.875 14.515625 -11.796875 Z M 14.515625 -11.796875" transform="translate(220.874 285.63)"/></g></g></g><g fill="#232323"><g><g><path d="M 14.730469 -19.855469 C 14.730469 -20.761719 14.835938 -21.667969 14.890625 -22.578125 C 14.996094 -24.5 15.105469 -26.417969 15.105469 -28.339844 C 15.105469 -31.117188 14.945312 -38.109375 10.996094 -38.109375 C 8.59375 -38.109375 6.511719 -37.839844 5.230469 -35.546875 C 3.628906 -32.664062 3.574219 -22.097656 3.574219 -18.46875 C 3.574219 -15.636719 3.628906 -12.757812 3.84375 -9.925781 C 4.003906 -8.007812 4.429688 -6.085938 5.550781 -4.484375 C 8.699219 0.105469 17.71875 -0.640625 22.628906 -0.640625 C 24.925781 -0.640625 27.648438 -1.121094 29.300781 -2.882812 C 30.261719 -3.894531 30.476562 -5.390625 30.476562 -6.777344 C 30.476562 -8.433594 29.621094 -9.285156 27.96875 -9.285156 C 25.566406 -9.285156 23.164062 -9.179688 20.707031 -9.179688 C 19.589844 -9.179688 18.414062 -9.285156 17.398438 -9.820312 C 14.570312 -11.316406 14.730469 -17.132812 14.730469 -19.855469 Z M 14.730469 -19.855469" transform="translate(250.547 285.63)"/></g></g></g><g fill="#232323"><g><g><path d="M 16.332031 -25.191406 C 16.332031 -27.808594 16.066406 -36.132812 13.664062 -37.574219 C 12.4375 -38.320312 11.421875 -38.269531 10.035156 -38.269531 C 9.019531 -38.269531 8.113281 -38.109375 7.257812 -37.628906 C 4.324219 -35.972656 4.214844 -25.992188 4.214844 -22.898438 C 4.214844 -20.601562 4.324219 -18.359375 4.324219 -16.066406 C 4.324219 -13.289062 4.429688 -2.777344 6.9375 -1.335938 C 8.058594 -0.695312 9.445312 -0.640625 10.726562 -0.640625 C 12.648438 -0.640625 14.195312 -1.496094 15.050781 -3.253906 C 16.171875 -5.550781 16.332031 -13.183594 16.332031 -15.90625 Z M 16.332031 -25.191406" transform="translate(280.486 285.63)"/></g></g></g><g fill="#232323"><g><g><path d="M 17.292969 -30.796875 C 19.269531 -30.796875 21.242188 -30.371094 23.164062 -29.941406 C 24.660156 -29.570312 26.3125 -29.089844 27.859375 -29.089844 C 28.769531 -29.089844 29.25 -29.515625 29.25 -30.421875 C 29.25 -38.695312 23.378906 -38.800781 16.867188 -38.800781 C 9.875 -38.800781 2.402344 -34.960938 2.402344 -27.113281 C 2.402344 -21.136719 8.433594 -16.972656 13.664062 -15.476562 C 15.210938 -15.050781 16.867188 -14.785156 18.199219 -13.824219 C 19.109375 -13.183594 19.429688 -12.382812 19.429688 -11.261719 C 19.429688 -8.859375 16.972656 -8.167969 14.996094 -8.167969 C 12.96875 -8.167969 10.996094 -8.753906 9.074219 -9.339844 C 7.527344 -9.820312 5.871094 -10.515625 4.214844 -10.515625 C 3.628906 -10.515625 3.574219 -10.035156 3.574219 -9.554688 C 3.574219 -1.015625 9.445312 -0.0546875 16.546875 -0.0546875 C 23.75 -0.0546875 30.53125 -4.910156 30.53125 -12.542969 C 30.53125 -24.339844 13.398438 -22.417969 13.398438 -27.859375 C 13.398438 -30.101562 15.371094 -30.796875 17.292969 -30.796875 Z M 17.292969 -30.796875" transform="translate(297.884 285.63)"/></g></g></g><g fill="#232323"><g><g><path d="M 33.410156 -31.703125 C 33.410156 -32.289062 33.25 -34.53125 33.089844 -35.011719 C 31.648438 -38.960938 19.480469 -38.320312 16.226562 -38.320312 C 13.449219 -38.320312 5.765625 -38.160156 3.789062 -36.242188 C 2.988281 -35.441406 2.777344 -32.929688 2.777344 -31.808594 C 2.777344 -26.738281 11.101562 -32.183594 12.167969 -26.472656 C 12.382812 -25.191406 12.4375 -23.859375 12.4375 -22.578125 C 12.4375 -19.855469 12.328125 -17.1875 12.328125 -14.464844 C 12.328125 -11.582031 12.277344 -2.722656 14.945312 -1.121094 C 15.851562 -0.585938 17.1875 -0.640625 18.253906 -0.640625 C 19.480469 -0.640625 20.976562 -0.585938 21.9375 -1.496094 C 23.644531 -3.148438 23.804688 -14.25 23.804688 -16.917969 C 23.804688 -19.109375 23.699219 -21.242188 23.699219 -23.429688 C 23.699219 -26.632812 24.339844 -29.570312 28.179688 -29.570312 C 28.980469 -29.570312 29.730469 -29.460938 30.53125 -29.460938 C 32.078125 -29.460938 33.410156 -29.890625 33.410156 -31.703125 Z M 33.410156 -31.703125" transform="translate(327.557 285.63)"/></g></g></g></svg>