<svg width="430" height="229" viewBox="0 0 430 229" fill="none" xmlns="http://www.w3.org/2000/svg">
<path d="M154.659 90.2826H103.908C100.331 90.2826 97.4316 93.1835 97.4316 96.7618V218.342C97.4316 221.921 100.331 224.821 103.908 224.821H154.659C158.236 224.821 161.135 221.921 161.135 218.342V96.7618C161.135 93.1835 158.236 90.2826 154.659 90.2826Z" fill="#E0F0F5"/>
<path d="M241.95 49.5668H190.032C186.778 49.5668 184.139 52.2062 184.139 55.4617V220.697C184.139 223.952 186.778 226.592 190.032 226.592H241.95C245.205 226.592 247.843 223.952 247.843 220.697V55.4617C247.843 52.2062 245.205 49.5668 241.95 49.5668Z" fill="#E0F0F5"/>
<path d="M326.197 1.77026H275.661C272.023 1.77026 269.078 4.7186 269.078 8.35559V218.236C269.078 221.873 272.023 224.821 275.661 224.821H326.197C329.835 224.821 332.781 221.873 332.781 218.236V8.35559C332.781 4.7186 329.835 1.77026 326.197 1.77026Z" fill="#E0F0F5"/>
<path d="M333.666 144.293V218.855C333.669 219.721 333.5 220.578 333.17 221.378C332.84 222.178 332.354 222.905 331.743 223.517C331.131 224.129 330.406 224.614 329.607 224.944C328.805 225.274 327.949 225.443 327.085 225.441H276.563C275.696 225.443 274.84 225.275 274.038 224.945C273.239 224.615 272.509 224.13 271.897 223.518C271.283 222.906 270.797 222.18 270.465 221.38C270.135 220.579 269.963 219.722 269.963 218.855V150.152C269.963 147.335 271.082 144.633 273.072 142.641C275.063 140.65 277.765 139.531 280.579 139.531C283.396 139.531 286.097 140.65 288.088 142.641C290.079 144.633 291.197 147.335 291.197 150.152V164.934C291.197 167.751 292.316 170.452 294.307 172.444C296.297 174.436 298.999 175.555 301.816 175.555C304.63 175.555 307.332 174.436 309.322 172.444C311.313 170.452 312.432 167.751 312.432 164.934V144.293C312.432 141.475 313.55 138.774 315.541 136.782C317.532 134.79 320.233 133.671 323.05 133.671C325.864 133.671 328.566 134.79 330.557 136.782C332.547 138.774 333.666 141.475 333.666 144.293Z" fill="#BDDFE9"/>
<path d="M246.869 113.508V219.936C246.872 220.801 246.703 221.659 246.373 222.459C246.043 223.259 245.558 223.986 244.947 224.597C244.335 225.209 243.609 225.694 242.809 226.025C242.009 226.355 241.152 226.523 240.287 226.521H189.766C188.9 226.523 188.042 226.355 187.242 226.025C186.441 225.695 185.713 225.21 185.1 224.599C184.487 223.987 184.001 223.26 183.669 222.46C183.337 221.66 183.166 220.802 183.166 219.936V158.314C183.166 155.496 184.285 152.795 186.276 150.803C188.267 148.811 190.967 147.692 193.783 147.692C196.599 147.692 199.3 148.811 201.291 150.803C203.282 152.795 204.401 155.496 204.401 158.314V166.014C204.401 168.831 205.519 171.533 207.51 173.524C209.501 175.516 212.202 176.635 215.018 176.635C217.834 176.635 220.534 175.516 222.525 173.524C224.516 171.533 225.635 168.831 225.635 166.014V113.508C225.635 110.691 226.754 107.99 228.745 105.998C230.736 104.006 233.436 102.887 236.252 102.887C239.068 102.887 241.769 104.006 243.76 105.998C245.751 107.99 246.869 110.691 246.869 113.508Z" fill="#BDDFE9"/>
<path d="M162.02 146.063V217.085C162.022 217.951 161.853 218.808 161.523 219.608C161.193 220.408 160.709 221.135 160.097 221.747C159.485 222.359 158.759 222.844 157.959 223.174C157.159 223.504 156.302 223.673 155.437 223.671H104.917C104.051 223.673 103.193 223.504 102.392 223.174C101.591 222.844 100.863 222.36 100.25 221.748C99.6372 221.136 99.1508 220.41 98.8189 219.609C98.4871 218.809 98.3162 217.951 98.3162 217.085V155.463C98.3162 152.646 99.4346 149.944 101.426 147.952C103.417 145.96 106.117 144.841 108.933 144.841C111.749 144.841 114.45 145.96 116.441 147.952C118.432 149.944 119.551 152.646 119.551 155.463V163.164C119.551 165.98 120.669 168.682 122.66 170.674C124.652 172.666 127.352 173.785 130.168 173.785C132.984 173.785 135.684 172.666 137.675 170.674C139.667 168.682 140.785 165.98 140.785 163.164V146.063C140.785 143.246 141.904 140.544 143.895 138.552C145.886 136.56 148.587 135.441 151.403 135.441C154.218 135.441 156.919 136.56 158.91 138.552C160.901 140.544 162.02 143.246 162.02 146.063Z" fill="#BDDFE9"/>
<path d="M346.726 32.7669C348.416 32.7669 349.787 31.396 349.787 29.7045C349.787 28.013 348.416 26.642 346.726 26.642C345.036 26.642 343.665 28.013 343.665 29.7045C343.665 31.396 345.036 32.7669 346.726 32.7669Z" fill="#EEF0F1"/>
<path d="M355.681 51.6736C353.999 51.6624 352.371 51.0684 351.077 49.9923C349.784 48.9165 348.904 47.4257 348.588 45.7734C348.269 44.121 348.534 42.4094 349.336 40.9301C350.136 39.4511 351.426 38.2956 352.985 37.6606C354.541 37.0256 356.271 36.9502 357.878 37.4473C359.485 37.9447 360.87 38.9837 361.798 40.3877C362.723 41.7916 363.137 43.4737 362.962 45.1472C362.791 46.821 362.042 48.3829 360.848 49.5671C359.472 50.927 357.613 51.6846 355.681 51.6736ZM355.681 38.9456C354.273 39.0256 352.947 39.6413 351.979 40.6667C351.01 41.692 350.471 43.0493 350.471 44.4599C350.471 45.8708 351.01 47.228 351.979 48.2534C352.947 49.2787 354.273 49.8944 355.681 49.9744C356.403 49.9813 357.122 49.8453 357.795 49.5738C358.466 49.3026 359.078 48.9012 359.593 48.3931C360.11 47.885 360.521 47.2798 360.803 46.6126C361.084 45.9451 361.232 45.2288 361.237 44.5041C361.245 43.0455 360.676 41.6421 359.657 40.6007C358.635 39.5592 357.245 38.9644 355.786 38.9456H355.681Z" fill="#EEF0F1"/>
<path d="M128.398 203.579C139.637 203.579 148.748 194.464 148.748 183.221C148.748 171.977 139.637 162.863 128.398 162.863C117.16 162.863 108.049 171.977 108.049 183.221C108.049 194.464 117.16 203.579 128.398 203.579Z" fill="#A3CAD3"/>
<path d="M130.169 192.957C141.407 192.957 150.518 183.843 150.518 172.599C150.518 161.356 141.407 152.241 130.169 152.241C118.93 152.241 109.819 161.356 109.819 172.599C109.819 183.843 118.93 192.957 130.169 192.957Z" fill="white"/>
<path d="M128.399 196.498C124.024 196.498 119.748 195.2 116.11 192.768C112.473 190.337 109.638 186.881 107.964 182.838C106.289 178.794 105.851 174.345 106.705 170.052C107.558 165.76 109.665 161.817 112.758 158.722C115.852 155.628 119.793 153.52 124.084 152.667C128.375 151.813 132.822 152.251 136.864 153.926C140.905 155.601 144.36 158.437 146.791 162.076C149.221 165.715 150.518 169.993 150.518 174.37C150.509 180.235 148.175 185.858 144.03 190.006C139.883 194.154 134.263 196.488 128.399 196.498ZM128.399 155.782C124.724 155.782 121.132 156.872 118.076 158.915C115.021 160.957 112.639 163.86 111.233 167.256C109.827 170.653 109.459 174.39 110.176 177.996C110.893 181.601 112.662 184.913 115.261 187.513C117.859 190.113 121.17 191.883 124.774 192.6C128.378 193.317 132.114 192.949 135.509 191.542C138.905 190.135 141.806 187.753 143.848 184.696C145.889 181.639 146.979 178.046 146.979 174.37C146.975 169.441 145.015 164.716 141.532 161.231C138.048 157.746 133.325 155.787 128.399 155.782Z" fill="#183154"/>
<path d="M301.813 84.972C313.054 84.972 322.165 75.8574 322.165 64.6141C322.165 53.3708 313.054 44.2562 301.813 44.2562C290.575 44.2562 281.464 53.3708 281.464 64.6141C281.464 75.8574 290.575 84.972 301.813 84.972Z" fill="#BDDFE9"/>
<path d="M303.584 76.1207C314.822 76.1207 323.933 67.0061 323.933 55.7628C323.933 44.5194 314.822 35.4049 303.584 35.4049C292.346 35.4049 283.235 44.5194 283.235 55.7628C283.235 67.0061 292.346 76.1207 303.584 76.1207Z" fill="#8FDAFF"/>
<path d="M322.165 56.471C322.173 61.0178 320.66 65.4367 317.864 69.022C315.069 72.6075 311.155 75.1527 306.744 76.251C302.334 77.3494 297.682 76.9378 293.534 75.0821C289.384 73.2262 285.977 70.0331 283.854 66.0127C286.787 67.5867 290.062 68.4079 293.392 68.4025C296.909 68.4202 300.372 67.5242 303.442 65.8021C306.511 64.08 309.081 61.5906 310.9 58.5773C312.719 55.5642 313.725 52.1305 313.819 48.6118C313.915 45.093 313.094 41.6099 311.442 38.503C314.691 40.2404 317.408 42.8311 319.297 45.9969C321.186 49.1628 322.178 52.7838 322.165 56.471Z" fill="#38609B"/>
<path d="M301.797 77.891C297.735 77.8927 293.751 76.7766 290.283 74.665C286.814 72.5533 283.991 69.5277 282.124 65.9191C280.26 62.3104 279.423 58.2578 279.704 54.2049C279.986 50.1517 281.378 46.2547 283.726 42.9398C286.073 39.6252 289.29 37.0205 293.019 35.4111C296.748 33.8017 300.847 33.2493 304.869 33.8148C308.89 34.3803 312.679 36.0415 315.82 38.617C318.962 41.1922 321.333 44.5825 322.677 48.4162C323.839 51.7544 324.185 55.3217 323.691 58.8214C323.195 62.3212 321.87 65.6516 319.828 68.5353C317.784 71.4193 315.082 73.7729 311.946 75.4003C308.81 77.0277 305.33 77.8817 301.797 77.891ZM301.797 37.1753C297.848 37.1729 294.001 38.4279 290.811 40.7587C287.624 43.0895 285.26 46.3749 284.061 50.1396C282.865 53.9041 282.897 57.9522 284.152 61.6977C285.408 65.4429 287.822 68.6912 291.047 70.9718C294.272 73.2528 298.138 74.4474 302.087 74.3833C306.036 74.3192 309.862 72.9995 313.009 70.6153C316.158 68.2311 318.465 64.906 319.6 61.1217C320.732 57.3376 320.633 53.2906 319.316 49.5669C318.028 45.9472 315.654 42.8137 312.518 40.5956C309.381 38.3774 305.636 37.1828 301.797 37.1753Z" fill="#183154"/>
<path d="M235.351 86.7418C234.952 86.7357 234.568 86.5954 234.26 86.3434C233.951 86.0915 233.737 85.743 233.651 85.354C233.565 84.965 233.612 84.5583 233.786 84.1999C233.96 83.8415 234.249 83.552 234.607 83.3784L280.616 61.4806C281.032 61.317 281.496 61.3172 281.912 61.4811C282.328 61.6453 282.666 61.9611 282.859 62.3651C283.052 62.7689 283.085 63.2309 282.95 63.658C282.816 64.0851 282.527 64.4456 282.138 64.667L236.129 86.565C235.888 86.6863 235.621 86.7469 235.351 86.7418Z" fill="#183154"/>
<path d="M96.5472 32.6078L112.668 65.3044L138.132 67.2693L120.436 79.6611L131.053 127.458L100.086 111.72L100.069 101.081L67.3497 113.296L70.4465 96.0004L72.6585 72.5801L80.4091 65.3044L96.5472 32.6078Z" fill="#BDDFE9"/>
<path opacity="0.3" d="M3.6283 132.963C4.79636 131.818 6.17961 130.915 7.69821 130.308C9.21678 129.7 10.8406 129.399 12.476 129.423H52.8216C56.107 129.423 59.2574 128.117 61.5804 125.793C63.9034 123.469 65.2083 120.317 65.2083 117.031C65.2083 113.744 63.9034 110.592 61.5804 108.269C59.2574 105.945 56.107 104.639 52.8216 104.639H29.4281C26.1431 104.639 22.9924 103.334 20.6695 101.01C18.3465 98.6859 17.0414 95.5339 17.0414 92.2475C17.0414 88.9611 18.3465 85.8091 20.6695 83.4852C22.9924 81.1614 26.1431 79.8557 29.4281 79.8557H86.7086C89.2991 79.8557 91.7836 80.8853 93.6154 82.7177C95.4472 84.5503 96.4764 87.0359 96.4764 89.6275V218.802C96.4764 221.394 95.4472 223.88 93.6154 225.712C91.7836 227.545 89.2991 228.574 86.7086 228.574H69.8448C73.1298 228.574 76.2805 227.269 78.6036 224.945C80.9263 222.621 82.2315 219.469 82.2315 216.183C82.2315 212.896 80.9263 209.744 78.6036 207.42C76.2805 205.096 73.1298 203.791 69.8448 203.791H12.3875C9.10233 203.791 5.95171 202.485 3.62873 200.161C1.30575 197.837 0.000717515 194.686 0.000717515 191.399C0.000717515 188.112 1.30575 184.961 3.62873 182.637C5.95171 180.313 9.10233 179.007 12.3875 179.007H43.7792C47.0646 179.007 50.215 177.702 52.538 175.378C54.8611 173.054 56.166 169.902 56.166 166.615C56.166 163.329 54.8611 160.177 52.538 157.853C50.215 155.529 47.0646 154.224 43.7792 154.224H12.3875C9.10233 154.224 5.95171 152.918 3.62873 150.594C1.30575 148.271 0.000717515 145.118 0.000717515 141.832C-0.0170368 140.189 0.294863 138.559 0.917956 137.039C1.54105 135.518 2.46267 134.139 3.6283 132.981" fill="#BDDFE9"/>
<path opacity="0.3" d="M333.508 36.3256V165.642C333.505 166.929 333.757 168.203 334.248 169.391C334.739 170.58 335.458 171.66 336.368 172.57C337.277 173.479 338.358 174.2 339.547 174.691C340.733 175.182 342.007 175.434 343.292 175.432H360.21C356.926 175.432 353.774 174.126 351.45 171.802C349.127 169.478 347.823 166.327 347.823 163.04C347.823 159.753 349.127 156.602 351.45 154.278C353.774 151.954 356.926 150.648 360.21 150.648H417.614C420.9 150.648 424.05 149.343 426.373 147.019C428.696 144.695 430 141.543 430 138.256C430 134.97 428.696 131.818 426.373 129.494C424.05 127.17 420.9 125.865 417.614 125.865H386.276C382.989 125.865 379.84 124.559 377.516 122.235C375.193 119.911 373.889 116.759 373.889 113.473C373.889 110.187 375.193 107.035 377.516 104.711C379.84 102.387 382.989 101.081 386.276 101.081H417.614C420.9 101.081 424.05 99.7757 426.373 97.4519C428.696 95.128 430 91.976 430 88.6896C430 85.4032 428.696 82.2511 426.373 79.9273C424.05 77.6035 420.9 76.2977 417.614 76.2977H377.216C373.93 76.2977 370.78 74.9923 368.457 72.6684C366.133 70.3446 364.83 67.1926 364.83 63.9062C364.83 60.6197 366.133 57.4677 368.457 55.1439C370.78 52.82 373.93 51.5143 377.216 51.5143H400.626C403.913 51.5143 407.062 50.2089 409.385 47.885C411.709 45.5609 413.013 42.4092 413.013 39.1227C413.013 35.836 411.709 32.6843 409.385 30.3604C407.062 28.0366 403.913 26.7309 400.626 26.7309H343.292C340.73 26.7258 338.267 27.7289 336.437 29.524C334.605 31.3187 333.553 33.7617 333.508 36.3256Z" fill="#BDDFE9"/>
<path d="M317.883 127.971C320.99 127.971 323.509 125.451 323.509 122.342C323.509 119.233 320.99 116.713 317.883 116.713C314.774 116.713 312.255 119.233 312.255 122.342C312.255 125.451 314.774 127.971 317.883 127.971Z" fill="#BDDFE9"/>
<path opacity="0.5" d="M308.061 132.185C309.615 132.185 310.873 130.925 310.873 129.37C310.873 127.816 309.615 126.555 308.061 126.555C306.505 126.555 305.247 127.816 305.247 129.37C305.247 130.925 306.505 132.185 308.061 132.185Z" fill="#BDDFE9"/>
<path d="M207.321 141.602C210.429 141.602 212.948 139.082 212.948 135.973C212.948 132.863 210.429 130.343 207.321 130.343C204.214 130.343 201.694 132.863 201.694 135.973C201.694 139.082 204.214 141.602 207.321 141.602Z" fill="#BDDFE9"/>
<path opacity="0.5" d="M197.482 145.815C199.036 145.815 200.296 144.555 200.296 143.001C200.296 141.446 199.036 140.186 197.482 140.186C195.928 140.186 194.668 141.446 194.668 143.001C194.668 144.555 195.928 145.815 197.482 145.815Z" fill="#BDDFE9"/>
<path d="M126.93 139.496C130.038 139.496 132.558 136.975 132.558 133.866C132.558 130.757 130.038 128.237 126.93 128.237C123.823 128.237 121.303 130.757 121.303 133.866C121.303 136.975 123.823 139.496 126.93 139.496Z" fill="#BDDFE9"/>
<path opacity="0.5" d="M117.091 143.709C118.645 143.709 119.905 142.449 119.905 140.894C119.905 139.339 118.645 138.079 117.091 138.079C115.537 138.079 114.278 139.339 114.278 140.894C114.278 142.449 115.537 143.709 117.091 143.709Z" fill="#BDDFE9"/>
<path d="M207.32 51.8679H241.544C241.544 52.9008 241.133 53.8916 240.403 54.6218C239.673 55.3523 238.683 55.7625 237.651 55.7625H211.231C210.199 55.7625 209.209 55.3523 208.479 54.6218C207.748 53.8916 207.338 52.9008 207.338 51.8679H207.32Z" fill="white"/>
<path d="M154.8 226.592H104.032C101.812 226.592 99.6829 225.71 98.1132 224.139C96.5435 222.569 95.6616 220.439 95.6616 218.219V97.8417C95.6616 95.6208 96.5435 93.4912 98.1132 91.921C99.6829 90.3505 101.812 89.4684 104.032 89.4684H154.8C157.02 89.4684 159.149 90.3505 160.718 91.921C162.288 93.4912 163.17 95.6208 163.17 97.8417V218.219C163.17 220.439 162.288 222.569 160.718 224.139C159.149 225.71 157.02 226.592 154.8 226.592ZM104.032 92.9558C102.75 92.9558 101.522 93.4649 100.616 94.3712C99.7097 95.2777 99.2008 96.5067 99.2008 97.7885V218.165C99.1938 218.804 99.3134 219.439 99.5533 220.031C99.7929 220.624 100.148 221.163 100.597 221.617C101.046 222.072 101.581 222.432 102.171 222.678C102.76 222.925 103.393 223.051 104.032 223.051H154.8C156.08 223.047 157.306 222.536 158.211 221.631C159.116 220.725 159.626 219.499 159.631 218.219V97.8417C159.631 96.5598 159.122 95.3308 158.216 94.4243C157.31 93.5181 156.081 93.0089 154.8 93.0089L104.032 92.9558Z" fill="#183154"/>
<path d="M240.411 226.592H189.643C187.423 226.592 185.294 225.709 183.725 224.139C182.155 222.569 181.273 220.439 181.273 218.218V57.3204C181.273 55.0999 182.155 52.97 183.725 51.3998C185.294 49.8295 187.423 48.9471 189.643 48.9471H240.411C242.631 48.9471 244.76 49.8295 246.33 51.3998C247.9 52.97 248.781 55.0999 248.781 57.3204V218.218C248.781 220.439 247.9 222.569 246.33 224.139C244.76 225.709 242.631 226.592 240.411 226.592ZM189.643 52.4876C188.362 52.4876 187.133 52.9968 186.227 53.9033C185.322 54.8096 184.812 56.0389 184.812 57.3204V218.218C184.812 219.5 185.322 220.729 186.227 221.636C187.133 222.542 188.362 223.051 189.643 223.051H240.411C241.691 223.047 242.917 222.536 243.822 221.631C244.727 220.725 245.238 219.499 245.242 218.218V57.3204C245.242 56.0389 244.733 54.8096 243.827 53.9033C242.921 52.9968 241.693 52.4876 240.411 52.4876H189.643Z" fill="#183154"/>
<path d="M269.59 51.3369C269.121 51.3369 268.67 51.1505 268.34 50.8186C268.007 50.4865 267.821 50.0363 267.821 49.5668V42.7869C267.821 42.3174 268.007 41.8669 268.34 41.5351C268.67 41.2029 269.121 41.0165 269.59 41.0165C270.06 41.0165 270.51 41.2029 270.843 41.5351C271.173 41.8669 271.361 42.3174 271.361 42.7869V49.5668C271.361 50.0363 271.173 50.4865 270.843 50.8186C270.51 51.1505 270.06 51.3369 269.59 51.3369Z" fill="#183154"/>
<path d="M269.59 59.2858C269.121 59.2858 268.67 59.0993 268.34 58.7672C268.007 58.4354 267.821 57.9852 267.821 57.5157V56.0463C267.821 55.5768 268.007 55.1264 268.34 54.7945C268.67 54.4624 269.121 54.2759 269.59 54.2759C270.06 54.2759 270.51 54.4624 270.843 54.7945C271.173 55.1264 271.361 55.5768 271.361 56.0463V57.5157C271.361 57.9852 271.173 58.4354 270.843 58.7672C270.51 59.0993 270.06 59.2858 269.59 59.2858Z" fill="#183154"/>
<path d="M326.959 226.592H276.19C273.971 226.592 271.841 225.709 270.272 224.139C268.702 222.569 267.821 220.439 267.821 218.218V63.4809C267.821 63.0114 268.007 62.5612 268.34 62.2291C268.67 61.8972 269.121 61.7105 269.59 61.7105C270.06 61.7105 270.51 61.8972 270.843 62.2291C271.173 62.5612 271.361 63.0114 271.361 63.4809V218.218C271.363 219.498 271.876 220.725 272.78 221.631C273.684 222.536 274.91 223.046 276.19 223.051H326.959C328.241 223.051 329.47 222.542 330.374 221.636C331.281 220.729 331.791 219.5 331.791 218.218V214.448C331.791 213.978 331.976 213.528 332.309 213.196C332.641 212.864 333.089 212.677 333.559 212.677C334.028 212.677 334.479 212.864 334.812 213.196C335.142 213.528 335.329 213.978 335.329 214.448V218.218C335.329 220.439 334.447 222.569 332.877 224.139C331.308 225.709 329.178 226.592 326.959 226.592Z" fill="#183154"/>
<path d="M333.559 174.21C333.089 174.21 332.641 174.023 332.309 173.692C331.976 173.36 331.791 172.909 331.791 172.44V8.37328C331.791 7.09155 331.281 5.86232 330.374 4.95599C329.47 4.04966 328.241 3.54049 326.959 3.54049H276.19C274.91 3.54516 273.684 4.05583 272.78 4.96114C271.876 5.86645 271.363 7.09297 271.361 8.37328V36.3079C271.361 36.7774 271.173 37.2276 270.843 37.5594C270.51 37.8916 270.06 38.078 269.59 38.078C269.121 38.078 268.67 37.8916 268.34 37.5594C268.007 37.2276 267.821 36.7774 267.821 36.3079V8.37328C267.821 6.15254 268.702 4.02278 270.272 2.45248C271.841 0.882182 273.971 0 276.19 0H326.959C329.178 0 331.308 0.882182 332.877 2.45248C334.447 4.02278 335.329 6.15254 335.329 8.37328V172.44C335.329 172.909 335.142 173.36 334.812 173.692C334.479 174.023 334.028 174.21 333.559 174.21Z" fill="#183154"/>
<path d="M296.33 42.274C296.093 42.3043 295.857 42.2404 295.67 42.0958C295.482 41.9515 295.358 41.7385 295.329 41.5037C295.299 41.269 295.364 41.0318 295.506 40.8443C295.651 40.6565 295.865 40.5342 296.099 40.5036L296.611 40.3796C296.724 40.3509 296.842 40.345 296.957 40.3625C297.073 40.3802 297.183 40.4207 297.282 40.4818C297.381 40.5427 297.467 40.6232 297.534 40.7182C297.601 40.8134 297.649 40.921 297.674 41.0348C297.727 41.2623 297.687 41.5018 297.566 41.7009C297.443 41.8997 297.247 42.0422 297.019 42.0969L296.558 42.2208L296.33 42.274Z" fill="white"/>
<path d="M286.932 54.6301C286.816 54.6255 286.704 54.5982 286.596 54.5493C286.492 54.5005 286.395 54.4316 286.317 54.346C286.24 54.2604 286.178 54.1603 286.138 54.0511C286.097 53.9419 286.079 53.8258 286.084 53.7096C286.084 53.3555 286.527 45.0707 293.569 41.5125C293.778 41.4076 294.02 41.3897 294.242 41.4626C294.465 41.5356 294.647 41.6936 294.755 41.9021C294.808 42.0051 294.841 42.118 294.851 42.2339C294.862 42.3501 294.849 42.4671 294.811 42.5776C294.776 42.6884 294.717 42.7906 294.639 42.8783C294.564 42.9661 294.47 43.0374 294.366 43.0881C288.225 46.2037 287.852 53.7096 287.852 53.7096C287.857 53.8317 287.838 53.9537 287.793 54.0678C287.75 54.1815 287.68 54.2851 287.594 54.3715C287.508 54.4581 287.404 54.5257 287.291 54.5703C287.176 54.6148 287.055 54.6352 286.932 54.6301Z" fill="white"/>
<path d="M215.018 120.005C226.257 120.005 235.368 110.891 235.368 99.6475C235.368 88.4041 226.257 79.2896 215.018 79.2896C203.78 79.2896 194.668 88.4041 194.668 99.6475C194.668 110.891 203.78 120.005 215.018 120.005Z" fill="#BDDFE9"/>
<path d="M215.018 111.543C226.257 111.543 235.368 102.428 235.368 91.1851C235.368 79.9417 226.257 70.8272 215.018 70.8272C203.78 70.8272 194.668 79.9417 194.668 91.1851C194.668 102.428 203.78 111.543 215.018 111.543Z" fill="white"/>
<path d="M146.059 166.403C145.668 166.402 145.288 166.272 144.979 166.032C144.794 165.889 144.638 165.712 144.521 165.509C144.405 165.306 144.329 165.082 144.3 164.85C144.27 164.618 144.286 164.382 144.348 164.157C144.411 163.931 144.517 163.72 144.661 163.536L195.128 98.4968C195.425 98.1577 195.84 97.9447 196.288 97.9009C196.736 97.8572 197.185 97.9862 197.541 98.2618C197.897 98.537 198.136 98.9381 198.207 99.3832C198.278 99.828 198.177 100.284 197.924 100.656L147.457 165.784C147.285 165.985 147.07 166.145 146.828 166.252C146.586 166.36 146.323 166.411 146.059 166.403Z" fill="#183154"/>
<path d="M224.892 73.8016C226.85 77.6276 227.544 81.9761 226.876 86.2222C226.208 90.468 224.212 94.3926 221.174 97.432C218.135 100.471 214.212 102.469 209.968 103.137C205.724 103.806 201.377 103.11 197.552 101.152C199.003 104.025 201.114 106.512 203.712 108.411C206.31 110.31 209.321 111.565 212.498 112.074C215.675 112.583 218.927 112.331 221.988 111.339C225.048 110.347 227.83 108.643 230.105 106.368C232.38 104.092 234.084 101.309 235.075 98.2465C236.067 95.1846 236.319 91.9312 235.81 88.7529C235.301 85.5748 234.046 82.5626 232.148 79.9638C230.25 77.3647 227.764 75.2528 224.892 73.8016Z" fill="#BDDFE9"/>
<path d="M94.7773 16.6756L110.898 49.3721L146.979 54.6121L120.878 80.0681L127.036 116.004L94.7773 99.0452L62.5185 116.004L68.6766 80.0681L42.5757 54.6121L78.6392 49.3721L94.7773 16.6756Z" fill="#8FDAFF"/>
<path d="M120.878 80.7944L127.036 116.837L94.7773 99.7714L62.5186 116.837L65.7924 97.7003C78.1601 95.9251 90.0687 91.7775 100.865 85.4855C114.316 77.619 125.682 66.6364 134.008 53.4617L146.979 55.3561L120.878 80.7944Z" fill="#38609B"/>
<path d="M103.289 37.1753C102.959 37.1774 102.636 37.0875 102.354 36.9156C102.073 36.7433 101.845 36.4963 101.697 36.2014L99.6263 31.9706C99.4345 31.5527 99.4127 31.0762 99.5657 30.6424C99.7188 30.2086 100.035 29.8515 100.446 29.6465C100.858 29.4418 101.334 29.4054 101.772 29.5451C102.21 29.6849 102.577 29.9897 102.794 30.395L104.882 34.6261C104.985 34.8351 105.045 35.0626 105.059 35.2952C105.074 35.5278 105.043 35.7609 104.967 35.9812C104.892 36.2017 104.773 36.4048 104.619 36.5794C104.464 36.7538 104.277 36.8963 104.068 36.9982C103.825 37.1157 103.559 37.1763 103.289 37.1753Z" fill="#183154"/>
<path d="M129.39 120.713L94.7778 102.515L60.1654 120.713L66.7659 82.1572L38.7717 54.8777L77.4716 49.2484L94.7778 14.162L99.697 24.1462C99.8891 24.5642 99.9108 25.0406 99.7576 25.4744C99.6045 25.9082 99.2887 26.2654 98.8769 26.4702C98.4651 26.675 97.9897 26.7114 97.5516 26.5717C97.1135 26.432 96.747 26.1271 96.5297 25.7217L94.7601 22.1812L79.825 52.4702L46.3807 57.3207L70.5704 80.918L64.8547 114.252L94.7778 98.5142L124.683 114.252L118.968 80.918L143.175 57.3207L109.713 52.4702L108.085 49.1599C107.876 48.7395 107.843 48.2536 107.992 47.8088C108.141 47.364 108.461 46.9967 108.881 46.7877C109.09 46.685 109.317 46.6246 109.55 46.6099C109.782 46.5951 110.015 46.6265 110.236 46.7022C110.456 46.7778 110.659 46.8964 110.834 47.0507C111.008 47.2052 111.15 47.3924 111.252 47.602L112.066 49.2307L150.784 54.8777L122.772 82.1572L129.39 120.713Z" fill="#183154"/>
<path d="M106.97 44.6458C106.643 44.6447 106.323 44.5532 106.045 44.3813C105.767 44.2096 105.542 43.9641 105.395 43.6719L104.74 42.3445C104.633 42.1339 104.569 41.9045 104.551 41.6692C104.533 41.4339 104.561 41.1973 104.634 40.973C104.707 40.7487 104.823 40.5408 104.977 40.3616C105.13 40.1821 105.318 40.0349 105.528 39.9281C105.738 39.821 105.967 39.7566 106.203 39.7384C106.438 39.7199 106.674 39.7483 106.899 39.8213C107.123 39.8945 107.33 40.0112 107.51 40.1647C107.689 40.3182 107.836 40.5054 107.943 40.7157L108.598 42.0435C108.807 42.4636 108.84 42.9494 108.691 43.3943C108.541 43.8391 108.221 44.2063 107.802 44.4156C107.548 44.5597 107.262 44.6388 106.97 44.6458Z" fill="#183154"/>
<g opacity="0.15">
<path opacity="0.15" d="M91.9279 76.581C98.1434 76.581 103.182 71.5403 103.182 65.3221C103.182 59.1042 98.1434 54.0635 91.9279 54.0635C85.7124 54.0635 80.6736 59.1042 80.6736 65.3221C80.6736 71.5403 85.7124 76.581 91.9279 76.581Z" fill="white"/>
<path opacity="0.15" d="M78.9754 87.5741C82.0835 87.5741 84.6026 85.0536 84.6026 81.9445C84.6026 78.8356 82.0835 76.3152 78.9754 76.3152C75.8677 76.3152 73.3483 78.8356 73.3483 81.9445C73.3483 85.0536 75.8677 87.5741 78.9754 87.5741Z" fill="white"/>
</g>
<path d="M95.3262 41.8661C96.0302 41.8661 96.7052 41.5863 97.2031 41.0884C97.7008 40.5905 97.9806 39.9152 97.9806 39.211C97.9806 38.5065 97.7008 37.8312 97.2031 37.3333C96.7052 36.8354 96.0302 36.5555 95.3262 36.5555C94.6223 36.5555 93.947 36.8354 93.4494 37.3333C92.9514 37.8312 92.6719 38.5065 92.6719 39.211C92.6719 39.9152 92.9514 40.5905 93.4494 41.0884C93.947 41.5863 94.6223 41.8661 95.3262 41.8661Z" fill="#FDFEFF"/>
<path d="M86.6026 60.1883C87.6071 56.0134 89.2997 52.035 91.6103 48.4162C92.9729 46.2389 89.5223 44.2383 88.1774 46.4159C85.6849 50.3253 83.8552 54.6199 82.7627 59.1262C82.1964 61.6223 86.0186 62.6667 86.6026 60.1883Z" fill="#FDFEFF"/>
<path d="M215.019 113.296C210.642 113.299 206.363 112.004 202.723 109.574C199.083 107.144 196.245 103.688 194.569 99.644C192.892 95.5999 192.453 91.1492 193.306 86.8551C194.159 82.561 196.266 78.6167 199.36 75.5208C202.455 72.4251 206.398 70.3172 210.69 69.4641C214.982 68.6107 219.431 69.0504 223.474 70.7274C227.516 72.4044 230.971 75.2434 233.4 78.885C235.829 82.5269 237.124 86.8076 237.12 91.1854C237.106 97.0452 234.773 102.661 230.631 106.804C226.49 110.948 220.876 113.282 215.019 113.296ZM215.019 72.5802C211.344 72.5767 207.75 73.6635 204.693 75.7029C201.636 77.7424 199.251 80.6431 197.842 84.0381C196.432 87.4335 196.061 91.1704 196.774 94.7766C197.488 98.3831 199.254 101.697 201.85 104.299C204.446 106.901 207.755 108.674 211.359 109.395C214.962 110.115 218.698 109.751 222.095 108.347C225.491 106.944 228.395 104.564 230.44 101.509C232.485 98.4544 233.578 94.8619 233.581 91.1854C233.581 86.2571 231.627 81.5303 228.146 78.0421C224.666 74.5539 219.945 72.5896 215.019 72.5802Z" fill="#183154"/>
<path d="M333.666 205.826C333.197 205.826 332.746 205.64 332.416 205.308C332.083 204.976 331.895 204.526 331.895 204.056V193.081C331.895 192.611 332.083 192.161 332.416 191.829C332.746 191.497 333.197 191.31 333.666 191.31C334.136 191.31 334.586 191.497 334.916 191.829C335.249 192.161 335.437 192.611 335.437 193.081V204.056C335.437 204.526 335.249 204.976 334.916 205.308C334.586 205.64 334.136 205.826 333.666 205.826Z" fill="#183154"/>
<path d="M333.666 186.39C333.197 186.39 332.746 186.203 332.416 185.871C332.083 185.539 331.895 185.089 331.895 184.619V182.513C331.895 182.043 332.083 181.593 332.416 181.261C332.746 180.929 333.197 180.743 333.666 180.743C334.136 180.743 334.586 180.929 334.916 181.261C335.249 181.593 335.437 182.043 335.437 182.513V184.619C335.437 185.089 335.249 185.539 334.916 185.871C334.586 186.203 334.136 186.39 333.666 186.39Z" fill="#183154"/>
</svg>
