<svg width="500" height="387" viewBox="0 0 500 387" fill="none" xmlns="http://www.w3.org/2000/svg">
<g clip-path="url(#clip0_78_1042)">
<path d="M458.531 386.042C464.131 386.042 469.674 384.908 474.824 382.708C479.974 380.508 484.625 377.287 488.497 373.24C492.369 369.194 495.38 364.405 497.351 359.162C499.321 353.92 500.209 348.333 499.961 342.738C498.597 311.88 478.986 267.656 425.532 227.715C351.362 172.297 400.261 45.7622 302.904 32.5458C142.877 10.8275 173.151 152.865 74.339 204.65C11.4399 237.613 0.0039507 302.11 0 344.639C0.010299 355.627 4.3845 366.162 12.1607 373.926C19.9369 381.691 30.4785 386.049 41.4672 386.042H458.531Z" fill="#F3F5FD"/>
<path d="M361.323 5.80945H199.74C187.367 5.80945 177.336 15.8403 177.336 28.2139V357.913C177.336 370.287 187.367 380.317 199.74 380.317H361.323C373.697 380.317 383.728 370.287 383.728 357.913V28.2139C383.728 15.8403 373.697 5.80945 361.323 5.80945Z" fill="white"/>
<path d="M361.323 386.128H199.741C192.261 386.119 185.089 383.144 179.8 377.854C174.51 372.565 171.535 365.393 171.526 357.913V28.2146C171.535 20.7343 174.51 13.5629 179.8 8.27349C185.089 2.98411 192.261 0.00871323 199.741 0H361.325C368.805 0.00871323 375.976 2.98411 381.266 8.27349C386.555 13.5629 389.53 20.7343 389.539 28.2146V357.913C389.53 365.394 386.555 372.565 381.265 377.855C375.976 383.144 368.804 386.119 361.323 386.128ZM199.741 11.619C195.342 11.6246 191.125 13.3746 188.014 16.4851C184.904 19.5957 183.154 23.8129 183.148 28.212V357.913C183.153 362.312 184.903 366.529 188.014 369.64C191.125 372.751 195.342 374.501 199.741 374.506H361.325C365.724 374.501 369.941 372.751 373.052 369.64C376.162 366.529 377.912 362.312 377.918 357.913V28.2146C377.912 23.8156 376.162 19.5983 373.051 16.4878C369.941 13.3772 365.724 11.6272 361.325 11.6216L199.741 11.619Z" fill="#DEE8F5"/>
<path d="M245.152 5.80945H315.911V19.5381C315.911 20.8877 315.645 22.224 315.129 23.4708C314.613 24.7175 313.856 25.8504 312.901 26.8047C311.947 27.7589 310.814 28.5159 309.567 29.0323C308.321 29.5488 306.984 29.8146 305.635 29.8146H255.428C252.703 29.8146 250.089 28.7319 248.161 26.8047C246.234 24.8775 245.152 22.2636 245.152 19.5381V5.80945H245.152Z" fill="#DEE8F5"/>
<path d="M57.6757 87.959C57.5743 78.1685 61.444 72.1016 66.6899 68.7705C71.8666 65.4835 88.1 62.6225 94.2546 74.5543C98.2711 82.3405 96.6856 85.1237 97.8234 97.5941C98.9612 110.064 103.332 111.373 107.766 126.489C111.243 138.346 91.7656 144.64 74.9021 144.096C58.0385 143.552 47.3459 139.816 46.3675 129.092C44.9604 113.698 57.8732 107.145 57.6757 87.959Z" fill="#0F1011"/>
<path d="M67.7244 115.031C67.7244 115.031 72.7905 112.285 71.5269 98.431L82.0279 96.3839C82.0279 96.3839 80.9599 108.829 86.3177 112.723L67.7244 115.031Z" fill="#E98862"/>
<g opacity="0.15">
<path opacity="0.15" d="M84.1388 110.14L75.3386 103.535L82.2017 103.404C82.4222 105.75 83.0792 108.035 84.1388 110.14Z" fill="black"/>
</g>
<path d="M65.5086 93.1047C66.2757 97.3043 68.6073 101.27 72.3302 102.591C76.3894 104.159 80.7705 104.71 85.0916 104.196C96.5986 103.146 94.0807 76.9833 88.5669 71.9474C83.053 66.9116 67.0356 70.2796 65.1629 78.8039C64.1944 83.2148 64.7791 89.1093 65.5086 93.1047Z" fill="#E98862"/>
<path d="M81.9429 89.7158C82.4698 89.7158 82.897 89.2886 82.897 88.7617C82.897 88.2348 82.4698 87.8076 81.9429 87.8076C81.4159 87.8076 80.9888 88.2348 80.9888 88.7617C80.9888 89.2886 81.4159 89.7158 81.9429 89.7158Z" fill="#0F1011"/>
<path d="M89.4643 89.029C89.9913 89.029 90.4184 88.6019 90.4184 88.0749C90.4184 87.548 89.9913 87.1208 89.4643 87.1208C88.9374 87.1208 88.5103 87.548 88.5103 88.0749C88.5103 88.6019 88.9374 89.029 89.4643 89.029Z" fill="#0F1011"/>
<path d="M91.0941 86.0272C91.213 86.0272 91.3271 85.9799 91.4112 85.8958C91.4953 85.8117 91.5425 85.6977 91.5425 85.5787C91.5425 85.4598 91.4953 85.3458 91.4112 85.2617C91.3271 85.1776 91.213 85.1303 91.0941 85.1303L88.567 85.1224C88.4511 85.1269 88.3415 85.176 88.2611 85.2596C88.1807 85.3431 88.1357 85.4546 88.1357 85.5705C88.1357 85.6865 88.1807 85.7979 88.2611 85.8814C88.3415 85.965 88.4511 86.0142 88.567 86.0186L91.0941 86.0272Z" fill="#0F1011"/>
<path d="M79.8635 87.051C79.9003 87.0511 79.937 87.0467 79.9728 87.0378L82.4591 86.4156C82.5719 86.3845 82.6681 86.3105 82.7271 86.2094C82.7861 86.1083 82.8032 85.9882 82.7749 85.8746C82.7465 85.7611 82.6749 85.6631 82.5753 85.6017C82.4757 85.5402 82.356 85.5202 82.2418 85.5458L79.7555 86.1687C79.6493 86.195 79.5565 86.2593 79.4945 86.3493C79.4325 86.4394 79.4056 86.5491 79.4188 86.6576C79.4321 86.7662 79.4847 86.8661 79.5666 86.9386C79.6485 87.011 79.7541 87.051 79.8635 87.051Z" fill="#0F1011"/>
<path d="M82.4531 96.2714C82.4531 96.2714 85.9785 96.6105 88.4391 95.7249C88.4391 95.7249 88.4391 98.0446 85.6558 98.2987C82.8726 98.5529 82.4531 96.2714 82.4531 96.2714Z" fill="white"/>
<path d="M73.1571 82.1377C72.9069 101.136 71.0758 108.516 71.0758 108.516C71.0758 108.516 62.08 97.6455 60.7223 86.1285C59.4495 75.3359 67.3522 68.8837 72.7206 67.6314C93.1194 62.8734 94.5357 77.7524 94.5357 77.7524C93.2188 82.8284 70.948 85.9778 70.948 85.9778" fill="#0F1011"/>
<path d="M77.1637 92.9171C77.2563 93.9828 76.923 95.0418 76.2367 95.8623C75.5505 96.6828 74.5671 97.1981 73.5018 97.2954C72.4365 97.3926 71.3761 97.0639 70.5526 96.3812C69.7291 95.6985 69.2095 94.7174 69.1076 93.6526C69.0501 93.122 69.1 92.5852 69.2543 92.0743C69.4086 91.5633 69.6641 91.0886 70.0056 90.6785C70.3471 90.2683 70.7677 89.9311 71.2422 89.6869C71.7168 89.4426 72.2357 89.2963 72.7679 89.2568C75.65 89.1363 76.9603 90.6929 77.1637 92.9171Z" fill="#E98862"/>
<g opacity="0.15">
<path opacity="0.15" d="M86.224 94.0141C86.1456 94.0139 86.0698 93.9858 86.0103 93.9347C85.9508 93.8837 85.9115 93.813 85.8994 93.7355C85.8874 93.6581 85.9033 93.5788 85.9445 93.5121C85.9857 93.4453 86.0493 93.3955 86.124 93.3714L88.0591 92.7578L86.6764 89.7473C86.6569 89.7079 86.6454 89.6649 86.6428 89.621C86.6401 89.577 86.6463 89.533 86.661 89.4915C86.6757 89.45 86.6985 89.4118 86.7282 89.3793C86.7579 89.3468 86.7938 89.3206 86.8337 89.3021C86.8737 89.2837 86.917 89.2735 86.961 89.2721C87.005 89.2707 87.0488 89.2782 87.0899 89.294C87.131 89.3099 87.1685 89.3338 87.2001 89.3644C87.2318 89.395 87.257 89.4316 87.2743 89.4721L88.8157 92.821C88.8352 92.8632 88.8455 92.9091 88.8459 92.9557C88.8464 93.0022 88.837 93.0483 88.8183 93.0909C88.7996 93.1335 88.7721 93.1717 88.7377 93.2029C88.7032 93.2341 88.6624 93.2577 88.6182 93.272L86.3281 93.9963C86.2946 94.0078 86.2595 94.0138 86.224 94.0141Z" fill="black"/>
</g>
<path d="M154.218 144.8C154.218 144.8 158.091 140.205 162.21 139.477C166.329 138.749 165.3 141.118 162.853 142.886C160.406 144.654 154.886 148.214 154.886 148.214" fill="#E98862"/>
<path d="M157.053 143.405C157.053 143.405 164.739 140.279 168.033 141.693C168.033 141.693 170.905 144.511 168.091 148.212C165.391 151.761 158.346 153.08 158.346 153.08L157.053 143.405Z" fill="#E98862"/>
<path d="M112.626 378.918L98.8948 377.285C99.5131 372.088 100.212 365.845 100.259 364.821C100.259 364.887 100.259 364.941 100.259 364.983H114.087C114.084 365.398 114.084 366.658 112.626 378.918Z" fill="#E98862"/>
<path d="M57.5296 380.57L43.7021 380.526C43.7021 380.526 43.7482 366.247 43.7482 364.986H57.5757C57.5757 366.251 57.5296 380.57 57.5296 380.57Z" fill="#E98862"/>
<path d="M93.3683 374.551L117.731 374.137C116.718 348.481 116.546 319.138 116.274 292.584C116.198 286.003 115.701 279.433 114.786 272.915C110.867 244.784 108.31 216.815 103.034 188.845L102.857 188.897L102.343 185.387L52.2501 182.296L49.6426 215.021C49.6426 215.021 43.1174 328.239 40.1418 373.763L64.4182 375.814C68.7923 331.181 75.5612 266.145 79.7246 219.257C84.5056 242.085 87.7577 265.722 91.9151 288.355C92.7428 316.689 93.4454 346.305 93.3683 374.551Z" fill="#262626"/>
<path d="M74.339 385.918C74.7109 385.916 75.0784 385.838 75.4187 385.687C75.7589 385.537 76.0645 385.319 76.3165 385.045C76.5684 384.771 76.7612 384.449 76.8828 384.098C77.0045 383.746 77.0524 383.373 77.0235 383.003C76.9833 382.489 76.7972 381.997 76.487 381.585C76.1768 381.174 75.7555 380.859 75.2727 380.679L59.1782 375.288C58.8664 375.185 58.536 375.15 58.2096 375.187C57.8832 375.223 57.5685 375.33 57.2871 375.499C55.0745 377.034 52.4278 377.819 49.736 377.738C47.6395 377.589 45.6271 376.853 43.9285 375.615C43.7791 375.493 43.5981 375.415 43.4064 375.392C43.2146 375.369 43.0202 375.4 42.8457 375.483C42.6712 375.566 42.5239 375.696 42.4209 375.86C42.3179 376.023 42.2634 376.212 42.2639 376.406V384.275C42.2639 384.508 42.3098 384.737 42.3988 384.952C42.4879 385.166 42.6184 385.361 42.7829 385.525C42.9475 385.689 43.1427 385.818 43.3575 385.907C43.5722 385.995 43.8023 386.04 44.0345 386.039L74.339 385.918Z" fill="#C1D8ED"/>
<path d="M129.473 385.918C129.845 385.916 130.212 385.838 130.553 385.687C130.893 385.537 131.198 385.319 131.45 385.045C131.702 384.771 131.895 384.449 132.016 384.097C132.138 383.746 132.186 383.373 132.157 383.003C132.117 382.489 131.931 381.997 131.621 381.585C131.31 381.173 130.889 380.859 130.406 380.679L114.312 375.288C114 375.185 113.67 375.15 113.344 375.187C113.017 375.223 112.703 375.33 112.421 375.499C110.208 377.034 107.562 377.818 104.87 377.738C102.773 377.589 100.761 376.853 99.0619 375.615C98.9125 375.493 98.7315 375.416 98.5399 375.392C98.3483 375.369 98.154 375.401 97.9796 375.483C97.8053 375.566 97.658 375.697 97.555 375.86C97.4521 376.023 97.3976 376.213 97.398 376.406V384.275C97.3979 384.508 97.4438 384.737 97.5329 384.952C97.6219 385.166 97.7525 385.361 97.917 385.525C98.0815 385.689 98.2767 385.818 98.4915 385.907C98.7063 385.995 98.9363 386.04 99.1685 386.039L129.473 385.918Z" fill="#C1D8ED"/>
<path d="M120.349 167.667C119.147 167.667 117.965 167.354 116.921 166.758C115.877 166.162 115.007 165.305 114.395 164.269L90.5869 123.976L102.492 116.941L123.436 152.388L156.537 141.066L161.014 154.149L122.588 167.294C121.867 167.541 121.111 167.667 120.349 167.667Z" fill="#367CFF"/>
<path d="M105.591 187.592C102.832 193.933 48.622 196.567 47.8977 185.413C47.4368 178.315 53.6921 172.119 53.6921 158.285C53.6921 144.451 40.9642 126.785 51.3348 116.414C54.3439 113.405 59.5391 111.462 65.8734 111.456C66.3475 115.15 88.7743 115.163 88.9455 111.541C89.8015 111.555 90.4665 111.568 90.8813 111.587C112.729 112.529 103.128 137.392 102.918 155.658C102.661 177.03 108.436 181.06 105.591 187.592Z" fill="#367CFF"/>
<path d="M139.794 174.063C138.114 174.063 136.498 173.421 135.276 172.268L103.325 142.119C102.691 141.527 102.18 140.815 101.823 140.025C101.465 139.235 101.266 138.382 101.239 137.515C101.212 136.649 101.356 135.785 101.664 134.974C101.971 134.163 102.436 133.421 103.031 132.79C103.626 132.159 104.34 131.652 105.132 131.298C105.924 130.944 106.778 130.749 107.645 130.726C108.512 130.703 109.375 130.851 110.184 131.163C110.994 131.474 111.734 131.942 112.362 132.541L139.431 158.082L195.718 96.056C196.295 95.4038 196.997 94.8727 197.781 94.4936C198.566 94.1145 199.418 93.8949 200.288 93.8474C201.158 93.8 202.029 93.9257 202.85 94.2173C203.671 94.5088 204.426 94.9605 205.071 95.546C205.716 96.1315 206.239 96.8393 206.609 97.6283C206.978 98.4172 207.188 99.2718 207.225 100.142C207.262 101.013 207.126 101.882 206.825 102.7C206.523 103.517 206.063 104.267 205.469 104.905L144.671 171.904C144.082 172.552 143.371 173.076 142.577 173.447C141.784 173.817 140.925 174.025 140.05 174.059C139.965 174.061 139.879 174.063 139.794 174.063Z" fill="#0CBC8B"/>
<path d="M88.9456 111.541C88.7744 115.163 86.8057 120.49 80.7282 120.891C72.6292 121.425 66.3476 115.15 65.8735 111.456H65.8933C73.8671 111.455 84.297 111.468 88.9456 111.541Z" fill="#E98862"/>
<path d="M107.358 162.236C107.358 162.236 105.834 153.564 112.103 152.847C116.059 152.394 126.003 146.896 127.889 151.492C129.525 155.478 120.029 160.225 116.629 161.105C113.583 161.888 107.358 162.236 107.358 162.236Z" fill="#E98862"/>
<path d="M109.966 153.537C109.966 153.537 118.045 149.107 120.255 149.211C122.212 149.302 118.883 153.088 118.883 153.088L109.966 153.537Z" fill="#E98862"/>
<path d="M74.7888 176.426C73.4024 176.426 72.0457 176.025 70.8827 175.27C69.7197 174.515 68.8002 173.44 68.2352 172.174L48.1189 127.136L61.228 121.281L78.7539 160.524L112.496 150.168L116.71 163.892L76.8958 176.109C76.2132 176.319 75.503 176.426 74.7888 176.426Z" fill="#367CFF"/>
<path d="M171.961 143.081C172.134 142.832 172.216 142.532 172.195 142.23C172.174 141.928 172.051 141.642 171.846 141.419C170.848 140.34 168.995 138.629 167.776 139.261C166.037 140.163 162.558 143.512 163.524 145.253C164.49 146.994 166.487 148.905 167.778 148.326C168.754 147.888 170.846 144.704 171.961 143.081Z" fill="#E98862"/>
<path d="M274.78 251.764H211.036V279.056H274.78V251.764Z" fill="#0CBC8B"/>
<path d="M350.027 251.764H286.283V279.056H350.027V251.764Z" fill="#C1D8ED"/>
<path d="M449.392 386.042H336.106C329.893 369.874 348.561 361.901 354.497 372.379C350.957 366.129 350.014 358.207 357.369 353.107C365.076 349.065 374.357 353.686 375.774 360.998C373.884 351.261 382.885 341.558 392.901 339.352C418.61 333.693 424.341 359.051 422.012 363.038C428.802 351.421 456.876 365.759 449.392 386.042Z" fill="#C1D8ED"/>
<path d="M326.525 128.069C326.542 139.962 321.933 151.395 313.672 159.951C307.47 146.09 294.953 136.628 280.539 136.628C266.113 136.628 253.595 146.104 247.393 159.964C242.173 154.541 238.363 147.92 236.299 140.682C234.234 133.443 233.978 125.809 235.551 118.448C237.125 111.087 240.482 104.226 245.326 98.4644C250.17 92.7033 256.354 88.219 263.335 85.4051C270.317 82.5912 277.882 81.5337 285.367 82.3252C292.852 83.1168 300.029 85.7333 306.267 89.9452C312.506 94.1571 317.615 99.8356 321.147 106.482C324.679 113.129 326.526 120.542 326.525 128.069Z" fill="#C1D8ED"/>
<path d="M280.531 132.807C290.588 132.807 298.741 124.654 298.741 114.597C298.741 104.541 290.588 96.3879 280.531 96.3879C270.475 96.3879 262.322 104.541 262.322 114.597C262.322 124.654 270.475 132.807 280.531 132.807Z" fill="#F3F5FD"/>
<path d="M313.672 159.951C309.382 164.411 304.236 167.96 298.542 170.385C292.848 172.81 286.724 174.06 280.535 174.061C274.346 174.062 268.221 172.814 262.526 170.392C256.831 167.97 251.684 164.423 247.392 159.964C253.595 146.104 266.112 136.628 280.539 136.628C294.952 136.628 307.469 146.09 313.672 159.951Z" fill="#F3F5FD"/>
<path d="M350.027 192.264H211.036V197.814H350.027V192.264Z" fill="#DEE8F5"/>
<path d="M350.027 207.374H211.036V212.924H350.027V207.374Z" fill="#DEE8F5"/>
<path d="M274.78 223.002H211.036V228.552H274.78V223.002Z" fill="#DEE8F5"/>
</g>
<defs>
<clipPath id="clip0_78_1042">
<rect width="500" height="386.128" fill="white"/>
</clipPath>
</defs>
</svg>
