<svg width="500" height="344" viewBox="0 0 500 344" fill="none" xmlns="http://www.w3.org/2000/svg">
<path d="M499.171 343.495H0C5.46937 329.546 15.5704 317.714 29.8092 314.203C50.6389 309.076 72.6819 323.177 93.4647 317.874C105.272 314.864 114.568 306.096 124.336 298.812C161.188 271.34 211.685 263.219 255.292 277.762C278.084 285.359 298.854 298.646 322.203 304.292C352.396 311.599 383.97 305.539 415.02 304.54C445.259 303.572 488.587 315.893 499.171 343.495Z" fill="#F3F5FD"/>
<path d="M417.98 239.441C414.413 250.249 402.101 259.852 405.78 267.8C407.179 270.821 408.583 273.981 409.23 277.208C409.649 279.133 409.719 281.117 409.436 283.066C408.11 291.482 400.234 297.072 392.91 301.425C392.459 301.693 392.002 301.966 391.545 302.239C384.606 306.397 377.338 311.185 375.108 318.86C373.871 323.123 374.417 327.683 373.904 332.091C373.419 336.143 372.042 340.037 369.875 343.495H323.107C318.954 338.919 319.3 331.227 322.46 325.832C325.843 320.058 331.556 316.134 336.712 311.865C341.165 308.175 345.507 303.733 347.207 298.315C347.477 297.458 347.676 296.58 347.803 295.69C348.216 292.758 347.993 277.782 353.076 268.564C360.935 254.329 373.681 257.834 377.577 249.803C379.071 246.726 380.359 208.921 405.189 215.904C407.61 216.552 409.874 217.686 411.843 219.237C413.812 220.787 415.444 222.723 416.641 224.925C417.838 227.127 418.574 229.55 418.804 232.045C419.034 234.541 418.754 237.058 417.98 239.441V239.441Z" fill="#C1D8ED"/>
<path d="M463.4 298.554C462.687 299.045 461.92 299.453 461.114 299.769C454.415 302.283 435.782 302.005 433.057 308.62C431.775 311.73 431.468 315.164 430.37 318.346C427.879 325.564 421.302 330.976 413.945 333.01C411.298 333.741 408.555 334.081 405.936 334.894C400.875 336.472 396.684 339.643 392.999 343.494H332.598C332.572 339.489 333.557 335.541 335.463 332.018C337.369 328.495 340.133 325.51 343.5 323.34C350.217 319.104 358.7 318.313 365.293 313.887C369.641 310.967 372.767 306.748 375.248 302.083C376.825 299.031 378.219 295.887 379.422 292.669C381.267 287.881 383.196 282.742 387.387 279.777C389.442 278.441 391.721 277.486 394.114 276.957C400.167 275.374 404.821 276.305 409.23 277.208C414.58 278.3 419.574 279.342 426.279 275.781C438.173 269.46 455.563 237.942 472.942 267.889C479.909 279.9 470.294 293.94 463.4 298.554Z" fill="#8DDBE0"/>
<path d="M84.6037 239.441C88.1708 250.249 100.483 259.852 96.8043 267.8C95.4054 270.821 94.0008 273.981 93.3543 277.208C92.9348 279.133 92.8649 281.117 93.1481 283.066C94.4746 291.482 102.35 297.072 109.674 301.425C110.125 301.693 110.582 301.966 111.039 302.239C117.978 306.397 125.246 311.185 127.476 318.86C128.713 323.123 128.167 327.683 128.68 332.091C129.166 336.143 130.542 340.037 132.709 343.495H179.477C183.63 338.919 183.284 331.227 180.124 325.832C176.741 320.058 171.028 316.134 165.872 311.865C161.419 308.175 157.077 303.733 155.377 298.315C155.107 297.458 154.908 296.58 154.781 295.69C154.368 292.758 154.591 277.782 149.508 268.564C141.649 254.329 128.903 257.834 125.007 249.803C123.513 246.726 122.225 208.921 97.3951 215.904C94.974 216.552 92.71 217.686 90.7411 219.237C88.7723 220.787 87.1398 222.723 85.943 224.925C84.7463 227.127 84.0104 229.55 83.7801 232.045C83.5499 234.541 83.8301 237.058 84.6037 239.441V239.441Z" fill="#C1D8ED"/>
<path d="M39.1823 298.554C39.8953 299.045 40.662 299.453 41.4675 299.769C48.167 302.283 66.7995 302.005 69.525 308.62C70.8069 311.73 71.1134 315.164 72.2114 318.346C74.7028 325.564 81.2797 330.976 88.6368 333.01C91.2843 333.741 94.0265 334.081 96.6461 334.894C101.707 336.472 105.898 339.643 109.582 343.494H169.983C170.01 339.489 169.025 335.541 167.119 332.018C165.213 328.495 162.449 325.51 159.081 323.34C152.365 319.104 143.882 318.313 137.289 313.887C132.941 310.967 129.815 306.748 127.334 302.083C125.756 299.031 124.362 295.887 123.16 292.669C121.315 287.881 119.386 282.742 115.195 279.777C113.14 278.441 110.861 277.486 108.468 276.957C102.415 275.374 97.7608 276.305 93.3521 277.208C88.0014 278.3 83.0075 279.342 76.3024 275.781C64.4084 269.46 47.0188 237.942 29.6403 267.889C22.6756 279.9 32.29 293.94 39.1823 298.554Z" fill="#8DDBE0"/>
<path d="M321.376 4.9176H184.6C174.126 4.9176 165.635 13.4084 165.635 23.8823V319.684C165.635 330.158 174.126 338.649 184.6 338.649H321.376C331.849 338.649 340.34 330.158 340.34 319.684V23.8823C340.34 13.4084 331.849 4.9176 321.376 4.9176Z" fill="white"/>
<path d="M321.376 343.567H184.6C178.268 343.559 172.198 341.04 167.721 336.563C163.244 332.086 160.726 326.016 160.718 319.684V23.8828C160.726 17.5512 163.244 11.4809 167.721 7.00366C172.198 2.52639 178.268 0.00767046 184.6 0L321.376 0C327.708 0.00767046 333.778 2.52639 338.255 7.00366C342.732 11.4809 345.25 17.5512 345.258 23.8828V319.684C345.25 326.016 342.732 332.086 338.255 336.563C333.778 341.04 327.708 343.559 321.376 343.567V343.567ZM184.6 9.83572C180.876 9.83955 177.305 11.3207 174.671 13.9542C172.037 16.5877 170.556 20.1584 170.552 23.8828V319.684C170.556 323.408 172.038 326.977 174.671 329.611C177.304 332.244 180.874 333.725 184.597 333.729H321.373C325.097 333.725 328.667 332.244 331.3 329.611C333.933 326.977 335.414 323.408 335.419 319.684V23.8828C335.414 20.1592 333.933 16.5893 331.3 13.9563C328.667 11.3232 325.097 9.84196 321.373 9.83739L184.6 9.83572Z" fill="#DEE8F5"/>
<path d="M223.04 4.9176H282.936V16.5391C282.936 17.6814 282.711 18.8125 282.273 19.8679C281.836 20.9232 281.196 21.8821 280.388 22.6898C279.58 23.4975 278.621 24.1382 277.566 24.5753C276.51 25.0124 275.379 25.2373 274.237 25.2372H231.738C229.431 25.2372 227.219 24.3208 225.587 22.6895C223.956 21.0581 223.04 18.8456 223.04 16.5385V4.9176H223.04Z" fill="#DEE8F5"/>
<path d="M281.673 76.759C281.672 82.4323 279.989 87.978 276.837 92.6948C273.684 97.4116 269.204 101.088 263.963 103.258C258.721 105.429 252.953 105.996 247.389 104.889C241.825 103.782 236.714 101.049 232.703 97.0372C228.692 93.0253 225.96 87.9139 224.854 82.3496C223.748 76.7852 224.317 71.0178 226.488 65.7766C228.66 60.5354 232.337 56.0558 237.054 52.9044C241.772 49.753 247.318 48.0712 252.991 48.0717C256.762 48.0574 260.498 48.7897 263.985 50.2264C267.472 51.6631 270.639 53.7757 273.306 56.4425C275.972 59.1093 278.084 62.2775 279.52 65.7644C280.956 69.2513 281.688 72.988 281.673 76.759V76.759Z" fill="#C1D8ED"/>
<path d="M252.988 79.7147C259.26 79.7147 264.345 74.6299 264.345 68.3574C264.345 62.085 259.26 57.0001 252.988 57.0001C246.716 57.0001 241.631 62.085 241.631 68.3574C241.631 74.6299 246.716 79.7147 252.988 79.7147Z" fill="white"/>
<path d="M273.658 96.6462C270.982 99.4285 267.772 101.642 264.221 103.154C260.669 104.667 256.849 105.446 252.989 105.447C249.129 105.447 245.309 104.669 241.757 103.157C238.205 101.646 234.995 99.4334 232.318 96.6518C236.186 88.0071 243.995 82.0991 252.991 82.0991C261.987 82.0991 269.79 88.001 273.658 96.6462Z" fill="white"/>
<path d="M313.421 126.125H192.554V152.492H313.421V126.125Z" fill="#0CBC8B"/>
<path d="M313.421 171.697H192.554V198.064H313.421V171.697Z" fill="#C1D8ED"/>
<path d="M398.767 112.281C398.767 112.281 394.285 110.356 394.285 98.5806L385.276 97.6626C385.276 97.6626 387.132 108.068 382.916 111.764L398.767 112.281Z" fill="#E98862"/>
<path d="M398.95 93.6318C398.627 97.2312 396.965 100.75 393.929 102.153C390.628 103.788 386.978 104.589 383.296 104.488C373.515 104.488 373.625 82.2394 377.886 77.5676C382.147 72.8958 395.907 74.506 398.142 81.5477C399.296 85.1928 399.256 90.2063 398.95 93.6318Z" fill="#E98862"/>
<path d="M384.761 92.0405C385.207 92.0405 385.568 91.6789 385.568 91.2329C385.568 90.7869 385.207 90.4253 384.761 90.4253C384.315 90.4253 383.953 90.7869 383.953 91.2329C383.953 91.6789 384.315 92.0405 384.761 92.0405Z" fill="#367CFF"/>
<path d="M386.348 89.6333C386.328 89.6332 386.309 89.6317 386.289 89.6288L384.145 89.2944C384.095 89.2884 384.046 89.2722 384.002 89.2469C383.957 89.2215 383.919 89.1875 383.888 89.1469C383.857 89.1063 383.835 89.0599 383.822 89.0105C383.81 88.961 383.807 88.9096 383.815 88.8592C383.823 88.8089 383.841 88.7606 383.868 88.7173C383.895 88.674 383.93 88.6365 383.972 88.6072C384.013 88.5778 384.061 88.5572 384.111 88.5465C384.16 88.5357 384.212 88.5352 384.262 88.5448L386.405 88.8792C386.5 88.8938 386.585 88.9433 386.645 89.018C386.704 89.0927 386.733 89.1871 386.726 89.2823C386.719 89.3774 386.676 89.4665 386.607 89.5316C386.537 89.5968 386.445 89.6333 386.35 89.6339L386.348 89.6333Z" fill="#367CFF"/>
<path d="M378.428 94.6607C378.428 95.5687 378.789 96.4396 379.431 97.0817C380.073 97.7238 380.944 98.0845 381.852 98.0845C382.76 98.0845 383.631 97.7238 384.273 97.0817C384.915 96.4396 385.276 95.5687 385.276 94.6607C385.291 93.7678 384.951 92.9055 384.33 92.2634C383.71 91.6213 382.859 91.2521 381.967 91.2368C381.928 91.2368 381.89 91.2368 381.852 91.2368C379.413 91.3566 378.428 92.7695 378.428 94.6607Z" fill="#E98862"/>
<path d="M378.399 86.6074C376.501 86.5925 374.607 86.4328 372.733 86.1298C372.733 86.1298 373.306 71.6813 388.65 72.5051C390.643 72.4141 392.639 72.532 394.607 72.8568C399.219 73.5635 405.757 78.2788 406.813 90.0792C407.297 95.4928 409.163 100.596 410.587 103.827C410.755 104.206 410.826 104.622 410.793 105.035C410.76 105.449 410.625 105.848 410.398 106.196C410.172 106.544 409.863 106.83 409.499 107.028C409.134 107.226 408.726 107.33 408.311 107.331L375.437 107.069C375.048 107.069 374.665 106.978 374.318 106.804C373.971 106.629 373.669 106.376 373.437 106.064C373.205 105.752 373.05 105.39 372.983 105.007C372.915 104.625 372.939 104.231 373.051 103.859C374.839 97.9374 378.112 94.3079 378.399 86.6074Z" fill="#0F1011"/>
<path d="M320.667 147.589C320.667 147.589 312.752 145.394 311.615 143.882C310.478 142.369 313.242 137.278 313.242 137.278C313.242 137.278 305.327 134.038 306.088 132.758C306.988 131.249 316.871 136.653 316.871 136.653C316.871 136.653 314.721 134.112 315.773 133.44C316.205 133.161 316.768 133.465 318.374 135.226C320.204 137.233 323.369 140.08 323.369 140.08L320.667 147.589Z" fill="#E98862"/>
<path d="M360.044 337.466C358.811 327.089 358.811 326.022 358.811 325.672H370.516C370.516 325.636 370.516 325.59 370.516 325.534C370.557 326.401 371.148 331.685 371.67 336.085L360.044 337.466Z" fill="#E98862"/>
<path d="M406.68 338.865C406.68 338.865 406.641 326.744 406.641 325.672H418.346C418.346 326.741 418.385 338.825 418.385 338.825L406.68 338.865Z" fill="#E98862"/>
<path d="M423.634 191.115C423.634 192.776 422.757 198.328 424.168 198.725C425.013 198.963 426.012 194.824 426.012 194.824" fill="#E98862"/>
<path d="M430.293 190.243C430.293 190.243 434.899 201.453 429.646 207.894C429.512 208.058 429.331 208.178 429.128 208.238C428.925 208.298 428.709 208.295 428.507 208.23C428.306 208.165 428.129 208.04 427.999 207.873C427.869 207.705 427.793 207.503 427.781 207.291C427.525 202.949 426.65 194.029 423.787 195.071V188.069" fill="#E98862"/>
<path d="M416.688 262.777C415.558 245.287 413.605 215.948 412.646 198.734H412.804L411.154 171.033L368.752 173.65L368.317 176.62L368.168 176.576C363.198 202.919 361.079 232.051 357.05 258.583C356.767 283.168 356.689 308.896 355.727 333.421L376.349 333.772C376.285 309.814 376.876 284.768 377.584 260.77C380.816 241.96 385.357 221.086 389.001 202.482C392.297 238.727 397.212 298.108 400.857 334.843L421.406 333.107L416.688 262.777Z" fill="#262626"/>
<path d="M392.454 343.392C392.153 343.39 391.856 343.33 391.579 343.213C391.301 343.097 391.05 342.927 390.838 342.714C390.627 342.5 390.459 342.247 390.345 341.968C390.232 341.69 390.174 341.392 390.175 341.092C390.175 341.036 390.178 340.98 390.182 340.924C390.216 340.489 390.373 340.073 390.636 339.725C390.898 339.376 391.255 339.11 391.664 338.957L405.287 334.394C405.551 334.307 405.831 334.278 406.107 334.308C406.383 334.339 406.649 334.429 406.888 334.572C408.761 335.872 411.001 336.536 413.28 336.467C415.054 336.341 416.758 335.719 418.195 334.671C418.322 334.568 418.475 334.502 418.637 334.482C418.8 334.462 418.964 334.489 419.112 334.559C419.26 334.629 419.384 334.74 419.472 334.878C419.559 335.016 419.605 335.177 419.604 335.34V342.002C419.604 342.398 419.447 342.777 419.167 343.057C418.887 343.337 418.508 343.494 418.112 343.494H418.106L392.454 343.392Z" fill="#C1D8ED"/>
<path d="M345.786 343.392C345.485 343.39 345.187 343.33 344.91 343.213C344.633 343.097 344.381 342.927 344.17 342.714C343.958 342.5 343.791 342.247 343.677 341.968C343.563 341.69 343.506 341.392 343.507 341.091C343.507 341.036 343.509 340.98 343.514 340.924C343.548 340.489 343.705 340.073 343.968 339.724C344.23 339.376 344.587 339.11 344.996 338.957L358.619 334.394C358.883 334.307 359.163 334.278 359.439 334.308C359.715 334.339 359.982 334.429 360.22 334.572C362.093 335.872 364.333 336.536 366.611 336.467C368.386 336.341 370.09 335.719 371.528 334.671C371.654 334.567 371.807 334.502 371.97 334.482C372.132 334.462 372.297 334.489 372.444 334.559C372.592 334.629 372.717 334.74 372.804 334.878C372.891 335.016 372.937 335.177 372.936 335.34V342.002C372.936 342.397 372.779 342.777 372.499 343.057C372.219 343.337 371.84 343.494 371.444 343.494H371.438L345.786 343.392Z" fill="#C1D8ED"/>
<path d="M427.729 155.756C427.668 155.345 427.565 154.941 427.421 154.551L414.628 119.764L414.551 119.793C413.995 118.08 413.036 116.525 411.753 115.261C409.206 112.715 404.797 111.067 399.426 111.067C391.432 111.067 380.512 111.084 378.275 111.179C371.438 111.472 368.242 114.536 366.936 119.062L350.949 147.762L323.224 137.448L319.144 148.417L351.575 160.485C352.885 160.974 354.328 160.977 355.64 160.493C356.953 160.009 358.048 159.071 358.728 157.849L367.65 141.832C367.886 144.109 368.063 146.346 368.087 148.479C368.301 166.575 363.415 169.984 365.823 175.516C368.161 180.881 414.047 183.113 414.661 173.668C415.051 167.661 409.756 162.414 409.756 150.705C409.8 148.48 410.094 146.266 410.633 144.107L415.799 158.156L420.871 192.326L432.893 190.542L427.729 155.756Z" fill="#367CFF"/>
<path d="M252.988 306.509C274.181 306.509 291.361 289.328 291.361 268.135C291.361 246.943 274.181 229.762 252.988 229.762C231.795 229.762 214.615 246.943 214.615 268.135C214.615 289.328 231.795 306.509 252.988 306.509Z" fill="#C1D8ED"/>
<path d="M229.124 251.042C224.723 285.841 253.598 295.326 253.598 295.326C253.598 295.326 280.11 285.238 277.063 251.127C277.063 251.127 261.591 254.385 253.598 242.721C253.598 242.722 247.722 254.028 229.124 251.042Z" fill="white"/>
<path d="M261.129 264.731H259.97V262.141C259.954 260.3 259.211 258.54 257.903 257.244C256.596 255.948 254.829 255.221 252.988 255.221C251.147 255.221 249.381 255.948 248.073 257.244C246.766 258.54 246.023 260.3 246.006 262.141V264.731H244.848C244.318 264.731 243.81 264.942 243.435 265.316C243.06 265.691 242.85 266.199 242.85 266.729V279.755C242.85 280.285 243.06 280.793 243.435 281.168C243.81 281.543 244.318 281.753 244.848 281.753H261.13C261.66 281.753 262.169 281.543 262.543 281.168C262.918 280.793 263.129 280.285 263.129 279.755V266.729C263.129 266.467 263.077 266.207 262.976 265.964C262.876 265.722 262.729 265.502 262.543 265.316C262.357 265.13 262.137 264.983 261.894 264.883C261.652 264.783 261.392 264.731 261.129 264.731V264.731ZM248.276 262.141C248.29 260.9 248.792 259.714 249.674 258.842C250.556 257.969 251.747 257.479 252.988 257.479C254.229 257.479 255.42 257.969 256.302 258.842C257.185 259.714 257.687 260.9 257.7 262.141V264.731H248.276V262.141Z" fill="#0CBC8B"/>
<path d="M204.509 143.561C206.858 143.561 208.762 141.657 208.762 139.309C208.762 136.96 206.858 135.056 204.509 135.056C202.16 135.056 200.256 136.96 200.256 139.309C200.256 141.657 202.16 143.561 204.509 143.561Z" fill="white"/>
<path d="M217.277 143.561C219.626 143.561 221.53 141.657 221.53 139.309C221.53 136.96 219.626 135.056 217.277 135.056C214.928 135.056 213.024 136.96 213.024 139.309C213.024 141.657 214.928 143.561 217.277 143.561Z" fill="white"/>
<path d="M230.046 143.561C232.394 143.561 234.298 141.657 234.298 139.309C234.298 136.96 232.394 135.056 230.046 135.056C227.697 135.056 225.793 136.96 225.793 139.309C225.793 141.657 227.697 143.561 230.046 143.561Z" fill="white"/>
<path d="M242.814 143.561C245.163 143.561 247.067 141.657 247.067 139.309C247.067 136.96 245.163 135.056 242.814 135.056C240.465 135.056 238.561 136.96 238.561 139.309C238.561 141.657 240.465 143.561 242.814 143.561Z" fill="white"/>
<path d="M255.582 143.561C257.931 143.561 259.835 141.657 259.835 139.309C259.835 136.96 257.931 135.056 255.582 135.056C253.233 135.056 251.329 136.96 251.329 139.309C251.329 141.657 253.233 143.561 255.582 143.561Z" fill="white"/>
<path d="M268.351 143.561C270.699 143.561 272.603 141.657 272.603 139.309C272.603 136.96 270.699 135.056 268.351 135.056C266.002 135.056 264.098 136.96 264.098 139.309C264.098 141.657 266.002 143.561 268.351 143.561Z" fill="white"/>
<path d="M280.663 143.561C283.012 143.561 284.916 141.657 284.916 139.309C284.916 136.96 283.012 135.056 280.663 135.056C278.314 135.056 276.411 136.96 276.411 139.309C276.411 141.657 278.314 143.561 280.663 143.561Z" fill="white"/>
<path d="M204.509 189.133C206.858 189.133 208.762 187.229 208.762 184.88C208.762 182.532 206.858 180.628 204.509 180.628C202.16 180.628 200.256 182.532 200.256 184.88C200.256 187.229 202.16 189.133 204.509 189.133Z" fill="white"/>
<path d="M217.277 189.133C219.626 189.133 221.53 187.229 221.53 184.88C221.53 182.532 219.626 180.628 217.277 180.628C214.928 180.628 213.024 182.532 213.024 184.88C213.024 187.229 214.928 189.133 217.277 189.133Z" fill="white"/>
<path d="M230.046 189.133C232.394 189.133 234.298 187.229 234.298 184.88C234.298 182.532 232.394 180.628 230.046 180.628C227.697 180.628 225.793 182.532 225.793 184.88C225.793 187.229 227.697 189.133 230.046 189.133Z" fill="white"/>
<path d="M242.814 189.133C245.163 189.133 247.067 187.229 247.067 184.88C247.067 182.532 245.163 180.628 242.814 180.628C240.465 180.628 238.561 182.532 238.561 184.88C238.561 187.229 240.465 189.133 242.814 189.133Z" fill="white"/>
<path d="M255.582 189.133C257.931 189.133 259.835 187.229 259.835 184.88C259.835 182.532 257.931 180.628 255.582 180.628C253.233 180.628 251.329 182.532 251.329 184.88C251.329 187.229 253.233 189.133 255.582 189.133Z" fill="white"/>
<path d="M268.351 189.133C270.699 189.133 272.603 187.229 272.603 184.88C272.603 182.532 270.699 180.628 268.351 180.628C266.002 180.628 264.098 182.532 264.098 184.88C264.098 187.229 266.002 189.133 268.351 189.133Z" fill="white"/>
</svg>
