<svg width="380" height="285" viewBox="0 0 380 285" fill="none" xmlns="http://www.w3.org/2000/svg">
<path d="M248.454 21.7783H15.0948C8.01119 21.7783 2.2688 27.5207 2.2688 34.6043V92.4758C2.2688 99.5592 8.01119 105.302 15.0948 105.302H248.454C255.538 105.302 261.28 99.5592 261.28 92.4758V34.6043C261.28 27.5207 255.538 21.7783 248.454 21.7783Z" fill="white"/>
<path d="M261.281 74.0546V100.299C261.281 103.064 255.711 105.302 248.88 105.302H14.6851C7.83408 105.302 2.28442 103.064 2.28442 100.299V85.1083C18.0726 89.2908 36.0482 92.1112 54.4848 93.8632C76.7645 95.9798 99.7277 96.5975 122.595 96.6887C149.938 96.8001 177.737 96.1368 203.475 92.4252C227.061 89.0326 248.931 82.7791 261.281 74.0546Z" fill="#E8F0F9"/>
<path d="M248.211 107.423H14.8514C10.9147 107.419 7.14028 105.854 4.35611 103.071C1.57194 100.288 0.00536135 96.514 0 92.5771V34.7006C0.00536135 30.7638 1.57194 26.99 4.35611 24.2068C7.14028 21.4235 10.9147 19.8582 14.8514 19.8542H248.211C252.148 19.8582 255.924 21.4243 258.708 24.2086C261.492 26.9929 263.058 30.768 263.062 34.7057V92.5822C263.056 96.5181 261.488 100.29 258.704 103.073C255.92 105.855 252.147 107.419 248.211 107.423ZM14.8514 23.9051C11.9886 23.9078 9.24378 25.0458 7.21902 27.0697C5.19425 29.0935 4.05487 31.8378 4.05085 34.7006V92.5771C4.05353 95.4405 5.19233 98.1865 7.21725 100.211C9.24216 102.236 11.9878 103.375 14.8514 103.378H248.211C251.074 103.375 253.82 102.236 255.845 100.211C257.87 98.1865 259.009 95.4405 259.011 92.5771V34.7006C259.009 31.8369 257.87 29.0913 255.845 27.0664C253.82 25.0415 251.074 23.9027 248.211 23.9L14.8514 23.9051Z" fill="#314E5D"/>
<path d="M365.423 151.406H98.6793C91.5954 151.406 85.8533 157.148 85.8533 164.232V222.103C85.8533 229.186 91.5954 234.929 98.6793 234.929H365.423C372.506 234.929 378.249 229.186 378.249 222.103V164.232C378.249 157.148 372.506 151.406 365.423 151.406Z" fill="white"/>
<path d="M378.249 203.682V229.926C378.249 232.691 371.98 234.929 364.248 234.929H99.854C92.122 234.929 85.8533 232.691 85.8533 229.926V214.736C103.677 218.918 123.972 221.738 144.783 223.49C169.908 225.607 195.854 226.225 221.673 226.316C252.531 226.427 283.925 225.764 312.979 222.052C339.619 218.66 364.309 212.406 378.249 203.682Z" fill="#E8F0F9"/>
<path d="M191.564 151.613C164.018 153.264 125.738 151.669 101.985 157.74C90.7081 160.616 87.9282 166.196 86.1104 170.809L86.1458 157.892C86.1458 156.236 86.3028 154.434 89.2953 153.168C92.9968 151.608 99.4933 151.487 105.215 151.492C133.308 151.502 164.028 150.388 191.564 151.613Z" fill="#4ED9FF"/>
<path d="M365.149 237.051H98.4003C94.4633 237.047 90.689 235.481 87.905 232.698C85.1206 229.915 83.5544 226.141 83.5488 222.204V164.328C83.5529 160.39 85.119 156.615 87.903 153.83C90.6874 151.047 94.4628 149.48 98.4003 149.476H365.149C369.086 149.48 372.861 151.047 375.646 153.83C378.43 156.615 379.996 160.39 380 164.328V222.204C379.994 226.141 378.428 229.915 375.644 232.698C372.86 235.481 369.086 237.047 365.149 237.051ZM98.4003 153.532C95.5373 153.535 92.7929 154.673 90.7679 156.697C88.743 158.72 87.6037 161.465 87.5997 164.328V222.204C87.6022 225.068 88.741 227.814 90.7659 229.839C92.7908 231.863 95.5368 233.002 98.4003 233.005H365.149C368.012 233.002 370.758 231.863 372.783 229.839C374.808 227.814 375.947 225.068 375.949 222.204V164.328C375.947 161.464 374.808 158.718 372.783 156.693C370.758 154.668 368.012 153.53 365.149 153.527L98.4003 153.532Z" fill="#314E5D"/>
<path d="M328.346 1.71143H61.6378C54.5544 1.71143 48.812 7.45381 48.812 14.5374V252.621C48.812 259.704 54.5544 265.447 61.6378 265.447H328.346C335.43 265.447 341.172 259.704 341.172 252.621V14.5374C341.172 7.45381 335.43 1.71143 328.346 1.71143Z" fill="#1DCDFF"/>
<path d="M341.173 166.784V249.634C341.173 258.358 334.905 265.427 327.173 265.427H62.789C55.057 265.427 48.7881 258.338 48.7881 249.634V201.722C66.612 214.928 86.9017 223.84 107.708 229.374C132.833 236.063 158.774 238.018 184.588 238.301C215.445 238.651 246.829 236.554 275.884 224.832C302.549 214.087 327.239 194.329 341.173 166.784Z" fill="#1AB5E1"/>
<path d="M154.515 2.37483C126.975 7.59535 88.7196 2.55711 64.9462 21.7176C53.6747 30.8017 50.8948 48.4178 49.0769 62.9856L49.1174 22.2088C49.1174 16.9883 49.2744 11.2816 52.267 7.2966C55.9685 2.37483 62.465 1.99506 68.1818 1.99506C96.2643 2.02544 126.98 -1.42791 154.515 2.37483Z" fill="#4ED9FF"/>
<path d="M328.074 267.786H61.3611C57.4232 267.782 53.6483 266.216 50.8639 263.432C48.0795 260.648 46.5135 256.872 46.5095 252.935V14.8514C46.5135 10.9138 48.0795 7.13866 50.8639 4.35432C53.6483 1.57001 57.4232 0.00402139 61.3611 0H328.074C332.012 0.00402139 335.787 1.57001 338.571 4.35432C341.355 7.13866 342.921 10.9138 342.926 14.8514V252.94C342.92 256.877 341.353 260.651 338.569 263.434C335.785 266.217 332.011 267.782 328.074 267.786ZM61.3611 4.05085C58.4972 4.05353 55.7517 5.19233 53.7268 7.21725C51.7019 9.24216 50.5631 11.9878 50.5604 14.8514V252.94C50.5631 255.804 51.7019 258.549 53.7268 260.574C55.7517 262.599 58.4972 263.738 61.3611 263.741H328.074C330.938 263.738 333.683 262.599 335.708 260.574C337.733 258.549 338.872 255.804 338.875 252.94V14.8514C338.872 11.9878 337.733 9.24216 335.708 7.21725C333.683 5.19233 330.938 4.05353 328.074 4.05085H61.3611Z" fill="#314E5D"/>
<path d="M307.85 18.7148H83.3213C78.8862 18.7148 75.2905 22.3103 75.2905 26.7457V237.77C75.2905 242.205 78.8862 245.8 83.3213 245.8H307.85C312.285 245.8 315.881 242.205 315.881 237.77V26.7457C315.881 22.3103 312.285 18.7148 307.85 18.7148Z" fill="white"/>
<path d="M315.494 25.1557V69.2492H74.8889V25.1557C74.8889 21.7733 78.3321 19.0288 82.5805 19.0288H307.803C312.051 19.0288 315.494 21.7733 315.494 25.1557Z" fill="#DCEAEF"/>
<path d="M307.561 249.087H83.043C80.3766 249.084 77.8205 248.024 75.9348 246.138C74.0497 244.253 72.9893 241.697 72.9868 239.03V26.3609C72.9909 23.6955 74.0517 21.1405 75.9368 19.2562C77.822 17.372 80.3776 16.3124 83.043 16.3097H307.561C310.227 16.3124 312.784 17.3727 314.669 19.2581C316.554 21.1434 317.615 23.6997 317.618 26.3659V239.035C317.614 241.701 316.552 244.256 314.667 246.14C312.782 248.024 310.226 249.084 307.561 249.087ZM83.043 20.3605C81.4511 20.3632 79.9249 20.9968 78.7993 22.1224C77.6736 23.2481 77.0402 24.774 77.0377 26.3659V239.035C77.0417 240.626 77.6757 242.151 78.8013 243.276C79.9264 244.4 81.4521 245.033 83.043 245.036H307.561C309.153 245.033 310.679 244.399 311.805 243.274C312.93 242.148 313.564 240.622 313.567 239.03V26.3609C313.563 24.7698 312.928 23.2452 311.803 22.1206C310.677 20.9961 309.152 20.3632 307.561 20.3605H83.043Z" fill="#314E5D"/>
<path d="M204.366 48.4026H102.037V57.2436H204.366V48.4026Z" fill="white"/>
<path d="M98.8447 91.0074H148.908V88.906H98.8447V91.0074Z" fill="#CED5D8"/>
<path d="M98.8447 95.6354H207.808V93.5341H98.8447V95.6354Z" fill="#CED5D8"/>
<path d="M98.8447 100.264H148.908V98.1622H98.8447V100.264Z" fill="#CED5D8"/>
<path d="M98.8447 104.892H207.808V102.79H98.8447V104.892Z" fill="#CED5D8"/>
<path d="M98.8447 109.52H148.908V107.418H98.8447V109.52Z" fill="#CED5D8"/>
<path d="M98.8447 114.143H207.808V112.041H98.8447V114.143Z" fill="#CED5D8"/>
<path d="M98.8447 132.827H148.908V130.726H98.8447V132.827Z" fill="#CED5D8"/>
<path d="M98.8447 137.455H207.808V135.354H98.8447V137.455Z" fill="#CED5D8"/>
<path d="M98.8447 142.083H148.908V139.982H98.8447V142.083Z" fill="#CED5D8"/>
<path d="M98.8447 146.712H207.808V144.61H98.8447V146.712Z" fill="#CED5D8"/>
<path d="M98.8447 151.34H148.908V149.238H98.8447V151.34Z" fill="#CED5D8"/>
<path d="M98.8447 155.963H207.808V153.861H98.8447V155.963Z" fill="#CED5D8"/>
<path d="M98.8447 174.647H148.908V172.546H98.8447V174.647Z" fill="#CED5D8"/>
<path d="M98.8447 179.275H207.808V177.174H98.8447V179.275Z" fill="#CED5D8"/>
<path d="M98.8447 183.903H148.908V181.802H98.8447V183.903Z" fill="#CED5D8"/>
<path d="M98.8447 188.532H207.808V186.43H98.8447V188.532Z" fill="#CED5D8"/>
<path d="M98.8447 193.16H148.908V191.058H98.8447V193.16Z" fill="#CED5D8"/>
<path d="M98.8447 197.783H207.808V195.681H98.8447V197.783Z" fill="#CED5D8"/>
<path d="M267.842 32.8726H305.424V28.4521H267.842V32.8726Z" fill="#EEA248"/>
<path d="M225.075 32.8726H262.656V28.4521H225.075V32.8726Z" fill="#EEA248"/>
<path d="M86.8451 34.9234C89.1996 34.9234 91.1086 33.0145 91.1086 30.6599C91.1086 28.3052 89.1996 26.3964 86.8451 26.3964C84.4905 26.3964 82.5815 28.3052 82.5815 30.6599C82.5815 33.0145 84.4905 34.9234 86.8451 34.9234Z" fill="#EEA248"/>
<path d="M237.574 190.511L223.979 203.403L251.564 232.491L265.159 219.6L237.574 190.511Z" fill="#314E5D"/>
<g opacity="0.5">
<path opacity="0.5" d="M225.78 190.971C243.498 174.17 244.24 146.188 227.439 128.471C210.638 110.754 182.655 110.011 164.938 126.812C147.221 143.613 146.479 171.596 163.28 189.313C180.081 207.03 208.063 207.772 225.78 190.971Z" fill="#8BDDEB"/>
<path opacity="0.5" d="M172.06 184.44C167.589 179.728 164.212 174.088 162.169 167.922C160.126 161.755 159.468 155.215 160.242 148.765C161.016 142.316 163.202 136.116 166.645 130.608C170.087 125.1 174.703 120.419 180.161 116.897C174.321 119.038 168.997 122.387 164.539 126.725C160.081 131.064 156.589 136.294 154.291 142.074C151.993 147.855 150.94 154.055 151.202 160.27C151.464 166.485 153.035 172.575 155.812 178.142C158.588 183.708 162.508 188.626 167.316 192.574C172.123 196.521 177.709 199.411 183.709 201.052C189.71 202.693 195.989 203.049 202.136 202.097C208.283 201.146 214.161 198.908 219.384 195.529C211.274 198.506 202.471 199.042 194.061 197.071C185.651 195.1 178.002 190.709 172.06 184.44Z" fill="#62D6F8"/>
</g>
<path d="M243.607 111.692C238.79 106.6 233.213 102.283 227.074 98.8965C226.968 98.8306 226.862 98.7749 226.745 98.7192C212.556 90.9917 196.08 88.5623 180.264 91.8657C164.448 95.1692 150.321 103.989 140.411 116.751C130.5 129.511 125.451 145.381 126.165 161.523C126.88 177.665 133.311 193.026 144.311 204.862C144.468 205.039 144.63 205.211 144.817 205.368C149.847 210.685 155.703 215.153 162.16 218.599L162.342 218.695C176.611 226.242 193.097 228.475 208.859 224.993C224.621 221.512 238.633 212.544 248.396 199.689C258.158 186.834 263.036 170.929 262.159 154.811C261.282 138.694 254.707 123.412 243.607 111.692ZM226.953 128.473C232.97 134.817 236.971 142.803 238.449 151.421C239.927 160.039 238.817 168.902 235.258 176.889C231.699 184.876 225.852 191.628 218.455 196.292C211.059 200.956 202.445 203.321 193.705 203.09C184.964 202.858 176.488 200.04 169.349 194.991C162.21 189.942 156.728 182.89 153.597 174.726C150.466 166.562 149.826 157.653 151.759 149.125C153.691 140.597 158.109 132.834 164.453 126.817C168.666 122.822 173.625 119.696 179.046 117.616C184.466 115.538 190.244 114.547 196.047 114.701C201.851 114.856 207.568 116.152 212.871 118.515C218.173 120.879 222.959 124.264 226.953 128.478V128.473Z" fill="#E7E7E7"/>
<path d="M248.383 198.198C236.823 209.162 221.782 215.724 205.882 216.743C189.982 217.76 174.228 213.17 161.363 203.77C148.499 194.37 139.338 180.755 135.477 165.297C131.615 149.839 133.298 133.516 140.231 119.171C134.626 126.8 130.674 135.514 128.626 144.756C126.578 153.998 126.481 163.566 128.338 172.848C130.197 182.13 133.97 190.923 139.417 198.665C144.864 206.407 151.866 212.928 159.975 217.812C168.084 222.696 177.123 225.835 186.514 227.029C195.905 228.224 205.441 227.447 214.515 224.748C223.588 222.049 231.999 217.489 239.211 211.357C246.423 205.224 252.277 197.656 256.399 189.134C254 192.386 251.317 195.419 248.383 198.198Z" fill="#CED0D0"/>
<path d="M194.774 229.01C183.117 229.015 171.645 226.094 161.411 220.513L161.157 220.376C146.294 212.199 134.886 198.926 129.034 183.002C128.903 182.658 128.776 182.298 128.659 181.929C124.037 168.629 123.526 154.247 127.192 140.653C130.858 127.058 138.53 114.883 149.212 105.71C159.895 96.5379 173.09 90.7938 187.082 89.2251C201.074 87.6569 215.214 90.337 227.662 96.9166C227.799 96.9824 227.936 97.0584 228.067 97.1343C241.171 104.179 251.694 115.208 258.114 128.628C264.536 142.048 266.522 157.162 263.786 171.785C261.05 186.408 253.733 199.782 242.895 209.973C232.056 220.164 218.258 226.642 203.494 228.473C200.601 228.829 197.689 229.009 194.774 229.01ZM194.891 92.7999C184.345 92.8035 173.954 95.3302 164.584 100.169C155.215 105.008 147.139 112.018 141.031 120.615C134.923 129.211 130.96 139.144 129.474 149.584C127.988 160.024 129.021 170.668 132.488 180.627V180.688C132.584 180.992 132.695 181.296 132.807 181.595C138.32 196.615 149.081 209.134 163.102 216.842L163.279 216.938C177.103 224.5 193.174 226.871 208.593 223.624C224.011 220.376 237.76 211.724 247.36 199.228C256.959 186.734 261.775 171.218 260.94 155.484C260.104 139.749 253.671 124.832 242.802 113.424C237.96 108.304 232.327 103.995 226.118 100.664L226.042 100.618L225.88 100.532L225.804 100.491C216.282 95.4436 205.668 92.808 194.891 92.8151V92.7999ZM194.891 205.115C194.471 205.115 194.055 205.115 193.635 205.115C181.443 204.949 169.812 199.968 161.278 191.259C152.744 182.55 148.002 170.818 148.084 158.625C148.167 146.433 153.069 134.767 161.721 126.174C170.372 117.582 182.07 112.759 194.263 112.759C206.456 112.759 218.154 117.582 226.806 126.174C235.457 134.767 240.359 146.433 240.442 158.625C240.525 170.818 235.782 182.55 227.248 191.259C218.715 199.968 207.083 204.949 194.891 205.115ZM194.835 116.695C184.039 116.673 173.65 120.819 165.836 128.27C158.756 134.985 154.223 143.947 153.01 153.63C151.796 163.312 153.977 173.116 159.182 181.37C164.386 189.625 172.292 195.82 181.551 198.899C190.811 201.978 200.852 201.752 209.963 198.258C219.074 194.764 226.693 188.22 231.519 179.739C236.346 171.258 238.084 161.367 236.435 151.748C234.786 142.131 229.854 133.382 222.478 126.993C215.102 120.604 205.74 116.97 195.985 116.71C195.61 116.71 195.232 116.71 194.85 116.71L194.835 116.695Z" fill="#314E5D"/>
<path d="M248.441 214.4L248.437 214.403C242.666 219.876 242.424 228.991 247.897 234.762L288.84 277.937C294.313 283.708 303.427 283.95 309.198 278.478L309.202 278.474C314.973 273.001 315.215 263.886 309.743 258.115L268.799 214.94C263.327 209.169 254.212 208.927 248.441 214.4Z" fill="#426372"/>
<path d="M298.694 284.446H298.243C296.087 284.397 293.962 283.921 291.991 283.046C290.02 282.171 288.241 280.914 286.759 279.347L245.82 236.164C244.336 234.599 243.174 232.757 242.402 230.742C241.629 228.728 241.261 226.582 241.318 224.425C241.375 222.269 241.857 220.144 242.735 218.174C243.613 216.203 244.87 214.425 246.436 212.94C248.001 211.456 249.843 210.294 251.858 209.522C253.872 208.749 256.018 208.381 258.175 208.438C260.331 208.495 262.456 208.977 264.426 209.855C266.397 210.733 268.175 211.991 269.66 213.556L310.603 256.723C313.591 259.889 315.203 264.109 315.087 268.461C314.971 272.813 313.137 276.941 309.986 279.944C306.943 282.844 302.898 284.457 298.694 284.446ZM257.735 212.492C255.318 212.498 252.956 213.21 250.939 214.542C248.922 215.874 247.339 217.767 246.385 219.987C245.431 222.207 245.147 224.658 245.568 227.038C245.99 229.418 247.098 231.622 248.757 233.38L289.696 276.551C291.961 278.924 295.072 280.304 298.35 280.391C301.628 280.479 304.808 279.266 307.196 277.017C309.568 274.753 310.948 271.642 311.035 268.364C311.123 265.085 309.91 261.905 307.662 259.518L266.723 216.346C265.566 215.125 264.172 214.154 262.627 213.491C261.081 212.829 259.416 212.489 257.735 212.492Z" fill="#314E5D"/>
<g opacity="0.5">
<path opacity="0.5" d="M262.242 219.799C267.305 224.052 271.219 229.344 275.949 233.921C277.357 235.283 279.493 233.136 278.096 231.774C273.366 227.217 269.452 221.905 264.389 217.652C262.9 216.401 260.743 218.538 262.242 219.799Z" fill="white"/>
<path opacity="0.5" d="M253.503 218.842C254.314 218.34 255.226 218.022 256.174 217.911C257.122 217.801 258.082 217.901 258.987 218.204C260.866 218.751 261.671 215.819 259.797 215.272C258.5 214.863 257.131 214.735 255.781 214.898C254.431 215.061 253.131 215.509 251.969 216.214C250.293 217.227 251.817 219.845 253.488 218.837L253.503 218.842Z" fill="white"/>
</g>
<path d="M211.683 103.373C219.759 105.828 227.355 109.758 233.664 115.363C241.674 122.452 247.123 131.759 250.454 141.866C251.062 143.714 253.999 142.924 253.386 141.056C249.897 130.473 244.206 120.655 235.816 113.206C229.091 107.241 221.061 103.079 212.498 100.436C210.625 99.8636 209.824 102.795 211.688 103.368L211.683 103.373Z" fill="white"/>
<path d="M182.177 100.552C187.458 99.8535 192.932 100.112 198.208 100.648C200.152 100.846 200.137 97.8078 198.208 97.6103C192.932 97.0736 187.458 96.8153 182.177 97.5141C180.268 97.7673 180.243 100.81 182.177 100.552Z" fill="white"/>
</svg>
